<svg xmlns="http://www.w3.org/2000/svg" xmlns:xlink="http://www.w3.org/1999/xlink" width="506" height="431" contentScriptType="application/ecmascript" contentStyleType="text/css" style="width:506px;height:431px;background:#fff" preserveAspectRatio="none" version="1.1" viewBox="0 0 506 431" zoomAndPan="magnify"><defs><filter id="f12s7j7ba69fjt" width="300%" height="300%" x="-1" y="-1"><feGaussianBlur result="blurOut" stdDeviation="2"/><feColorMatrix in="blurOut" result="blurOut2" type="matrix" values="0 0 0 0 0 0 0 0 0 0 0 0 0 0 0 0 0 0 .4 0"/><feOffset dx="4" dy="4" in="blurOut2" result="blurOut3"/><feBlend in="SourceGraphic" in2="blurOut3" mode="normal"/></filter></defs><g><rect id="SecHubReportData" width="152" height="48" x="340.371" y="115" fill="#FEFECE" codeLine="2" filter="url(#f12s7j7ba69fjt)" style="stroke:#a80036;stroke-width:1.5"/><ellipse cx="355.371" cy="131" fill="#B4A7E5" rx="11" ry="11" style="stroke:#a80036;stroke-width:1"/><path fill="#000" d="M351.2928,126.7656 L351.2928,124.6094 L358.6834,124.6094 L358.6834,126.7656 L356.2147,126.7656 L356.2147,134.8438 L358.6834,134.8438 L358.6834,137 L351.2928,137 L351.2928,134.8438 L353.7615,134.8438 L353.7615,126.7656 L351.2928,126.7656 Z"/><text x="369.371" y="135.154" fill="#000" font-family="sans-serif" font-size="12" font-style="italic" lengthAdjust="spacing" textLength="120">SecHubReportData</text><line style="stroke:#a80036;stroke-width:1.5" x1="341.371" x2="491.371" y1="147" y2="147"/><line style="stroke:#a80036;stroke-width:1.5" x1="341.371" x2="491.371" y1="155" y2="155"/><rect id="ScanSecHubReport" width="153" height="48" x="210.871" y="242" fill="#FEFECE" codeLine="4" filter="url(#f12s7j7ba69fjt)" style="stroke:#a80036;stroke-width:1.5"/><ellipse cx="225.871" cy="258" fill="#ADD1B2" rx="11" ry="11" style="stroke:#a80036;stroke-width:1"/><path fill="#000" d="M228.8397,263.6406 Q228.2615,263.9375 227.6209,264.0781 Q226.9803,264.2344 226.2772,264.2344 Q223.7772,264.2344 222.449,262.5938 Q221.1365,260.9375 221.1365,257.8125 Q221.1365,254.6875 222.449,253.0313 Q223.7772,251.375 226.2772,251.375 Q226.9803,251.375 227.6209,251.5313 Q228.2772,251.6875 228.8397,251.9844 L228.8397,254.7031 Q228.2147,254.125 227.6209,253.8594 Q227.0272,253.5781 226.4022,253.5781 Q225.0584,253.5781 224.3709,254.6563 Q223.6834,255.7188 223.6834,257.8125 Q223.6834,259.9063 224.3709,260.9844 Q225.0584,262.0469 226.4022,262.0469 Q227.0272,262.0469 227.6209,261.7813 Q228.2147,261.5 228.8397,260.9219 L228.8397,263.6406 Z"/><text x="239.871" y="262.154" fill="#000" font-family="sans-serif" font-size="12" lengthAdjust="spacing" textLength="121">ScanSecHubReport</text><line style="stroke:#a80036;stroke-width:1.5" x1="211.871" x2="362.871" y1="274" y2="274"/><line style="stroke:#a80036;stroke-width:1.5" x1="211.871" x2="362.871" y1="282" y2="282"/><rect id="SecHubReportModel" width="159" height="48" x="207.871" y="369" fill="#FEFECE" codeLine="6" filter="url(#f12s7j7ba69fjt)" style="stroke:#a80036;stroke-width:1.5"/><ellipse cx="222.871" cy="385" fill="#ADD1B2" rx="11" ry="11" style="stroke:#a80036;stroke-width:1"/><path fill="#000" d="M225.8397,390.6406 Q225.2615,390.9375 224.6209,391.0781 Q223.9803,391.2344 223.2772,391.2344 Q220.7772,391.2344 219.449,389.5938 Q218.1365,387.9375 218.1365,384.8125 Q218.1365,381.6875 219.449,380.0313 Q220.7772,378.375 223.2772,378.375 Q223.9803,378.375 224.6209,378.5313 Q225.2772,378.6875 225.8397,378.9844 L225.8397,381.7031 Q225.2147,381.125 224.6209,380.8594 Q224.0272,380.5781 223.4022,380.5781 Q222.0584,380.5781 221.3709,381.6563 Q220.6834,382.7188 220.6834,384.8125 Q220.6834,386.9063 221.3709,387.9844 Q222.0584,389.0469 223.4022,389.0469 Q224.0272,389.0469 224.6209,388.7813 Q225.2147,388.5 225.8397,387.9219 L225.8397,390.6406 Z"/><text x="236.871" y="389.154" fill="#000" font-family="sans-serif" font-size="12" lengthAdjust="spacing" textLength="127">SecHubReportModel</text><line style="stroke:#a80036;stroke-width:1.5" x1="208.871" x2="365.871" y1="401" y2="401"/><line style="stroke:#a80036;stroke-width:1.5" x1="208.871" x2="365.871" y1="409" y2="409"/><rect id="ScanReport" width="167" height="86.414" x="8.871" y="223" fill="#FEFECE" codeLine="8" filter="url(#f12s7j7ba69fjt)" style="stroke:#a80036;stroke-width:1.5"/><ellipse cx="51.771" cy="239" fill="#ADD1B2" rx="11" ry="11" style="stroke:#a80036;stroke-width:1"/><path fill="#000" d="M54.7397,244.6406 Q54.1615,244.9375 53.5209,245.0781 Q52.8803,245.2344 52.1772,245.2344 Q49.6772,245.2344 48.349,243.5938 Q47.0365,241.9375 47.0365,238.8125 Q47.0365,235.6875 48.349,234.0313 Q49.6772,232.375 52.1772,232.375 Q52.8803,232.375 53.5209,232.5313 Q54.1772,232.6875 54.7397,232.9844 L54.7397,235.7031 Q54.1147,235.125 53.5209,234.8594 Q52.9272,234.5781 52.3022,234.5781 Q50.9584,234.5781 50.2709,235.6563 Q49.5834,236.7188 49.5834,238.8125 Q49.5834,240.9063 50.2709,241.9844 Q50.9584,243.0469 52.3022,243.0469 Q52.9272,243.0469 53.5209,242.7813 Q54.1147,242.5 54.7397,241.9219 L54.7397,244.6406 Z"/><text x="71.971" y="243.154" fill="#000" font-family="sans-serif" font-size="12" lengthAdjust="spacing" textLength="73">ScanReport</text><line style="stroke:#a80036;stroke-width:1.5" x1="9.871" x2="174.871" y1="255" y2="255"/><text x="14.871" y="269.21" fill="#000" font-family="sans-serif" font-size="11" lengthAdjust="spacing" textLength="45">«Entity»</text><text x="14.871" y="282.015" fill="#000" font-family="sans-serif" font-size="11" lengthAdjust="spacing" textLength="71">String result</text><text x="14.871" y="294.82" fill="#000" font-family="sans-serif" font-size="11" lengthAdjust="spacing" textLength="155">ScanReportResultType type</text><line style="stroke:#a80036;stroke-width:1.5" x1="9.871" x2="174.871" y1="301.414" y2="301.414"/><rect id="ScanReportRestController" width="194" height="48" x="110.371" y="7" fill="#FEFECE" filter="url(#f12s7j7ba69fjt)" style="stroke:#a80036;stroke-width:1.5"/><ellipse cx="125.371" cy="23" fill="#ADD1B2" rx="11" ry="11" style="stroke:#a80036;stroke-width:1"/><path fill="#000" d="M128.3397,28.6406 Q127.7615,28.9375 127.1209,29.0781 Q126.4803,29.2344 125.7772,29.2344 Q123.2772,29.2344 121.949,27.5938 Q120.6365,25.9375 120.6365,22.8125 Q120.6365,19.6875 121.949,18.0313 Q123.2772,16.375 125.7772,16.375 Q126.4803,16.375 127.1209,16.5313 Q127.7772,16.6875 128.3397,16.9844 L128.3397,19.7031 Q127.7147,19.125 127.1209,18.8594 Q126.5272,18.5781 125.9022,18.5781 Q124.5584,18.5781 123.8709,19.6563 Q123.1834,20.7188 123.1834,22.8125 Q123.1834,24.9063 123.8709,25.9844 Q124.5584,27.0469 125.9022,27.0469 Q126.5272,27.0469 127.1209,26.7813 Q127.7147,26.5 128.3397,25.9219 L128.3397,28.6406 Z"/><text x="139.371" y="27.154" fill="#000" font-family="sans-serif" font-size="12" lengthAdjust="spacing" textLength="162">ScanReportRestController</text><line style="stroke:#a80036;stroke-width:1.5" x1="111.371" x2="303.371" y1="39" y2="39"/><line style="stroke:#a80036;stroke-width:1.5" x1="111.371" x2="303.371" y1="47" y2="47"/><rect id="DownloadScanReportService" width="211" height="48" x="22.871" y="115" fill="#FEFECE" filter="url(#f12s7j7ba69fjt)" style="stroke:#a80036;stroke-width:1.5"/><ellipse cx="37.871" cy="131" fill="#ADD1B2" rx="11" ry="11" style="stroke:#a80036;stroke-width:1"/><path fill="#000" d="M40.8397,136.6406 Q40.2615,136.9375 39.6209,137.0781 Q38.9803,137.2344 38.2772,137.2344 Q35.7772,137.2344 34.449,135.5938 Q33.1365,133.9375 33.1365,130.8125 Q33.1365,127.6875 34.449,126.0313 Q35.7772,124.375 38.2772,124.375 Q38.9803,124.375 39.6209,124.5313 Q40.2772,124.6875 40.8397,124.9844 L40.8397,127.7031 Q40.2147,127.125 39.6209,126.8594 Q39.0272,126.5781 38.4022,126.5781 Q37.0584,126.5781 36.3709,127.6563 Q35.6834,128.7188 35.6834,130.8125 Q35.6834,132.9063 36.3709,133.9844 Q37.0584,135.0469 38.4022,135.0469 Q39.0272,135.0469 39.6209,134.7813 Q40.2147,134.5 40.8397,133.9219 L40.8397,136.6406 Z"/><text x="51.871" y="135.154" fill="#000" font-family="sans-serif" font-size="12" lengthAdjust="spacing" textLength="179">DownloadScanReportService</text><line style="stroke:#a80036;stroke-width:1.5" x1="23.871" x2="232.871" y1="147" y2="147"/><line style="stroke:#a80036;stroke-width:1.5" x1="23.871" x2="232.871" y1="155" y2="155"/><path id="SecHubReportData-backto-ScanSecHubReport" fill="none" d="M377.9809,177.2 C356.3109,198.2 329.9009,223.79 311.2009,241.91" style="stroke:#a80036;stroke-width:1;stroke-dasharray:7,7"/><polygon fill="none" points="373.171 172.11 392.411 163.22 382.921 182.16 373.171 172.11" style="stroke:#a80036;stroke-width:1"/><path id="SecHubReportData-backto-SecHubReportModel" fill="none" d="M414.9109,183.31 C412.0109,219.15 403.8509,270.26 381.3709,309 C367.2709,333.29 343.5109,354.18 323.4109,368.92" style="stroke:#a80036;stroke-width:1;stroke-dasharray:7,7"/><polygon fill="none" points="407.931 182.77 416.121 163.22 421.911 183.61 407.931 182.77" style="stroke:#a80036;stroke-width:1"/><path id="ScanReportRestController-backto-ScanSecHubReport" fill="none" d="M224.4709,59.96 C233.4909,75.68 244.1609,95.92 251.3709,115 C267.8009,158.46 278.5009,211.91 283.6809,241.85" codeLine="14" style="stroke:green;stroke-width:2;stroke-dasharray:7,7"/><polygon fill="green" points="221.721 55.23 222.782 65.022 224.232 59.553 229.7 61.003 221.721 55.23" style="stroke:green;stroke-width:2"/><path id="ScanReportRestController-to-DownloadScanReportService" fill="none" d="M190.2309,55 C178.1009,71.28 161.7709,93.19 148.9309,110.41" codeLine="15" style="stroke:#00f;stroke-width:2;stroke-dasharray:7,7"/><polygon fill="#00F" points="145.751 114.68 154.351 109.88 148.751 110.68 147.951 105.08 145.751 114.68" style="stroke:#00f;stroke-width:2"/><text x="118.575" y="104.007" fill="#000" font-family="sans-serif" font-size="13" lengthAdjust="spacing" textLength="28">calls</text><path id="DownloadScanReportService-to-ScanReport" fill="none" d="M121.6809,163.22 C117.2809,178.51 111.3509,199.09 105.9809,217.73" codeLine="16" style="stroke:#00f;stroke-width:2;stroke-dasharray:7,7"/><polygon fill="#00F" points="104.481 222.94 110.82 215.403 105.868 218.136 103.134 213.184 104.481 222.94" style="stroke:#00f;stroke-width:2"/><text x="6" y="211.927" fill="#000" font-family="sans-serif" font-size="13" lengthAdjust="spacing" textLength="93">reads from DB</text><path id="DownloadScanReportService-to-ScanSecHubReport" fill="none" d="M157.9009,163.22 C185.1209,184.62 225.4909,216.35 253.8909,238.68" codeLine="17" style="stroke:green;stroke-width:2;stroke-dasharray:7,7"/><polygon fill="green" points="257.991 241.91 253.384 233.205 254.059 238.821 248.442 239.496 257.991 241.91" style="stroke:green;stroke-width:2"/><text x="196.312" y="230.899" fill="#000" font-family="sans-serif" font-size="13" lengthAdjust="spacing" textLength="48">creates</text><path id="ScanReport-SecHubReportModel" fill="none" d="M158.1209,309.15 C189.3009,329.13 225.3409,352.24 251.4309,368.96" codeLine="19" style="stroke:#a80036;stroke-width:1;stroke-dasharray:7,7"/><path id="ScanSecHubReport-backto-SecHubReportModel" fill="none" d="M287.3709,303.29 C287.3709,324.46 287.3709,350.52 287.3709,368.91" codeLine="20" style="stroke:#a80036;stroke-width:1"/><polygon fill="#FFF" points="287.371 290.22 283.371 296.22 287.371 302.22 291.371 296.22 287.371 290.22" style="stroke:#a80036;stroke-width:1"/></g></svg>