<svg xmlns="http://www.w3.org/2000/svg" xmlns:xlink="http://www.w3.org/1999/xlink" width="1143" height="713" contentScriptType="application/ecmascript" contentStyleType="text/css" style="width:1143px;height:713px;background:#fff" preserveAspectRatio="none" version="1.1" viewBox="0 0 1143 713" zoomAndPan="magnify"><defs><filter id="f1jflmt8y2bdh0" width="300%" height="300%" x="-1" y="-1"><feGaussianBlur result="blurOut" stdDeviation="2"/><feColorMatrix in="blurOut" result="blurOut2" type="matrix" values="0 0 0 0 0 0 0 0 0 0 0 0 0 0 0 0 0 0 .4 0"/><feOffset dx="4" dy="4" in="blurOut2" result="blurOut3"/><feBlend in="SourceGraphic" in2="blurOut3" mode="normal"/></filter></defs><g><rect style="stroke:#000;stroke-width:1.5" width="604" height="572" x="527" y="7" fill="#FFF" filter="url(#f1jflmt8y2bdh0)"/><path fill="none" d="M602,7 L602,16.2969 L592,26.2969 L527,26.2969" style="stroke:#000;stroke-width:1.5"/><text x="530" y="20.995" fill="#000" font-family="sans-serif" font-size="14" font-weight="bold" lengthAdjust="spacing" textLength="65">external</text><rect style="stroke:#000;stroke-width:1.5" width="233" height="215" x="595" y="50" fill="#FFF" filter="url(#f1jflmt8y2bdh0)"/><path fill="none" d="M642,50 L642,59.2969 L632,69.2969 L595,69.2969" style="stroke:#000;stroke-width:1.5"/><text x="598" y="63.995" fill="#000" font-family="sans-serif" font-size="14" font-weight="bold" lengthAdjust="spacing" textLength="37">User</text><rect style="stroke:#000;stroke-width:1.5" width="556" height="256" x="551" y="299" fill="#FFF" filter="url(#f1jflmt8y2bdh0)"/><path fill="none" d="M617,299 L617,308.2969 L607,318.2969 L551,318.2969" style="stroke:#000;stroke-width:1.5"/><text x="554" y="312.995" fill="#000" font-family="sans-serif" font-size="14" font-weight="bold" lengthAdjust="spacing" textLength="56">Project</text><rect style="stroke:#000;stroke-width:1.5" width="496" height="694" x="7" y="7" fill="#FFF" filter="url(#f1jflmt8y2bdh0)"/><path fill="none" d="M192,7 L192,16.2969 L182,26.2969 L7,26.2969" style="stroke:#000;stroke-width:1.5"/><text x="10" y="20.995" fill="#000" font-family="sans-serif" font-size="14" font-weight="bold" lengthAdjust="spacing" textLength="175">SecHub infrastructure</text><rect style="stroke:#000;stroke-width:1.5" width="227" height="113" x="39" y="297" fill="#FFF" filter="url(#f1jflmt8y2bdh0)"/><path fill="none" d="M186,297 L186,306.2969 L176,316.2969 L39,316.2969" style="stroke:#000;stroke-width:1.5"/><text x="42" y="310.995" fill="#000" font-family="sans-serif" font-size="14" font-weight="bold" lengthAdjust="spacing" textLength="132">SecHub backend</text><rect style="stroke:#000;stroke-width:1.5" width="432" height="219" x="39" y="450" fill="#FFF" filter="url(#f1jflmt8y2bdh0)"/><path fill="none" d="M198,450 L198,459.2969 L188,469.2969 L39,469.2969" style="stroke:#000;stroke-width:1.5"/><text x="42" y="463.995" fill="#000" font-family="sans-serif" font-size="14" font-weight="bold" lengthAdjust="spacing" textLength="149">3rd party software</text><rect style="stroke:#000;stroke-width:1.5" width="190" height="215" x="67" y="50" fill="#FFF" filter="url(#f1jflmt8y2bdh0)"/><path fill="none" d="M191,50 L191,59.2969 L181,69.2969 L67,69.2969" style="stroke:#000;stroke-width:1.5"/><text x="70" y="63.995" fill="#000" font-family="sans-serif" font-size="14" font-weight="bold" lengthAdjust="spacing" textLength="114">Administration</text><rect style="stroke:#a80036;stroke-width:1.5" width="137" height="46.297" x="613.5" y="203" fill="#FEFECE" filter="url(#f1jflmt8y2bdh0)"/><rect style="stroke:#a80036;stroke-width:1.5" width="15" height="10" x="730.5" y="208" fill="#FEFECE"/><rect style="stroke:#a80036;stroke-width:1.5" width="4" height="2" x="728.5" y="210" fill="#FEFECE"/><rect style="stroke:#a80036;stroke-width:1.5" width="4" height="2" x="728.5" y="214" fill="#FEFECE"/><text x="628.5" y="235.995" fill="#000" font-family="sans-serif" font-size="14" lengthAdjust="spacing" textLength="97">SecHub Client</text><ellipse cx="769" cy="114" fill="#FEFECE" filter="url(#f1jflmt8y2bdh0)" rx="8" ry="8" style="stroke:#a80036;stroke-width:1.5"/><text x="733.5" y="143.995" fill="#000" font-family="sans-serif" font-size="14" lengthAdjust="spacing" textLength="71">Developer</text><ellipse cx="651" cy="114" fill="#FEFECE" filter="url(#f1jflmt8y2bdh0)" rx="8" ry="8" style="stroke:#a80036;stroke-width:1.5"/><text x="619" y="143.995" fill="#000" font-family="sans-serif" font-size="14" lengthAdjust="spacing" textLength="64">BuildTool</text><rect style="stroke:#a80036;stroke-width:1.5" width="145" height="46.297" x="567.5" y="493" fill="#FEFECE" filter="url(#f1jflmt8y2bdh0)"/><rect style="stroke:#a80036;stroke-width:1.5" width="15" height="10" x="692.5" y="498" fill="#FEFECE"/><rect style="stroke:#a80036;stroke-width:1.5" width="4" height="2" x="690.5" y="500" fill="#FEFECE"/><rect style="stroke:#a80036;stroke-width:1.5" width="4" height="2" x="690.5" y="504" fill="#FEFECE"/><text x="582.5" y="525.995" fill="#000" font-family="sans-serif" font-size="14" lengthAdjust="spacing" textLength="105">Target Website</text><rect style="stroke:#a80036;stroke-width:1.5" width="126" height="46.297" x="748" y="493" fill="#FEFECE" filter="url(#f1jflmt8y2bdh0)"/><rect style="stroke:#a80036;stroke-width:1.5" width="15" height="10" x="854" y="498" fill="#FEFECE"/><rect style="stroke:#a80036;stroke-width:1.5" width="4" height="2" x="852" y="500" fill="#FEFECE"/><rect style="stroke:#a80036;stroke-width:1.5" width="4" height="2" x="852" y="504" fill="#FEFECE"/><text x="763" y="525.995" fill="#000" font-family="sans-serif" font-size="14" lengthAdjust="spacing" textLength="86">Target Code</text><rect style="stroke:#a80036;stroke-width:1.5" width="181" height="46.297" x="909.5" y="493" fill="#FEFECE" filter="url(#f1jflmt8y2bdh0)"/><rect style="stroke:#a80036;stroke-width:1.5" width="15" height="10" x="1070.5" y="498" fill="#FEFECE"/><rect style="stroke:#a80036;stroke-width:1.5" width="4" height="2" x="1068.5" y="500" fill="#FEFECE"/><rect style="stroke:#a80036;stroke-width:1.5" width="4" height="2" x="1068.5" y="504" fill="#FEFECE"/><text x="924.5" y="525.995" fill="#000" font-family="sans-serif" font-size="14" lengthAdjust="spacing" textLength="141">Target Infrastructure</text><ellipse cx="725" cy="363" fill="#FEFECE" filter="url(#f1jflmt8y2bdh0)" rx="8" ry="8" style="stroke:#a80036;stroke-width:1.5"/><text x="702.5" y="392.995" fill="#000" font-family="sans-serif" font-size="14" lengthAdjust="spacing" textLength="45">Owner</text><rect style="stroke:#a80036;stroke-width:1.5" width="160" height="46.297" x="82" y="340" fill="#FEFECE" filter="url(#f1jflmt8y2bdh0)"/><rect style="stroke:#a80036;stroke-width:1.5" width="15" height="10" x="222" y="345" fill="#FEFECE"/><rect style="stroke:#a80036;stroke-width:1.5" width="4" height="2" x="220" y="347" fill="#FEFECE"/><rect style="stroke:#a80036;stroke-width:1.5" width="4" height="2" x="220" y="351" fill="#FEFECE"/><text x="97" y="372.995" fill="#000" font-family="sans-serif" font-size="14" lengthAdjust="spacing" textLength="120">SecHub Server(s)</text><rect style="stroke:#a80036;stroke-width:1.5" width="192" height="46.297" x="82" y="493" fill="#FEFECE" filter="url(#f1jflmt8y2bdh0)"/><rect style="stroke:#a80036;stroke-width:1.5" width="15" height="10" x="254" y="498" fill="#FEFECE"/><rect style="stroke:#a80036;stroke-width:1.5" width="4" height="2" x="252" y="500" fill="#FEFECE"/><rect style="stroke:#a80036;stroke-width:1.5" width="4" height="2" x="252" y="504" fill="#FEFECE"/><text x="97" y="525.995" fill="#000" font-family="sans-serif" font-size="14" lengthAdjust="spacing" textLength="152">Infrastructure scanner</text><rect style="stroke:#a80036;stroke-width:1.5" width="137" height="46.297" x="309.5" y="493" fill="#FEFECE" filter="url(#f1jflmt8y2bdh0)"/><rect style="stroke:#a80036;stroke-width:1.5" width="15" height="10" x="426.5" y="498" fill="#FEFECE"/><rect style="stroke:#a80036;stroke-width:1.5" width="4" height="2" x="424.5" y="500" fill="#FEFECE"/><rect style="stroke:#a80036;stroke-width:1.5" width="4" height="2" x="424.5" y="504" fill="#FEFECE"/><text x="324.5" y="525.995" fill="#000" font-family="sans-serif" font-size="14" lengthAdjust="spacing" textLength="97">Code scanner</text><rect style="stroke:#a80036;stroke-width:1.5" width="131" height="46.297" x="112.5" y="599" fill="#FEFECE" filter="url(#f1jflmt8y2bdh0)"/><rect style="stroke:#a80036;stroke-width:1.5" width="15" height="10" x="223.5" y="604" fill="#FEFECE"/><rect style="stroke:#a80036;stroke-width:1.5" width="4" height="2" x="221.5" y="606" fill="#FEFECE"/><rect style="stroke:#a80036;stroke-width:1.5" width="4" height="2" x="221.5" y="610" fill="#FEFECE"/><text x="127.5" y="631.995" fill="#000" font-family="sans-serif" font-size="14" lengthAdjust="spacing" textLength="91">Web scanner</text><rect style="stroke:#a80036;stroke-width:1.5" width="52" height="46.297" x="279" y="599" fill="#FEFECE" filter="url(#f1jflmt8y2bdh0)"/><rect style="stroke:#a80036;stroke-width:1.5" width="15" height="10" x="311" y="604" fill="#FEFECE"/><rect style="stroke:#a80036;stroke-width:1.5" width="4" height="2" x="309" y="606" fill="#FEFECE"/><rect style="stroke:#a80036;stroke-width:1.5" width="4" height="2" x="309" y="610" fill="#FEFECE"/><text x="294" y="631.995" fill="#000" font-family="sans-serif" font-size="14" lengthAdjust="spacing" textLength="12">...</text><rect style="stroke:#a80036;stroke-width:1.5" width="158" height="46.297" x="83" y="203" fill="#FEFECE" filter="url(#f1jflmt8y2bdh0)"/><rect style="stroke:#a80036;stroke-width:1.5" width="15" height="10" x="221" y="208" fill="#FEFECE"/><rect style="stroke:#a80036;stroke-width:1.5" width="4" height="2" x="219" y="210" fill="#FEFECE"/><rect style="stroke:#a80036;stroke-width:1.5" width="4" height="2" x="219" y="214" fill="#FEFECE"/><text x="98" y="235.995" fill="#000" font-family="sans-serif" font-size="14" lengthAdjust="spacing" textLength="118">SecHub Admin UI</text><ellipse cx="162" cy="114" fill="#FEFECE" filter="url(#f1jflmt8y2bdh0)" rx="8" ry="8" style="stroke:#a80036;stroke-width:1.5"/><text x="140.5" y="143.995" fill="#000" font-family="sans-serif" font-size="14" lengthAdjust="spacing" textLength="43">Admin</text><path id="Developer-to-Client" fill="none" d="M762.46,123.27 C749.98,139.04 722.3,174.05 702.9,198.57" style="stroke:#a80036;stroke-width:1"/><polygon fill="#A80036" points="699.63 202.71 708.353 198.138 702.734 198.79 702.082 193.171 699.63 202.71" style="stroke:#a80036;stroke-width:1"/><path id="BuildTool-to-Client" fill="none" d="M653.33,123.27 C657.72,138.85 667.4,173.18 674.29,197.65" style="stroke:#a80036;stroke-width:1"/><polygon fill="#A80036" points="675.72 202.71 677.128 192.962 674.363 197.898 669.428 195.133 675.72 202.71" style="stroke:#a80036;stroke-width:1"/><path id="Owner-website" fill="none" d="M720.43,372.12 C707.74,394.66 671.74,458.61 652.5,492.8" style="stroke:#a80036;stroke-width:1"/><path id="Owner-code" fill="none" d="M729.62,372.12 C742.46,394.66 778.88,458.61 798.36,492.8" style="stroke:#a80036;stroke-width:1"/><path id="Owner-infra" fill="none" d="M734.06,366.91 C759.76,375.35 834.99,401.34 892,434 C921.9,451.13 953.07,475.29 974.19,492.77" style="stroke:#a80036;stroke-width:1"/><path id="Admin-to-AdminUI" fill="none" d="M162,123.27 C162,138.85 162,173.18 162,197.65" style="stroke:#a80036;stroke-width:1"/><polygon fill="#A80036" points="162 202.71 166 193.71 162 197.71 158 193.71 162 202.71" style="stroke:#a80036;stroke-width:1"/><path id="Client-to-Server" fill="none" d="M613.48,244.79 C519.24,269.26 349.67,313.28 247.32,339.85" style="stroke:#a80036;stroke-width:1"/><polygon fill="#A80036" points="242.19 341.18 251.906 342.79 247.03 339.924 249.896 335.047 242.19 341.18" style="stroke:#a80036;stroke-width:1"/><path id="AdminUI-to-Server" fill="none" d="M162,249.29 C162,272.64 162,309.36 162,334.49" style="stroke:#a80036;stroke-width:1"/><polygon fill="#A80036" points="162 339.67 166 330.67 162 334.67 158 330.67 162 339.67" style="stroke:#a80036;stroke-width:1"/><path id="backend-to-products" fill="none" d="M38.9529,379.1636 C38.9132,379.3468 38.8737,379.5313 38.8345,379.7172 C38.7561,380.0889 38.6787,380.466 38.6023,380.8483 C38.4495,381.613 38.3008,382.3985 38.156,383.2037 C37.8665,384.8143 37.5931,386.504 37.3358,388.2641 C35.2772,402.3444 34.2481,420.9263 34.2488,439.5075 C34.2494,458.0888 35.2797,476.6694 37.3398,490.7472 C37.5974,492.5069 37.871,494.1963 38.1607,495.8065 C38.3055,496.6116 38.4544,497.3969 38.6073,498.1614 C38.6837,498.5436 38.7612,498.9206 38.8397,499.2922 C38.8789,499.478 38.9184,499.6625 38.9581,499.8456" style="stroke:#a80036;stroke-width:2"/><polygon fill="#A80036" points="38.958 499.846 40.959 490.202 37.898 494.959 33.141 491.899 38.958 499.846" style="stroke:#a80036;stroke-width:2"/></g></svg>