<svg xmlns="http://www.w3.org/2000/svg" xmlns:xlink="http://www.w3.org/1999/xlink" width="2080" height="1071" contentScriptType="application/ecmascript" contentStyleType="text/css" style="width:2080px;height:1071px;background:#fff" preserveAspectRatio="none" version="1.1" viewBox="0 0 2080 1071" zoomAndPan="magnify"><defs><filter id="fosl57askzru3" width="300%" height="300%" x="-1" y="-1"><feGaussianBlur result="blurOut" stdDeviation="2"/><feColorMatrix in="blurOut" result="blurOut2" type="matrix" values="0 0 0 0 0 0 0 0 0 0 0 0 0 0 0 0 0 0 .4 0"/><feOffset dx="4" dy="4" in="blurOut2" result="blurOut3"/><feBlend in="SourceGraphic" in2="blurOut3" mode="normal"/></filter></defs><g><rect id="ProductExecutor" width="255" height="91.219" x="1332.5" y="56.5" fill="#FEFECE" codeLine="3" filter="url(#fosl57askzru3)" style="stroke:#a80036;stroke-width:1.5"/><ellipse cx="1403.75" cy="72.5" fill="#B4A7E5" rx="11" ry="11" style="stroke:#a80036;stroke-width:1"/><path fill="#000" d="M1399.6719,68.2656 L1399.6719,66.1094 L1407.0625,66.1094 L1407.0625,68.2656 L1404.5938,68.2656 L1404.5938,76.3438 L1407.0625,76.3438 L1407.0625,78.5 L1399.6719,78.5 L1399.6719,76.3438 L1402.1406,76.3438 L1402.1406,68.2656 L1399.6719,68.2656 Z"/><text x="1424.25" y="76.654" fill="#000" font-family="sans-serif" font-size="12" font-style="italic" lengthAdjust="spacing" textLength="104">ProductExecutor</text><line style="stroke:#a80036;stroke-width:1.5" x1="1333.5" x2="1586.5" y1="88.5" y2="88.5"/><ellipse cx="1343.5" cy="99.5" fill="#84BE84" rx="3" ry="3" style="stroke:#038048;stroke-width:1"/><text x="1352.5" y="102.71" fill="#000" font-family="sans-serif" font-size="11" lengthAdjust="spacing" textLength="172">List&lt;ProductResult&gt; execute()</text><ellipse cx="1343.5" cy="112.305" fill="#84BE84" rx="3" ry="3" style="stroke:#038048;stroke-width:1"/><text x="1352.5" y="115.515" fill="#000" font-family="sans-serif" font-size="11" lengthAdjust="spacing" textLength="140">ScanType getScanType()</text><ellipse cx="1343.5" cy="125.109" fill="#84BE84" rx="3" ry="3" style="stroke:#038048;stroke-width:1"/><text x="1352.5" y="128.32" fill="#000" font-family="sans-serif" font-size="11" lengthAdjust="spacing" textLength="87">int getVersion()</text><ellipse cx="1343.5" cy="137.914" fill="#84BE84" rx="3" ry="3" style="stroke:#038048;stroke-width:1"/><text x="1352.5" y="141.125" fill="#000" font-family="sans-serif" font-size="11" lengthAdjust="spacing" textLength="229">boolean isMultipleConfigurationAllowed()</text><rect id="SerecoReportProductExecutor" width="222" height="40" x="1349" y="272" fill="#FEFECE" codeLine="9" filter="url(#fosl57askzru3)" style="stroke:#a80036;stroke-width:1.5"/><ellipse cx="1364" cy="288" fill="#ADD1B2" rx="11" ry="11" style="stroke:#a80036;stroke-width:1"/><path fill="#000" d="M1366.9688,293.6406 Q1366.3906,293.9375 1365.75,294.0781 Q1365.1094,294.2344 1364.4063,294.2344 Q1361.9063,294.2344 1360.5781,292.5938 Q1359.2656,290.9375 1359.2656,287.8125 Q1359.2656,284.6875 1360.5781,283.0313 Q1361.9063,281.375 1364.4063,281.375 Q1365.1094,281.375 1365.75,281.5313 Q1366.4063,281.6875 1366.9688,281.9844 L1366.9688,284.7031 Q1366.3438,284.125 1365.75,283.8594 Q1365.1563,283.5781 1364.5313,283.5781 Q1363.1875,283.5781 1362.5,284.6563 Q1361.8125,285.7188 1361.8125,287.8125 Q1361.8125,289.9063 1362.5,290.9844 Q1363.1875,292.0469 1364.5313,292.0469 Q1365.1563,292.0469 1365.75,291.7813 Q1366.3438,291.5 1366.9688,290.9219 L1366.9688,293.6406 Z"/><text x="1378" y="292.154" fill="#000" font-family="sans-serif" font-size="12" lengthAdjust="spacing" textLength="190">SerecoReportProductExecutor</text><line style="stroke:#a80036;stroke-width:1.5" x1="1350" x2="1570" y1="304" y2="304"/><rect id="ProductExecutorData" width="166" height="40" x="1025" y="409.5" fill="#FEFECE" codeLine="11" filter="url(#fosl57askzru3)" style="stroke:#a80036;stroke-width:1.5"/><ellipse cx="1040" cy="425.5" fill="#ADD1B2" rx="11" ry="11" style="stroke:#a80036;stroke-width:1"/><path fill="#000" d="M1042.9688,431.1406 Q1042.3906,431.4375 1041.75,431.5781 Q1041.1094,431.7344 1040.4063,431.7344 Q1037.9063,431.7344 1036.5781,430.0938 Q1035.2656,428.4375 1035.2656,425.3125 Q1035.2656,422.1875 1036.5781,420.5313 Q1037.9063,418.875 1040.4063,418.875 Q1041.1094,418.875 1041.75,419.0313 Q1042.4063,419.1875 1042.9688,419.4844 L1042.9688,422.2031 Q1042.3438,421.625 1041.75,421.3594 Q1041.1563,421.0781 1040.5313,421.0781 Q1039.1875,421.0781 1038.5,422.1563 Q1037.8125,423.2188 1037.8125,425.3125 Q1037.8125,427.4063 1038.5,428.4844 Q1039.1875,429.5469 1040.5313,429.5469 Q1041.1563,429.5469 1041.75,429.2813 Q1042.3438,429 1042.9688,428.4219 L1042.9688,431.1406 Z"/><text x="1054" y="429.654" fill="#000" font-family="sans-serif" font-size="12" lengthAdjust="spacing" textLength="134">ProductExecutorData</text><line style="stroke:#a80036;stroke-width:1.5" x1="1026" x2="1190" y1="441.5" y2="441.5"/><rect id="NetworkLocationProvider" width="227" height="78.414" x="753.5" y="636.5" fill="#FEFECE" codeLine="76" filter="url(#fosl57askzru3)" style="stroke:#a80036;stroke-width:1.5"/><ellipse cx="786.05" cy="652.5" fill="#B4A7E5" rx="11" ry="11" style="stroke:#a80036;stroke-width:1"/><path fill="#000" d="M781.9719,648.2656 L781.9719,646.1094 L789.3625,646.1094 L789.3625,648.2656 L786.8938,648.2656 L786.8938,656.3438 L789.3625,656.3438 L789.3625,658.5 L781.9719,658.5 L781.9719,656.3438 L784.4406,656.3438 L784.4406,648.2656 L781.9719,648.2656 Z"/><text x="803.95" y="656.654" fill="#000" font-family="sans-serif" font-size="12" font-style="italic" lengthAdjust="spacing" textLength="156">NetworkLocationProvider</text><line style="stroke:#a80036;stroke-width:1.5" x1="754.5" x2="979.5" y1="668.5" y2="668.5"/><text x="759.5" y="682.71" fill="#000" font-family="sans-serif" font-size="11" lengthAdjust="spacing" textLength="115">List&lt;URI&gt; getURIs();</text><text x="759.5" y="708.32" fill="#000" font-family="sans-serif" font-size="11" lengthAdjust="spacing" textLength="215">List&lt;InetAddress&gt; getInetAdresses();</text><rect id="NetworkTargetProductServerDataProvider" width="319" height="283.289" x="377.5" y="534" fill="#FEFECE" codeLine="123" filter="url(#fosl57askzru3)" style="stroke:#a80036;stroke-width:1.5"/><ellipse cx="404.2" cy="550" fill="#B4A7E5" rx="11" ry="11" style="stroke:#a80036;stroke-width:1"/><path fill="#000" d="M400.1219,545.7656 L400.1219,543.6094 L407.5125,543.6094 L407.5125,545.7656 L405.0438,545.7656 L405.0438,553.8438 L407.5125,553.8438 L407.5125,556 L400.1219,556 L400.1219,553.8438 L402.5906,553.8438 L402.5906,545.7656 L400.1219,545.7656 Z"/><text x="420.8" y="554.154" fill="#000" font-family="sans-serif" font-size="12" font-style="italic" lengthAdjust="spacing" textLength="261">NetworkTargetProductServerDataProvider</text><line style="stroke:#a80036;stroke-width:1.5" x1="378.5" x2="695.5" y1="566" y2="566"/><text x="383.5" y="580.21" fill="#000" font-family="sans-serif" font-size="11" lengthAdjust="spacing" textLength="229">String getIdentifierWhenInternetTarget();</text><text x="383.5" y="605.82" fill="#000" font-family="sans-serif" font-size="11" lengthAdjust="spacing" textLength="229">String getIdentifierWhenIntranetTarget();</text><text x="383.5" y="631.429" fill="#000" font-family="sans-serif" font-size="11" lengthAdjust="spacing" textLength="229">String getBaseURLWhenInternetTarget();</text><text x="383.5" y="657.039" fill="#000" font-family="sans-serif" font-size="11" lengthAdjust="spacing" textLength="229">String getBaseURLWhenIntranetTarget();</text><text x="383.5" y="682.648" fill="#000" font-family="sans-serif" font-size="11" lengthAdjust="spacing" textLength="238">String getUsernameWhenInternetTarget();</text><text x="383.5" y="708.257" fill="#000" font-family="sans-serif" font-size="11" lengthAdjust="spacing" textLength="238">String getUsernameWhenIntranetTarget();</text><text x="383.5" y="733.867" fill="#000" font-family="sans-serif" font-size="11" lengthAdjust="spacing" textLength="235">String getPasswordWhenInternetTarget();</text><text x="383.5" y="759.476" fill="#000" font-family="sans-serif" font-size="11" lengthAdjust="spacing" textLength="235">String getPasswordWhenIntranetTarget();</text><text x="383.5" y="785.085" fill="#000" font-family="sans-serif" font-size="11" lengthAdjust="spacing" textLength="307">boolean hasUntrustedCertificateWhenIntranetTarget();</text><text x="383.5" y="810.695" fill="#000" font-family="sans-serif" font-size="11" lengthAdjust="spacing" textLength="307">boolean hasUntrustedCertificateWhenInternetTarget();</text><rect id="NetworkTargetInfo" width="276" height="78.414" x="1388" y="636.5" fill="#FEFECE" codeLine="111" filter="url(#fosl57askzru3)" style="stroke:#a80036;stroke-width:1.5"/><ellipse cx="1464.25" cy="652.5" fill="#ADD1B2" rx="11" ry="11" style="stroke:#a80036;stroke-width:1"/><path fill="#000" d="M1467.2188,658.1406 Q1466.6406,658.4375 1466,658.5781 Q1465.3594,658.7344 1464.6563,658.7344 Q1462.1563,658.7344 1460.8281,657.0938 Q1459.5156,655.4375 1459.5156,652.3125 Q1459.5156,649.1875 1460.8281,647.5313 Q1462.1563,645.875 1464.6563,645.875 Q1465.3594,645.875 1466,646.0313 Q1466.6563,646.1875 1467.2188,646.4844 L1467.2188,649.2031 Q1466.5938,648.625 1466,648.3594 Q1465.4063,648.0781 1464.7813,648.0781 Q1463.4375,648.0781 1462.75,649.1563 Q1462.0625,650.2188 1462.0625,652.3125 Q1462.0625,654.4063 1462.75,655.4844 Q1463.4375,656.5469 1464.7813,656.5469 Q1465.4063,656.5469 1466,656.2813 Q1466.5938,656 1467.2188,655.4219 L1467.2188,658.1406 Z"/><text x="1484.75" y="656.654" fill="#000" font-family="sans-serif" font-size="12" lengthAdjust="spacing" textLength="115">NetworkTargetInfo</text><line style="stroke:#a80036;stroke-width:1.5" x1="1389" x2="1663" y1="668.5" y2="668.5"/><ellipse cx="1399" cy="679.5" fill="#84BE84" rx="3" ry="3" style="stroke:#038048;stroke-width:1"/><text x="1408" y="682.71" fill="#000" font-family="sans-serif" font-size="11" lengthAdjust="spacing" textLength="250">NetworkTargetType getNetworkTargetType()</text><ellipse cx="1399" cy="692.305" fill="#84BE84" rx="3" ry="3" style="stroke:#038048;stroke-width:1"/><text x="1408" y="695.515" fill="#000" font-family="sans-serif" font-size="11" lengthAdjust="spacing" textLength="193">Set&lt;URI&gt; getNetworkTargetURIs()</text><ellipse cx="1399" cy="705.109" fill="#84BE84" rx="3" ry="3" style="stroke:#038048;stroke-width:1"/><text x="1408" y="708.32" fill="#000" font-family="sans-serif" font-size="11" lengthAdjust="spacing" textLength="235">Set&lt;InetAddress&gt; getNetworkTargetIPs()</text><rect id="AbstractProductExecutor" width="454" height="65.609" x="852" y="259" fill="#FEFECE" codeLine="32" filter="url(#fosl57askzru3)" style="stroke:#a80036;stroke-width:1.5"/><ellipse cx="996.75" cy="275" fill="#A9DCDF" rx="11" ry="11" style="stroke:#a80036;stroke-width:1"/><path fill="#000" d="M996.8594,270.3438 L995.7031,275.4219 L998.0313,275.4219 L996.8594,270.3438 Z M995.375,268.1094 L998.3594,268.1094 L1001.7188,280.5 L999.2656,280.5 L998.5,277.4375 L995.2188,277.4375 L994.4688,280.5 L992.0313,280.5 L995.375,268.1094 Z"/><text x="1017.25" y="279.154" fill="#000" font-family="sans-serif" font-size="12" font-style="italic" lengthAdjust="spacing" textLength="156">AbstractProductExecutor</text><line style="stroke:#a80036;stroke-width:1.5" x1="853" x2="1305" y1="291" y2="291"/><polygon fill="#FF4" points="863 297 867 301 863 305 859 301" style="stroke:#b38d22;stroke-width:1"/><text x="872" y="305.21" fill="#000" font-family="sans-serif" font-size="11" lengthAdjust="spacing" textLength="294">abstract void customize(ProductExecutorData data);</text><polygon fill="#FF4" points="863 309.805 867 313.805 863 317.805 859 313.805" style="stroke:#b38d22;stroke-width:1"/><text x="872" y="318.015" fill="#000" font-family="sans-serif" font-size="11" lengthAdjust="spacing" textLength="428">abstract List&lt;ProductResult&gt; executeByAdapter(ProductExecutorData data)</text><rect id="NetworkTargetResolver" width="337" height="65.609" x="1015.5" y="642.5" fill="#FEFECE" codeLine="82" filter="url(#fosl57askzru3)" style="stroke:#a80036;stroke-width:1.5"/><ellipse cx="1107.25" cy="658.5" fill="#B4A7E5" rx="11" ry="11" style="stroke:#a80036;stroke-width:1"/><path fill="#000" d="M1103.1719,654.2656 L1103.1719,652.1094 L1110.5625,652.1094 L1110.5625,654.2656 L1108.0938,654.2656 L1108.0938,662.3438 L1110.5625,662.3438 L1110.5625,664.5 L1103.1719,664.5 L1103.1719,662.3438 L1105.6406,662.3438 L1105.6406,654.2656 L1103.1719,654.2656 Z"/><text x="1127.75" y="662.654" fill="#000" font-family="sans-serif" font-size="12" font-style="italic" lengthAdjust="spacing" textLength="145">NetworkTargetResolver</text><line style="stroke:#a80036;stroke-width:1.5" x1="1016.5" x2="1351.5" y1="674.5" y2="674.5"/><ellipse cx="1026.5" cy="685.5" fill="#84BE84" rx="3" ry="3" style="stroke:#038048;stroke-width:1"/><text x="1035.5" y="688.71" fill="#000" font-family="sans-serif" font-size="11" lengthAdjust="spacing" textLength="215">NetworkTarget resolveTarget(URI uri);</text><ellipse cx="1026.5" cy="698.305" fill="#84BE84" rx="3" ry="3" style="stroke:#038048;stroke-width:1"/><text x="1035.5" y="701.515" fill="#000" font-family="sans-serif" font-size="11" lengthAdjust="spacing" textLength="311">NetworkTarget resolveTarget(InetAddress inetAdress);</text><path fill="#FBFB77" d="M845,6 L845,197.5938 A0,0 0 0 0 845,197.5938 L1070.5,197.5938 L1074.5,258.94 L1078.5,197.5938 L1297,197.5938 A0,0 0 0 0 1297,197.5938 L1297,16 L1287,6 L845,6 A0,0 0 0 0 845,6" filter="url(#fosl57askzru3)" style="stroke:#a80036;stroke-width:1"/><path fill="#FBFB77" d="M1287,6 L1287,16 L1297,16 L1287,6" style="stroke:#a80036;stroke-width:1"/><text x="851" y="23.067" fill="#000" font-family="sans-serif" font-size="13" lengthAdjust="spacing" textLength="431">The base class for mostly all product executors (except for Sereco).</text><text x="851" y="38.2" fill="#000" font-family="sans-serif" font-size="13" lengthAdjust="spacing" textLength="413">The child classes must implmemnt the `customize` method and</text><text x="851" y="53.333" fill="#000" font-family="sans-serif" font-size="13" lengthAdjust="spacing" textLength="353">configure the product executor data object accordingly.</text><text x="851" y="83.598" fill="#000" font-family="sans-serif" font-size="13" lengthAdjust="spacing" textLength="298">It will handle automatically target specific parts</text><text x="851" y="98.731" fill="#000" font-family="sans-serif" font-size="13" lengthAdjust="spacing" textLength="372">for scan types where it is necessary (WebScan, InfraScan).</text><text x="851" y="128.997" fill="#000" font-family="sans-serif" font-size="13" lengthAdjust="spacing" textLength="278">All other scan types (e.g. CodeScan) do not</text><text x="851" y="144.129" fill="#000" font-family="sans-serif" font-size="13" lengthAdjust="spacing" textLength="286">need to setup specific product executor data</text><text x="851" y="159.262" fill="#000" font-family="sans-serif" font-size="13" lengthAdjust="spacing" textLength="197">(like NetworkLocationProvider).</text><rect id="NetworkTarget" width="193" height="78.414" x="1726.5" y="878" fill="#FEFECE" codeLine="87" filter="url(#fosl57askzru3)" style="stroke:#a80036;stroke-width:1.5"/><ellipse cx="1772.75" cy="894" fill="#ADD1B2" rx="11" ry="11" style="stroke:#a80036;stroke-width:1"/><path fill="#000" d="M1775.7188,899.6406 Q1775.1406,899.9375 1774.5,900.0781 Q1773.8594,900.2344 1773.1563,900.2344 Q1770.6563,900.2344 1769.3281,898.5938 Q1768.0156,896.9375 1768.0156,893.8125 Q1768.0156,890.6875 1769.3281,889.0313 Q1770.6563,887.375 1773.1563,887.375 Q1773.8594,887.375 1774.5,887.5313 Q1775.1563,887.6875 1775.7188,887.9844 L1775.7188,890.7031 Q1775.0938,890.125 1774.5,889.8594 Q1773.9063,889.5781 1773.2813,889.5781 Q1771.9375,889.5781 1771.25,890.6563 Q1770.5625,891.7188 1770.5625,893.8125 Q1770.5625,895.9063 1771.25,896.9844 Q1771.9375,898.0469 1773.2813,898.0469 Q1773.9063,898.0469 1774.5,897.7813 Q1775.0938,897.5 1775.7188,896.9219 L1775.7188,899.6406 Z"/><text x="1793.25" y="898.154" fill="#000" font-family="sans-serif" font-size="12" lengthAdjust="spacing" textLength="92">NetworkTarget</text><line style="stroke:#a80036;stroke-width:1.5" x1="1727.5" x2="1918.5" y1="910" y2="910"/><ellipse cx="1737.5" cy="921" fill="#84BE84" rx="3" ry="3" style="stroke:#038048;stroke-width:1"/><text x="1746.5" y="924.21" fill="#000" font-family="sans-serif" font-size="11" lengthAdjust="spacing" textLength="44">getURI()</text><ellipse cx="1737.5" cy="933.805" fill="#84BE84" rx="3" ry="3" style="stroke:#038048;stroke-width:1"/><text x="1746.5" y="937.015" fill="#000" font-family="sans-serif" font-size="11" lengthAdjust="spacing" textLength="87">getInetAdress()</text><ellipse cx="1737.5" cy="946.609" fill="#84BE84" rx="3" ry="3" style="stroke:#038048;stroke-width:1"/><text x="1746.5" y="949.82" fill="#000" font-family="sans-serif" font-size="11" lengthAdjust="spacing" textLength="167">NetworkTargetType getType()</text><path fill="#FBFB77" d="M1699.5,655.5 L1699.5,695.7656 A0,0 0 0 0 1699.5,695.7656 L1819,695.7656 L1823,877.8 L1827,695.7656 L1946.5,695.7656 A0,0 0 0 0 1946.5,695.7656 L1946.5,665.5 L1936.5,655.5 L1699.5,655.5 A0,0 0 0 0 1699.5,655.5" filter="url(#fosl57askzru3)" style="stroke:#a80036;stroke-width:1"/><path fill="#FBFB77" d="M1936.5,655.5 L1936.5,665.5 L1946.5,665.5 L1936.5,655.5" style="stroke:#a80036;stroke-width:1"/><text x="1705.5" y="672.567" fill="#000" font-family="sans-serif" font-size="13" lengthAdjust="spacing" textLength="181">Represents a network target</text><text x="1705.5" y="687.7" fill="#000" font-family="sans-serif" font-size="13" lengthAdjust="spacing" textLength="226">to use for a dedicated network type</text><rect id="NetworkTargetType" width="153" height="40" x="1746.5" y="1017" fill="#FEFECE" codeLine="98" filter="url(#fosl57askzru3)" style="stroke:#a80036;stroke-width:1.5"/><ellipse cx="1761.5" cy="1033" fill="#EB937F" rx="11" ry="11" style="stroke:#a80036;stroke-width:1"/><path fill="#000" d="M1765.6094,1039 L1757.8906,1039 L1757.8906,1026.6094 L1765.6094,1026.6094 L1765.6094,1028.7656 L1760.3438,1028.7656 L1760.3438,1031.4375 L1765.1094,1031.4375 L1765.1094,1033.5938 L1760.3438,1033.5938 L1760.3438,1036.8438 L1765.6094,1036.8438 L1765.6094,1039 Z"/><text x="1775.5" y="1037.154" fill="#000" font-family="sans-serif" font-size="12" lengthAdjust="spacing" textLength="121">NetworkTargetType</text><line style="stroke:#a80036;stroke-width:1.5" x1="1747.5" x2="1898.5" y1="1049" y2="1049"/><rect id="NetworkTargetRegistry" width="174" height="40" x="1693" y="409.5" fill="#FEFECE" codeLine="105" filter="url(#fosl57askzru3)" style="stroke:#a80036;stroke-width:1.5"/><ellipse cx="1708" cy="425.5" fill="#ADD1B2" rx="11" ry="11" style="stroke:#a80036;stroke-width:1"/><path fill="#000" d="M1710.9688,431.1406 Q1710.3906,431.4375 1709.75,431.5781 Q1709.1094,431.7344 1708.4063,431.7344 Q1705.9063,431.7344 1704.5781,430.0938 Q1703.2656,428.4375 1703.2656,425.3125 Q1703.2656,422.1875 1704.5781,420.5313 Q1705.9063,418.875 1708.4063,418.875 Q1709.1094,418.875 1709.75,419.0313 Q1710.4063,419.1875 1710.9688,419.4844 L1710.9688,422.2031 Q1710.3438,421.625 1709.75,421.3594 Q1709.1563,421.0781 1708.5313,421.0781 Q1707.1875,421.0781 1706.5,422.1563 Q1705.8125,423.2188 1705.8125,425.3125 Q1705.8125,427.4063 1706.5,428.4844 Q1707.1875,429.5469 1708.5313,429.5469 Q1709.1563,429.5469 1709.75,429.2813 Q1710.3438,429 1710.9688,428.4219 L1710.9688,431.1406 Z"/><text x="1722" y="429.654" fill="#000" font-family="sans-serif" font-size="12" lengthAdjust="spacing" textLength="142">NetworkTargetRegistry</text><line style="stroke:#a80036;stroke-width:1.5" x1="1694" x2="1866" y1="441.5" y2="441.5"/><rect id="NetworkTargetInfoFactory" width="199" height="52.805" x="790.5" y="403" fill="#FEFECE" codeLine="107" filter="url(#fosl57askzru3)" style="stroke:#a80036;stroke-width:1.5"/><ellipse cx="808.2" cy="419" fill="#ADD1B2" rx="11" ry="11" style="stroke:#a80036;stroke-width:1"/><path fill="#000" d="M811.1688,424.6406 Q810.5906,424.9375 809.95,425.0781 Q809.3094,425.2344 808.6063,425.2344 Q806.1063,425.2344 804.7781,423.5938 Q803.4656,421.9375 803.4656,418.8125 Q803.4656,415.6875 804.7781,414.0313 Q806.1063,412.375 808.6063,412.375 Q809.3094,412.375 809.95,412.5313 Q810.6063,412.6875 811.1688,412.9844 L811.1688,415.7031 Q810.5438,415.125 809.95,414.8594 Q809.3563,414.5781 808.7313,414.5781 Q807.3875,414.5781 806.7,415.6563 Q806.0125,416.7188 806.0125,418.8125 Q806.0125,420.9063 806.7,421.9844 Q807.3875,423.0469 808.7313,423.0469 Q809.3563,423.0469 809.95,422.7813 Q810.5438,422.5 811.1688,421.9219 L811.1688,424.6406 Z"/><text x="822.8" y="423.154" fill="#000" font-family="sans-serif" font-size="12" lengthAdjust="spacing" textLength="161">NetworkTargetInfoFactory</text><line style="stroke:#a80036;stroke-width:1.5" x1="791.5" x2="988.5" y1="435" y2="435"/><ellipse cx="801.5" cy="446" fill="#84BE84" rx="3" ry="3" style="stroke:#038048;stroke-width:1"/><text x="810.5" y="449.21" fill="#000" font-family="sans-serif" font-size="11" lengthAdjust="spacing" textLength="173">NetworkTargetInfo createInfo()</text><path fill="#FBFB77" d="M1297,402 L1297,457.3984 A0,0 0 0 0 1297,457.3984 L1516.67,457.3984 L1520.67,636.13 L1524.67,457.3984 L1587,457.3984 A0,0 0 0 0 1587,457.3984 L1587,412 L1577,402 L1297,402 A0,0 0 0 0 1297,402" filter="url(#fosl57askzru3)" style="stroke:#a80036;stroke-width:1"/><path fill="#FBFB77" d="M1577,402 L1577,412 L1587,412 L1577,402" style="stroke:#a80036;stroke-width:1"/><text x="1303" y="419.067" fill="#000" font-family="sans-serif" font-size="13" lengthAdjust="spacing" textLength="269">Represents (final) information about which</text><text x="1303" y="434.2" fill="#000" font-family="sans-serif" font-size="13" lengthAdjust="spacing" textLength="233">URIs /IPs are for a dedicated network</text><text x="1303" y="449.332" fill="#000" font-family="sans-serif" font-size="13" lengthAdjust="spacing" textLength="178">target type (e.g. INTERNET).</text><rect id="NetworkTargetProductServerDataSuppport" width="304" height="104.023" x="7" y="623.5" fill="#FEFECE" codeLine="124" filter="url(#fosl57askzru3)" style="stroke:#a80036;stroke-width:1.5"/><ellipse cx="23.35" cy="639.5" fill="#ADD1B2" rx="11" ry="11" style="stroke:#a80036;stroke-width:1"/><path fill="#000" d="M26.3188,645.1406 Q25.7406,645.4375 25.1,645.5781 Q24.4594,645.7344 23.7563,645.7344 Q21.2563,645.7344 19.9281,644.0938 Q18.6156,642.4375 18.6156,639.3125 Q18.6156,636.1875 19.9281,634.5313 Q21.2563,632.875 23.7563,632.875 Q24.4594,632.875 25.1,633.0313 Q25.7563,633.1875 26.3188,633.4844 L26.3188,636.2031 Q25.6938,635.625 25.1,635.3594 Q24.5063,635.0781 23.8813,635.0781 Q22.5375,635.0781 21.85,636.1563 Q21.1625,637.2188 21.1625,639.3125 Q21.1625,641.4063 21.85,642.4844 Q22.5375,643.5469 23.8813,643.5469 Q24.5063,643.5469 25.1,643.2813 Q25.6938,643 26.3188,642.4219 L26.3188,645.1406 Z"/><text x="37.65" y="643.654" fill="#000" font-family="sans-serif" font-size="12" lengthAdjust="spacing" textLength="269">NetworkTargetProductServerDataSuppport</text><line style="stroke:#a80036;stroke-width:1.5" x1="8" x2="310" y1="655.5" y2="655.5"/><ellipse cx="18" cy="666.5" fill="#84BE84" rx="3" ry="3" style="stroke:#038048;stroke-width:1"/><text x="27" y="669.71" fill="#000" font-family="sans-serif" font-size="11" lengthAdjust="spacing" textLength="262">String getIdentifier(NetworkTargetType target)</text><ellipse cx="18" cy="679.305" fill="#84BE84" rx="3" ry="3" style="stroke:#038048;stroke-width:1"/><text x="27" y="682.515" fill="#000" font-family="sans-serif" font-size="11" lengthAdjust="spacing" textLength="278">boolean isAbletoScan(NetworkTargetType target)</text><ellipse cx="18" cy="692.109" fill="#84BE84" rx="3" ry="3" style="stroke:#038048;stroke-width:1"/><text x="27" y="695.32" fill="#000" font-family="sans-serif" font-size="11" lengthAdjust="spacing" textLength="252">String getBaseURL(NetworkTargetType type)</text><ellipse cx="18" cy="704.914" fill="#84BE84" rx="3" ry="3" style="stroke:#038048;stroke-width:1"/><text x="27" y="708.125" fill="#000" font-family="sans-serif" font-size="11" lengthAdjust="spacing" textLength="239">String getUserId(NetworkTargetType type)</text><ellipse cx="18" cy="717.719" fill="#84BE84" rx="3" ry="3" style="stroke:#038048;stroke-width:1"/><text x="27" y="720.929" fill="#000" font-family="sans-serif" font-size="11" lengthAdjust="spacing" textLength="268">String getPassword(NetworkTargetType target)</text><path fill="#FBFB77" d="M563,409.5 L563,449.7656 L755,449.7656 L755,419.5 L745,409.5 L563,409.5" filter="url(#fosl57askzru3)" style="stroke:#a80036;stroke-width:1"/><path fill="#FBFB77" d="M745,409.5 L745,419.5 L755,419.5 L745,409.5" style="stroke:#a80036;stroke-width:1"/><text x="569" y="426.567" fill="#000" font-family="sans-serif" font-size="13" lengthAdjust="spacing" textLength="171">Data normally comes from</text><text x="569" y="441.7" fill="#000" font-family="sans-serif" font-size="13" lengthAdjust="spacing" textLength="133">sechub configuration</text><path fill="#FBFB77" d="M316,409.5 L316,449.7656 A0,0 0 0 0 316,449.7656 L448.75,449.7656 L452.75,533.91 L456.75,449.7656 L528,449.7656 A0,0 0 0 0 528,449.7656 L528,419.5 L518,409.5 L316,409.5 A0,0 0 0 0 316,409.5" filter="url(#fosl57askzru3)" style="stroke:#a80036;stroke-width:1"/><path fill="#FBFB77" d="M518,409.5 L518,419.5 L528,419.5 L518,409.5" style="stroke:#a80036;stroke-width:1"/><text x="322" y="426.567" fill="#000" font-family="sans-serif" font-size="13" lengthAdjust="spacing" textLength="191">Data normally comes from an</text><text x="322" y="441.7" fill="#000" font-family="sans-serif" font-size="13" lengthAdjust="spacing" textLength="77">install setup</text><path id="ProductExecutor-backto-SerecoReportProductExecutor" fill="none" d="M1460,167.51 C1460,167.51 1460,271.81 1460,271.81" style="stroke:#a80036;stroke-width:1;stroke-dasharray:7,7"/><polygon fill="none" points="1453 167.51 1460 147.51 1467 167.51 1453 167.51" style="stroke:#a80036;stroke-width:1"/><path id="ProductExecutorData-to-NetworkLocationProvider" fill="none" d="M1024.87,437 C1011.8,437 1002.5,437 1002.5,437 C1002.5,437 1002.5,676 1002.5,676 C1002.5,676 985.73,676 985.73,676" codeLine="27" style="stroke:#a80036;stroke-width:1;stroke-dasharray:7,7"/><polygon fill="#A80036" points="980.73 676 989.73 680 985.73 676 989.73 672 980.73 676" style="stroke:#a80036;stroke-width:1"/><path id="ProductExecutorData-to-NetworkTargetProductServerDataProvider" fill="none" d="M1080.33,449.64 C1080.33,491.91 1080.33,586 1080.33,586 C1080.33,586 701.71,586 701.71,586" codeLine="28" style="stroke:#a80036;stroke-width:1;stroke-dasharray:7,7"/><polygon fill="#A80036" points="696.71 586 705.71 590 701.71 586 705.71 582 696.71 586" style="stroke:#a80036;stroke-width:1"/><path id="ProductExecutorData-to-NetworkTargetInfo" fill="none" d="M1135.67,449.76 C1135.67,475.05 1135.67,515 1135.67,515 C1135.67,515 1454.33,515 1454.33,515 C1454.33,515 1454.33,631.24 1454.33,631.24" codeLine="29" style="stroke:#a80036;stroke-width:1;stroke-dasharray:7,7"/><polygon fill="#A80036" points="1454.33 636.24 1458.33 627.24 1454.33 631.24 1450.33 627.24 1454.33 636.24" style="stroke:#a80036;stroke-width:1"/><path id="AbstractProductExecutor-to-ProductExecutorData" fill="none" d="M1108,325.28 C1108,325.28 1108,404.3 1108,404.3" codeLine="37" style="stroke:#a80036;stroke-width:1"/><polygon fill="#A80036" points="1108 409.3 1112 400.3 1108 404.3 1104 400.3 1108 409.3" style="stroke:#a80036;stroke-width:1"/><text x="1080" y="368.067" fill="#000" font-family="sans-serif" font-size="13" lengthAdjust="spacing" textLength="140">creates + customizes</text><path id="AbstractProductExecutor-to-NetworkTargetResolver" fill="none" d="M1244,325.03 C1244,325.03 1244,637.41 1244,637.41" codeLine="38" style="stroke:#a80036;stroke-width:1"/><polygon fill="#A80036" points="1244 642.41 1248 633.41 1244 637.41 1240 633.41 1244 642.41" style="stroke:#a80036;stroke-width:1"/><path id="NetworkTargetInfoFactory-to-NetworkLocationProvider" fill="none" d="M917.17,456.29 C917.17,456.29 917.17,631.21 917.17,631.21" codeLine="133" style="stroke:#a80036;stroke-width:1"/><polygon fill="#A80036" points="917.17 636.21 921.17 627.21 917.17 631.21 913.17 627.21 917.17 636.21" style="stroke:#a80036;stroke-width:1"/><text x="879" y="500.067" fill="#000" font-family="sans-serif" font-size="13" lengthAdjust="spacing" textLength="30">uses</text><path id="NetworkTargetInfoFactory-to-NetworkTargetProductServerDataSuppport" fill="none" d="M853.83,456.16 C853.83,474.67 853.83,496 853.83,496 C853.83,496 209.67,496 209.67,496 C209.67,496 209.67,618.1 209.67,618.1" codeLine="134" style="stroke:#a80036;stroke-width:1"/><polygon fill="#A80036" points="209.67 623.1 213.67 614.1 209.67 618.1 205.67 614.1 209.67 623.1" style="stroke:#a80036;stroke-width:1"/><text x="500" y="500.067" fill="#000" font-family="sans-serif" font-size="13" lengthAdjust="spacing" textLength="116">uses data support</text><path id="ProductExecutor-backto-AbstractProductExecutor" fill="none" d="M1340.75,167.68 C1340.75,167.68 1340.75,266 1340.75,266 C1340.75,266 1327.2,266 1306.26,266" codeLine="136" style="stroke:#a80036;stroke-width:1"/><polygon fill="none" points="1333.75 167.68 1340.75 147.68 1347.75 167.68 1333.75 167.68" style="stroke:#a80036;stroke-width:1"/><path id="AbstractProductExecutor-to-NetworkTargetProductServerDataSuppport" fill="none" d="M851.73,292 C564.85,292 108.33,292 108.33,292 C108.33,292 108.33,618.38 108.33,618.38" codeLine="137" style="stroke:#a80036;stroke-width:1"/><polygon fill="#A80036" points="108.33 623.38 112.33 614.38 108.33 618.38 104.33 614.38 108.33 623.38" style="stroke:#a80036;stroke-width:1"/><text x="115" y="434.067" fill="#000" font-family="sans-serif" font-size="13" lengthAdjust="spacing" textLength="165">create+use (if necessary)</text><path id="AbstractProductExecutor-to-NetworkTargetInfoFactory" fill="none" d="M920.75,325.28 C920.75,325.28 920.75,397.96 920.75,397.96" codeLine="138" style="stroke:#a80036;stroke-width:1"/><polygon fill="#A80036" points="920.75 402.96 924.75 393.96 920.75 397.96 916.75 393.96 920.75 402.96" style="stroke:#a80036;stroke-width:1"/><text x="873" y="368.067" fill="#000" font-family="sans-serif" font-size="13" lengthAdjust="spacing" textLength="165">create+use (if necessary)</text><path id="AbstractProductExecutor-to-NetworkTargetInfo" fill="none" d="M1306.24,319 C1451.58,319 1613,319 1613,319 C1613,319 1613,631.33 1613,631.33" codeLine="139" style="stroke:#a80036;stroke-width:1;stroke-dasharray:7,7"/><polygon fill="#A80036" points="1613 636.33 1617 627.33 1613 631.33 1609 627.33 1613 636.33" style="stroke:#a80036;stroke-width:1"/><path id="NetworkTargetInfoFactory-to-NetworkTargetRegistry" fill="none" d="M985,456.03 C985,466.91 985,477 985,477 C985,477 1783.25,477 1783.25,477 C1783.25,477 1783.25,454.64 1783.25,454.64" codeLine="141" style="stroke:#a80036;stroke-width:1"/><polygon fill="#A80036" points="1783.25 449.64 1779.25 458.64 1783.25 454.64 1787.25 458.64 1783.25 449.64" style="stroke:#a80036;stroke-width:1"/><text x="1361.5" y="368.067" fill="#000" font-family="sans-serif" font-size="13" lengthAdjust="spacing" textLength="161">internally created + used</text><path id="NetworkTargetProductServerDataSuppport-to-NetworkTargetProductServerDataProvider" fill="none" d="M311.11,676 C311.11,676 372.48,676 372.48,676" codeLine="142" style="stroke:#a80036;stroke-width:1"/><polygon fill="#A80036" points="377.48 676 368.48 672 372.48 676 368.48 680 377.48 676" style="stroke:#a80036;stroke-width:1"/><text x="342.8" y="672.067" fill="#000" font-family="sans-serif" font-size="13" lengthAdjust="spacing" textLength="30">uses</text><path id="NetworkTargetInfoFactory-backto-NetworkTargetResolver" fill="none" d="M1002.71,423 C1002.71,423 1020.25,423 1020.25,423 C1020.25,423 1020.25,574.05 1020.25,642.49" codeLine="143" style="stroke:#a80036;stroke-width:1"/><polygon fill="#FFF" points="989.71 423 995.71 427 1001.71 423 995.71 419 989.71 423" style="stroke:#a80036;stroke-width:1"/><text x="1023" y="500.067" fill="#000" font-family="sans-serif" font-size="13" lengthAdjust="spacing" textLength="30">uses</text><path id="NetworkTargetRegistry-backto-NetworkTarget" fill="none" d="M1679.91,423 C1679.91,423 1678.5,423 1678.5,423 C1678.5,423 1678.5,904 1678.5,904 C1678.5,904 1699.89,904 1726.22,904" codeLine="145" style="stroke:#a80036;stroke-width:1"/><polygon fill="#A80036" points="1692.61 423 1686.61 419 1680.61 423 1686.61 427 1692.61 423" style="stroke:#a80036;stroke-width:1"/><text x="2018" y="680.067" fill="#000" font-family="sans-serif" font-size="13" lengthAdjust="spacing" textLength="54">contains</text><text x="1677.042" y="418.913" fill="#000" font-family="sans-serif" font-size="13" lengthAdjust="spacing" textLength="8">1</text><text x="1710.504" y="899.487" fill="#000" font-family="sans-serif" font-size="13" lengthAdjust="spacing" textLength="8">n</text><path id="NetworkTargetRegistry-to-NetworkTargetInfo" fill="none" d="M1692.8,437 C1663.68,437 1638.5,437 1638.5,437 C1638.5,437 1638.5,631.38 1638.5,631.38" codeLine="146" style="stroke:#a80036;stroke-width:1"/><polygon fill="#A80036" points="1638.5 636.38 1642.5 627.38 1638.5 631.38 1634.5 627.38 1638.5 636.38" style="stroke:#a80036;stroke-width:1"/><text x="1740" y="500.067" fill="#000" font-family="sans-serif" font-size="13" lengthAdjust="spacing" textLength="54">provides</text><path id="NetworkTargetResolver-to-NetworkTarget" fill="none" d="M1184,708.51 C1184,777.37 1184,930 1184,930 C1184,930 1721.3,930 1721.3,930" codeLine="147" style="stroke:#a80036;stroke-width:1"/><polygon fill="#A80036" points="1726.3 930 1717.3 926 1721.3 930 1717.3 934 1726.3 930" style="stroke:#a80036;stroke-width:1"/><path id="NetworkTarget-backto-NetworkTargetType" fill="none" d="M1823,969.29 C1823,969.29 1823,1016.83 1823,1016.83" codeLine="148" style="stroke:#a80036;stroke-width:1"/><polygon fill="#A80036" points="1823 956.29 1819 962.29 1823 968.29 1827 962.29 1823 956.29" style="stroke:#a80036;stroke-width:1"/><path id="GMN944-NetworkLocationProvider" fill="none" d="M755.47,430 C765.86,430 772.75,430 772.75,430 C772.75,430 772.75,567.02 772.75,636.33" style="stroke:#a80036;stroke-width:1;stroke-dasharray:7,7"/></g></svg>