<svg xmlns="http://www.w3.org/2000/svg" xmlns:xlink="http://www.w3.org/1999/xlink" width="946" height="476" contentScriptType="application/ecmascript" contentStyleType="text/css" style="width:946px;height:476px;background:#fff" preserveAspectRatio="none" version="1.1" viewBox="0 0 946 476" zoomAndPan="magnify"><defs><filter id="f16ypxme5br60o" width="300%" height="300%" x="-1" y="-1"><feGaussianBlur result="blurOut" stdDeviation="2"/><feColorMatrix in="blurOut" result="blurOut2" type="matrix" values="0 0 0 0 0 0 0 0 0 0 0 0 0 0 0 0 0 0 .4 0"/><feOffset dx="4" dy="4" in="blurOut2" result="blurOut3"/><feBlend in="SourceGraphic" in2="blurOut3" mode="normal"/></filter></defs><g><polygon fill="#FFF" points="16 6 157 6 164 28.297 167 28.297 167 81 16 81 16 6" filter="url(#f16ypxme5br60o)" style="stroke:#000;stroke-width:1.5"/><line style="stroke:#000;stroke-width:1.5" x1="16" x2="164" y1="28.297" y2="28.297"/><text x="20" y="20.995" fill="#000" font-family="sans-serif" font-size="14" font-weight="bold" lengthAdjust="spacing" textLength="135">Domain schedule</text><polygon fill="#FFF" points="787 291 918 291 925 313.297 929 313.297 929 469 787 469 787 291" filter="url(#f16ypxme5br60o)" style="stroke:#000;stroke-width:1.5"/><line style="stroke:#000;stroke-width:1.5" x1="787" x2="925" y1="313.297" y2="313.297"/><text x="791" y="305.995" fill="#000" font-family="sans-serif" font-size="14" font-weight="bold" lengthAdjust="spacing" textLength="125">Domain product</text><polygon fill="#FFF" points="191 6 297 6 304 28.297 548 28.297 548 366 191 366 191 6" filter="url(#f16ypxme5br60o)" style="stroke:#000;stroke-width:1.5"/><line style="stroke:#000;stroke-width:1.5" x1="191" x2="304" y1="28.297" y2="28.297"/><text x="195" y="20.995" fill="#000" font-family="sans-serif" font-size="14" font-weight="bold" lengthAdjust="spacing" textLength="100">Domain scan</text><polygon fill="#FFF" points="572 291 753 291 760 313.297 763 313.297 763 366 572 366 572 291" filter="url(#f16ypxme5br60o)" style="stroke:#000;stroke-width:1.5"/><line style="stroke:#000;stroke-width:1.5" x1="572" x2="760" y1="313.297" y2="313.297"/><text x="576" y="305.995" fill="#000" font-family="sans-serif" font-size="14" font-weight="bold" lengthAdjust="spacing" textLength="175">Domain administration</text><rect id="scheduler" width="117" height="23.969" x="33.5" y="41" fill="#FEFECE" codeLine="8" filter="url(#f16ypxme5br60o)" style="stroke:#a80036;stroke-width:1.5"/><text x="36.5" y="57.139" fill="#000" font-family="sans-serif" font-size="12" lengthAdjust="spacing" textLength="111">SecHub batch job</text><rect id="product" width="82" height="23.969" x="817" y="429" fill="#FEFECE" codeLine="14" filter="url(#f16ypxme5br60o)" style="stroke:#a80036;stroke-width:1.5"/><text x="820" y="445.139" fill="#000" font-family="sans-serif" font-size="12" lengthAdjust="spacing" textLength="76">Product XYZ</text><rect id="adapter" width="109" height="23.969" x="803.5" y="326" fill="#FEFECE" codeLine="17" filter="url(#f16ypxme5br60o)" style="stroke:#a80036;stroke-width:1.5"/><text x="806.5" y="342.139" fill="#000" font-family="sans-serif" font-size="12" lengthAdjust="spacing" textLength="103">Product adapter</text><rect id="execService" width="205" height="23.969" x="327.5" y="41" fill="#FEFECE" codeLine="23" filter="url(#f16ypxme5br60o)" style="stroke:#a80036;stroke-width:1.5"/><text x="330.5" y="57.139" fill="#000" font-family="sans-serif" font-size="12" lengthAdjust="spacing" textLength="199">Product execution store service</text><rect id="profile" width="163" height="23.969" x="213.5" y="189" fill="#FEFECE" codeLine="26" filter="url(#f16ypxme5br60o)" style="stroke:#a80036;stroke-width:1.5"/><text x="216.5" y="205.139" fill="#000" font-family="sans-serif" font-size="12" lengthAdjust="spacing" textLength="157">Product execution profile</text><rect id="config" width="160" height="23.969" x="215" y="326" fill="#FEFECE" codeLine="35" filter="url(#f16ypxme5br60o)" style="stroke:#a80036;stroke-width:1.5"/><text x="218" y="342.139" fill="#000" font-family="sans-serif" font-size="12" lengthAdjust="spacing" textLength="150">Product executor config</text><rect id="scanService" width="85" height="23.969" x="207.5" y="41" fill="#FEFECE" codeLine="41" filter="url(#f16ypxme5br60o)" style="stroke:#a80036;stroke-width:1.5"/><text x="210.5" y="57.139" fill="#000" font-family="sans-serif" font-size="12" lengthAdjust="spacing" textLength="79">Scan service</text><rect id="executor" width="114" height="23.969" x="415" y="189" fill="#FEFECE" codeLine="45" filter="url(#f16ypxme5br60o)" style="stroke:#a80036;stroke-width:1.5"/><text x="418" y="205.139" fill="#000" font-family="sans-serif" font-size="12" lengthAdjust="spacing" textLength="108">Product executor</text><rect id="project" width="102" height="23.969" x="588" y="326" fill="#FEFECE" codeLine="54" filter="url(#f16ypxme5br60o)" style="stroke:#a80036;stroke-width:1.5"/><text x="591" y="342.139" fill="#000" font-family="sans-serif" font-size="12" lengthAdjust="spacing" textLength="96">SecHub project</text><path id="profile-to-config" fill="none" d="M295,213.05 C295,236.78 295,292.73 295,320.62" codeLine="63" style="stroke:#a80036;stroke-width:1"/><polygon fill="#A80036" points="295 325.8 299 316.8 295 320.8 291 316.8 295 325.8" style="stroke:#a80036;stroke-width:1"/><text x="320.5" y="256.067" fill="#000" font-family="sans-serif" font-size="13" lengthAdjust="spacing" textLength="73">Profiles can</text><text x="300" y="271.2" fill="#000" font-family="sans-serif" font-size="13" lengthAdjust="spacing" textLength="118">reuse same config</text><text x="285.35" y="233.215" fill="#000" font-family="sans-serif" font-size="13" lengthAdjust="spacing" textLength="8">1</text><text x="285.35" y="314.774" fill="#000" font-family="sans-serif" font-size="13" lengthAdjust="spacing" textLength="8">n</text><path id="profile-to-project" fill="none" d="M342.41,213.07 C368.14,219.97 400.09,230.02 427,243 C449.76,253.98 450.28,266.27 474,275 C505.04,286.43 516.62,272.54 548,283 C575.15,292.05 602.96,310.08 620.57,322.82" codeLine="64" style="stroke:#a80036;stroke-width:1;stroke-dasharray:7,7"/><polygon fill="#A80036" points="624.82 325.93 619.917 317.388 620.784 322.978 615.194 323.845 624.82 325.93" style="stroke:#a80036;stroke-width:1"/><text x="475" y="263.567" fill="#000" font-family="sans-serif" font-size="13" lengthAdjust="spacing" textLength="332">Not direct related to project, only project id is known</text><text x="352.317" y="233.243" fill="#000" font-family="sans-serif" font-size="13" lengthAdjust="spacing" textLength="8">1</text><text x="609.321" y="314.958" fill="#000" font-family="sans-serif" font-size="13" lengthAdjust="spacing" textLength="8">n</text><path id="execService-to-profile" fill="none" d="M419.41,65.46 C395.14,91.7 335.53,156.17 308.6,185.29" codeLine="65" style="stroke:#a80036;stroke-width:1"/><polygon fill="#A80036" points="305.17 189 314.212 185.095 308.56 185.324 308.331 179.672 305.17 189" style="stroke:#a80036;stroke-width:1"/><text x="392" y="132.567" fill="#000" font-family="sans-serif" font-size="13" lengthAdjust="spacing" textLength="39">knows</text><path id="execService-to-executor" fill="none" d="M433.3,65.46 C440.72,91.28 458.79,154.07 467.35,183.84" codeLine="66" style="stroke:#a80036;stroke-width:1"/><polygon fill="#A80036" points="468.83 189 470.177 179.244 467.443 184.196 462.491 181.463 468.83 189" style="stroke:#a80036;stroke-width:1"/><text x="480" y="110.067" fill="#000" font-family="sans-serif" font-size="13" lengthAdjust="spacing" textLength="120">uses executor only</text><text x="461" y="125.2" fill="#000" font-family="sans-serif" font-size="13" lengthAdjust="spacing" textLength="162">when configured in profile</text><text x="476.5" y="140.333" fill="#000" font-family="sans-serif" font-size="13" lengthAdjust="spacing" textLength="127">and profile matches</text><text x="484" y="155.465" fill="#000" font-family="sans-serif" font-size="13" lengthAdjust="spacing" textLength="116">for project to scan</text><path id="executor-to-adapter" fill="none" d="M529.05,202.43 C613.81,204.12 767.78,211.57 812,243 C838.08,261.53 850.04,299.04 854.97,320.65" codeLine="67" style="stroke:#a80036;stroke-width:1"/><polygon fill="#A80036" points="856.08 325.79 858.086 316.148 855.023 320.903 850.267 317.839 856.08 325.79" style="stroke:#a80036;stroke-width:1"/><text x="838" y="263.567" fill="#000" font-family="sans-serif" font-size="13" lengthAdjust="spacing" textLength="30">uses</text><path id="adapter-to-product" fill="none" d="M858,350.19 C858,368.02 858,402.93 858,423.58" codeLine="68" style="stroke:#a80036;stroke-width:1"/><polygon fill="#A80036" points="858 428.76 862 419.76 858 423.76 854 419.76 858 428.76" style="stroke:#a80036;stroke-width:1"/><text x="859" y="395.067" fill="#000" font-family="sans-serif" font-size="13" lengthAdjust="spacing" textLength="28">calls</text><path id="scheduler-to-scanService" fill="none" d="M150.63,53 C167.75,53 184.87,53 201.99,53" codeLine="69" style="stroke:#a80036;stroke-width:1;stroke-dasharray:7,7"/><polygon fill="#A80036" points="207.3 53 198.3 49 202.3 53 198.3 57 207.3 53" style="stroke:#a80036;stroke-width:1"/><path id="scanService-to-execService" fill="none" d="M292.54,53 C302.45,53 312.35,53 322.26,53" codeLine="70" style="stroke:#a80036;stroke-width:1"/><polygon fill="#A80036" points="327.44 53 318.44 49 322.44 53 318.44 57 327.44 53" style="stroke:#a80036;stroke-width:1"/></g></svg>