<svg xmlns="http://www.w3.org/2000/svg" xmlns:xlink="http://www.w3.org/1999/xlink" width="921" height="561" contentScriptType="application/ecmascript" contentStyleType="text/css" style="width:921px;height:561px" preserveAspectRatio="none" version="1.1" viewBox="0 0 921 561" zoomAndPan="magnify"><defs><filter id="f1jflmt8y2bdh0" width="300%" height="300%" x="-1" y="-1"><feGaussianBlur result="blurOut" stdDeviation="2"/><feColorMatrix in="blurOut" result="blurOut2" type="matrix" values="0 0 0 0 0 0 0 0 0 0 0 0 0 0 0 0 0 0 .4 0"/><feOffset dx="4" dy="4" in="blurOut2" result="blurOut3"/><feBlend in="SourceGraphic" in2="blurOut3" mode="normal"/></filter></defs><g><rect style="stroke:#000;stroke-width:1.5" width="496" height="438" x="414" y="16" fill="#FFF" filter="url(#f1jflmt8y2bdh0)"/><path fill="none" d="M489,17 L489,25.2969 L479,35.2969 L414,35.2969" style="stroke:#000;stroke-width:1.5"/><text x="417" y="29.995" fill="#000" font-family="sans-serif" font-size="14" font-weight="bold" lengthAdjust="spacingAndGlyphs" textLength="65">external</text><rect style="stroke:#000;stroke-width:1.5" width="217" height="189" x="461" y="43" fill="#FFF" filter="url(#f1jflmt8y2bdh0)"/><path fill="none" d="M508,44 L508,52.2969 L498,62.2969 L461,62.2969" style="stroke:#000;stroke-width:1.5"/><text x="464" y="56.995" fill="#000" font-family="sans-serif" font-size="14" font-weight="bold" lengthAdjust="spacingAndGlyphs" textLength="37">User</text><rect style="stroke:#000;stroke-width:1.5" width="480" height="189" x="422" y="257" fill="#FFF" filter="url(#f1jflmt8y2bdh0)"/><path fill="none" d="M488,258 L488,266.2969 L478,276.2969 L422,276.2969" style="stroke:#000;stroke-width:1.5"/><text x="425" y="270.995" fill="#000" font-family="sans-serif" font-size="14" font-weight="bold" lengthAdjust="spacingAndGlyphs" textLength="56">Project</text><rect style="stroke:#000;stroke-width:1.5" width="392" height="534" x="14" y="16" fill="#FFF" filter="url(#f1jflmt8y2bdh0)"/><path fill="none" d="M199,17 L199,25.2969 L189,35.2969 L14,35.2969" style="stroke:#000;stroke-width:1.5"/><text x="17" y="29.995" fill="#000" font-family="sans-serif" font-size="14" font-weight="bold" lengthAdjust="spacingAndGlyphs" textLength="175">SecHub infrastructure</text><rect style="stroke:#000;stroke-width:1.5" width="191" height="71" x="207" y="268" fill="#FFF" filter="url(#f1jflmt8y2bdh0)"/><path fill="none" d="M354,269 L354,277.2969 L344,287.2969 L207,287.2969" style="stroke:#000;stroke-width:1.5"/><text x="210" y="281.995" fill="#000" font-family="sans-serif" font-size="14" font-weight="bold" lengthAdjust="spacingAndGlyphs" textLength="132">SecHub backend</text><rect style="stroke:#000;stroke-width:1.5" width="376" height="167" x="22" y="375" fill="#FFF" filter="url(#f1jflmt8y2bdh0)"/><path fill="none" d="M181,376 L181,384.2969 L171,394.2969 L22,394.2969" style="stroke:#000;stroke-width:1.5"/><text x="25" y="388.995" fill="#000" font-family="sans-serif" font-size="14" font-weight="bold" lengthAdjust="spacingAndGlyphs" textLength="149">3rd party software</text><rect style="stroke:#000;stroke-width:1.5" width="154" height="189" x="208" y="43" fill="#FFF" filter="url(#f1jflmt8y2bdh0)"/><path fill="none" d="M332,44 L332,52.2969 L322,62.2969 L208,62.2969" style="stroke:#000;stroke-width:1.5"/><text x="211" y="56.995" fill="#000" font-family="sans-serif" font-size="14" font-weight="bold" lengthAdjust="spacingAndGlyphs" textLength="114">Administration</text><rect style="stroke:#a80036;stroke-width:1.5" width="117" height="36.297" x="471.5" y="188" fill="#FEFECE" filter="url(#f1jflmt8y2bdh0)"/><rect style="stroke:#a80036;stroke-width:1.5" width="10" height="5" x="466.5" y="193" fill="#FEFECE"/><rect style="stroke:#a80036;stroke-width:1.5" width="10" height="5" x="466.5" y="214.297" fill="#FEFECE"/><text x="481.5" y="210.995" fill="#000" font-family="sans-serif" font-size="14" lengthAdjust="spacingAndGlyphs" textLength="97">SecHub Client</text><ellipse cx="627" cy="99" fill="#FEFECE" filter="url(#f1jflmt8y2bdh0)" rx="8" ry="8" style="stroke:#a80036;stroke-width:2"/><text x="591.5" y="128.995" fill="#000" font-family="sans-serif" font-size="14" lengthAdjust="spacingAndGlyphs" textLength="71">Developer</text><ellipse cx="509" cy="99" fill="#FEFECE" filter="url(#f1jflmt8y2bdh0)" rx="8" ry="8" style="stroke:#a80036;stroke-width:2"/><text x="477" y="128.995" fill="#000" font-family="sans-serif" font-size="14" lengthAdjust="spacingAndGlyphs" textLength="64">BuildTool</text><rect style="stroke:#a80036;stroke-width:1.5" width="125" height="36.297" x="430.5" y="402" fill="#FEFECE" filter="url(#f1jflmt8y2bdh0)"/><rect style="stroke:#a80036;stroke-width:1.5" width="10" height="5" x="425.5" y="407" fill="#FEFECE"/><rect style="stroke:#a80036;stroke-width:1.5" width="10" height="5" x="425.5" y="428.297" fill="#FEFECE"/><text x="440.5" y="424.995" fill="#000" font-family="sans-serif" font-size="14" lengthAdjust="spacingAndGlyphs" textLength="105">Target Website</text><rect style="stroke:#a80036;stroke-width:1.5" width="106" height="36.297" x="591" y="402" fill="#FEFECE" filter="url(#f1jflmt8y2bdh0)"/><rect style="stroke:#a80036;stroke-width:1.5" width="10" height="5" x="586" y="407" fill="#FEFECE"/><rect style="stroke:#a80036;stroke-width:1.5" width="10" height="5" x="586" y="428.297" fill="#FEFECE"/><text x="601" y="424.995" fill="#000" font-family="sans-serif" font-size="14" lengthAdjust="spacingAndGlyphs" textLength="86">Target Code</text><rect style="stroke:#a80036;stroke-width:1.5" width="161" height="36.297" x="732.5" y="402" fill="#FEFECE" filter="url(#f1jflmt8y2bdh0)"/><rect style="stroke:#a80036;stroke-width:1.5" width="10" height="5" x="727.5" y="407" fill="#FEFECE"/><rect style="stroke:#a80036;stroke-width:1.5" width="10" height="5" x="727.5" y="428.297" fill="#FEFECE"/><text x="742.5" y="424.995" fill="#000" font-family="sans-serif" font-size="14" lengthAdjust="spacingAndGlyphs" textLength="141">Target Infrastructure</text><ellipse cx="568" cy="313" fill="#FEFECE" filter="url(#f1jflmt8y2bdh0)" rx="8" ry="8" style="stroke:#a80036;stroke-width:2"/><text x="545.5" y="342.995" fill="#000" font-family="sans-serif" font-size="14" lengthAdjust="spacingAndGlyphs" textLength="45">Owner</text><rect style="stroke:#a80036;stroke-width:1.5" width="140" height="36.297" x="215" y="295" fill="#FEFECE" filter="url(#f1jflmt8y2bdh0)"/><rect style="stroke:#a80036;stroke-width:1.5" width="10" height="5" x="210" y="300" fill="#FEFECE"/><rect style="stroke:#a80036;stroke-width:1.5" width="10" height="5" x="210" y="321.297" fill="#FEFECE"/><text x="225" y="317.995" fill="#000" font-family="sans-serif" font-size="14" lengthAdjust="spacingAndGlyphs" textLength="120">SecHub Server(s)</text><rect style="stroke:#a80036;stroke-width:1.5" width="172" height="36.297" x="30" y="402" fill="#FEFECE" filter="url(#f1jflmt8y2bdh0)"/><rect style="stroke:#a80036;stroke-width:1.5" width="10" height="5" x="25" y="407" fill="#FEFECE"/><rect style="stroke:#a80036;stroke-width:1.5" width="10" height="5" x="25" y="428.297" fill="#FEFECE"/><text x="40" y="424.995" fill="#000" font-family="sans-serif" font-size="14" lengthAdjust="spacingAndGlyphs" textLength="152">Infrastructure scanner</text><rect style="stroke:#a80036;stroke-width:1.5" width="117" height="36.297" x="237.5" y="402" fill="#FEFECE" filter="url(#f1jflmt8y2bdh0)"/><rect style="stroke:#a80036;stroke-width:1.5" width="10" height="5" x="232.5" y="407" fill="#FEFECE"/><rect style="stroke:#a80036;stroke-width:1.5" width="10" height="5" x="232.5" y="428.297" fill="#FEFECE"/><text x="247.5" y="424.995" fill="#000" font-family="sans-serif" font-size="14" lengthAdjust="spacingAndGlyphs" textLength="97">Code scanner</text><rect style="stroke:#a80036;stroke-width:1.5" width="111" height="36.297" x="60.5" y="498" fill="#FEFECE" filter="url(#f1jflmt8y2bdh0)"/><rect style="stroke:#a80036;stroke-width:1.5" width="10" height="5" x="55.5" y="503" fill="#FEFECE"/><rect style="stroke:#a80036;stroke-width:1.5" width="10" height="5" x="55.5" y="524.297" fill="#FEFECE"/><text x="70.5" y="520.995" fill="#000" font-family="sans-serif" font-size="14" lengthAdjust="spacingAndGlyphs" textLength="91">Web scanner</text><rect style="stroke:#a80036;stroke-width:1.5" width="32" height="36.297" x="207" y="498" fill="#FEFECE" filter="url(#f1jflmt8y2bdh0)"/><rect style="stroke:#a80036;stroke-width:1.5" width="10" height="5" x="202" y="503" fill="#FEFECE"/><rect style="stroke:#a80036;stroke-width:1.5" width="10" height="5" x="202" y="524.297" fill="#FEFECE"/><text x="217" y="520.995" fill="#000" font-family="sans-serif" font-size="14" lengthAdjust="spacingAndGlyphs" textLength="12">...</text><rect style="stroke:#a80036;stroke-width:1.5" width="138" height="36.297" x="216" y="188" fill="#FEFECE" filter="url(#f1jflmt8y2bdh0)"/><rect style="stroke:#a80036;stroke-width:1.5" width="10" height="5" x="211" y="193" fill="#FEFECE"/><rect style="stroke:#a80036;stroke-width:1.5" width="10" height="5" x="211" y="214.297" fill="#FEFECE"/><text x="226" y="210.995" fill="#000" font-family="sans-serif" font-size="14" lengthAdjust="spacingAndGlyphs" textLength="118">SecHub Admin UI</text><ellipse cx="285" cy="99" fill="#FEFECE" filter="url(#f1jflmt8y2bdh0)" rx="8" ry="8" style="stroke:#a80036;stroke-width:2"/><text x="263.5" y="128.995" fill="#000" font-family="sans-serif" font-size="14" lengthAdjust="spacingAndGlyphs" textLength="43">Admin</text><path id="Developer-Client" fill="none" d="M618.7298,108.1228 C603.6581,124.7483 571.3239,160.4159 550.1321,183.7924" style="stroke:#a80036;stroke-width:1"/><polygon fill="#A80036" points="546.572 187.72 555.58 183.739 549.93 184.016 549.653 178.366 546.572 187.72" style="stroke:#a80036;stroke-width:1"/><path id="BuildTool-Client" fill="none" d="M510.7904,108.1228 C513.9995,124.4735 520.8232,159.242 525.4121,182.6233" style="stroke:#a80036;stroke-width:1"/><polygon fill="#A80036" points="526.412 187.72 528.604 178.118 525.449 182.814 520.754 179.659 526.412 187.72" style="stroke:#a80036;stroke-width:1"/><path id="Owner-website" fill="none" d="M561.6055,322.1228 C549.278,339.7101 522.0141,378.6065 505.8131,401.72" style="stroke:#a80036;stroke-width:1"/><path id="Owner-code" fill="none" d="M574.4797,322.1228 C586.9716,339.7101 614.599,378.6065 631.0161,401.72" style="stroke:#a80036;stroke-width:1"/><path id="Owner-infra" fill="none" d="M577.3307,316.8165 C600.6455,326.3786 663.2879,352.2287 715,375 C734.7043,383.6767 756.4817,393.6389 774.4933,401.9806" style="stroke:#a80036;stroke-width:1"/><path id="Admin-AdminUI" fill="none" d="M285,108.1228 C285,124.4735 285,159.242 285,182.6233" style="stroke:#a80036;stroke-width:1"/><polygon fill="#A80036" points="285 187.72 289 178.72 285 182.72 281 178.72 285 187.72" style="stroke:#a80036;stroke-width:1"/><path id="Client-Server" fill="none" d="M471.201,221.0335 C440.8522,229.7686 403.6546,242.0174 372,257 C351.6684,266.6233 330.4102,280.2317 313.9969,291.6237" style="stroke:#a80036;stroke-width:1"/><polygon fill="#A80036" points="309.501 294.773 319.167 292.886 313.596 291.904 314.578 286.334 309.501 294.773" style="stroke:#a80036;stroke-width:1"/><path id="AdminUI-Server" fill="none" d="M285,224.1511 C285,242.213 285,270.0045 285,289.6895" style="stroke:#a80036;stroke-width:1"/><polygon fill="#A80036" points="285 294.76 289 285.76 285 289.76 281 285.76 285 294.76" style="stroke:#a80036;stroke-width:1"/><path id="backend-products" fill="none" d="M378.8453,339.2978 C378.799,339.6578 378.7538,340.02 378.7096,340.3844 C378.6211,341.1131 378.5366,341.8504 378.4562,342.5955 C378.2954,344.0856 378.1506,345.6069 378.0219,347.1531 C377.5072,353.338 377.2499,359.9215 377.25,366.5049 C377.2501,368.1508 377.2662,369.7966 377.2984,371.4362 C377.3145,372.256 377.3346,373.0743 377.3588,373.8902 C377.3648,374.0942 377.3711,374.298 377.3776,374.5017 C377.3809,374.6035 377.3842,374.7053 377.3876,374.8071" style="stroke:#a80036;stroke-width:2"/><polygon fill="#A80036" points="377.388 374.807 381.085 365.679 377.221 369.81 373.09 365.945 377.388 374.807" style="stroke:#a80036;stroke-width:1"/></g></svg>