<svg xmlns="http://www.w3.org/2000/svg" xmlns:xlink="http://www.w3.org/1999/xlink" width="1152" height="501" contentScriptType="application/ecmascript" contentStyleType="text/css" style="width:1152px;height:501px;background:#fff" preserveAspectRatio="none" version="1.1" viewBox="0 0 1152 501" zoomAndPan="magnify"><defs><filter id="f1olm6n7tz0fw0" width="300%" height="300%" x="-1" y="-1"><feGaussianBlur result="blurOut" stdDeviation="2"/><feColorMatrix in="blurOut" result="blurOut2" type="matrix" values="0 0 0 0 0 0 0 0 0 0 0 0 0 0 0 0 0 0 .4 0"/><feOffset dx="4" dy="4" in="blurOut2" result="blurOut3"/><feBlend in="SourceGraphic" in2="blurOut3" mode="normal"/></filter></defs><g><text x="394" y="28.708" fill="#000" font-family="sans-serif" font-size="18" lengthAdjust="spacing" textLength="364">Technical overview as sequence diagram</text><line style="stroke:#a80036;stroke-width:1;stroke-dasharray:5,5" x1="49" x2="49" y1="75.25" y2="458.578"/><line style="stroke:#a80036;stroke-width:1;stroke-dasharray:5,5" x1="145" x2="145" y1="75.25" y2="458.578"/><line style="stroke:#a80036;stroke-width:1;stroke-dasharray:5,5" x1="224" x2="224" y1="75.25" y2="458.578"/><line style="stroke:#a80036;stroke-width:1;stroke-dasharray:5,5" x1="347" x2="347" y1="75.25" y2="458.578"/><line style="stroke:#a80036;stroke-width:1;stroke-dasharray:5,5" x1="437" x2="437" y1="75.25" y2="458.578"/><line style="stroke:#a80036;stroke-width:1;stroke-dasharray:5,5" x1="532" x2="532" y1="75.25" y2="458.578"/><line style="stroke:#a80036;stroke-width:1;stroke-dasharray:5,5" x1="656" x2="656" y1="75.25" y2="458.578"/><line style="stroke:#a80036;stroke-width:1;stroke-dasharray:5,5" x1="804" x2="804" y1="75.25" y2="458.578"/><line style="stroke:#a80036;stroke-width:1;stroke-dasharray:5,5" x1="947" x2="947" y1="75.25" y2="458.578"/><line style="stroke:#a80036;stroke-width:1;stroke-dasharray:5,5" x1="1059" x2="1059" y1="75.25" y2="458.578"/><rect style="stroke:#a80036;stroke-width:1.5" width="85" height="30.297" x="5" y="39.953" fill="#FEFECE" filter="url(#f1olm6n7tz0fw0)"/><text x="12" y="59.948" fill="#000" font-family="sans-serif" font-size="14" lengthAdjust="spacing" textLength="71">Developer</text><rect style="stroke:#a80036;stroke-width:1.5" width="85" height="30.297" x="5" y="457.578" fill="#FEFECE" filter="url(#f1olm6n7tz0fw0)"/><text x="12" y="477.573" fill="#000" font-family="sans-serif" font-size="14" lengthAdjust="spacing" textLength="71">Developer</text><rect style="stroke:#a80036;stroke-width:1.5" width="78" height="30.297" x="104" y="39.953" fill="#FEFECE" filter="url(#f1olm6n7tz0fw0)"/><text x="111" y="59.948" fill="#000" font-family="sans-serif" font-size="14" lengthAdjust="spacing" textLength="64">BuildTool</text><rect style="stroke:#a80036;stroke-width:1.5" width="78" height="30.297" x="104" y="457.578" fill="#FEFECE" filter="url(#f1olm6n7tz0fw0)"/><text x="111" y="477.573" fill="#000" font-family="sans-serif" font-size="14" lengthAdjust="spacing" textLength="64">BuildTool</text><rect style="stroke:#a80036;stroke-width:1.5" width="53" height="30.297" x="196" y="39.953" fill="#FEFECE" filter="url(#f1olm6n7tz0fw0)"/><text x="203" y="59.948" fill="#000" font-family="sans-serif" font-size="14" lengthAdjust="spacing" textLength="39">Client</text><rect style="stroke:#a80036;stroke-width:1.5" width="53" height="30.297" x="196" y="457.578" fill="#FEFECE" filter="url(#f1olm6n7tz0fw0)"/><text x="203" y="477.573" fill="#000" font-family="sans-serif" font-size="14" lengthAdjust="spacing" textLength="39">Client</text><rect style="stroke:#a80036;stroke-width:1.5" width="67" height="30.297" x="312" y="39.953" fill="#FEFECE" filter="url(#f1olm6n7tz0fw0)"/><text x="319" y="59.948" fill="#000" font-family="sans-serif" font-size="14" lengthAdjust="spacing" textLength="53">RestAPI</text><rect style="stroke:#a80036;stroke-width:1.5" width="67" height="30.297" x="312" y="457.578" fill="#FEFECE" filter="url(#f1olm6n7tz0fw0)"/><text x="319" y="477.573" fill="#000" font-family="sans-serif" font-size="14" lengthAdjust="spacing" textLength="53">RestAPI</text><rect style="stroke:#a80036;stroke-width:1.5" width="84" height="30.297" x="393" y="39.953" fill="#FEFECE" filter="url(#f1olm6n7tz0fw0)"/><text x="400" y="59.948" fill="#000" font-family="sans-serif" font-size="14" lengthAdjust="spacing" textLength="70">Scheduler</text><rect style="stroke:#a80036;stroke-width:1.5" width="84" height="30.297" x="393" y="457.578" fill="#FEFECE" filter="url(#f1olm6n7tz0fw0)"/><text x="400" y="477.573" fill="#000" font-family="sans-serif" font-size="14" lengthAdjust="spacing" textLength="70">Scheduler</text><rect style="stroke:#a80036;stroke-width:1.5" width="79" height="30.297" x="491" y="39.953" fill="#FEFECE" filter="url(#f1olm6n7tz0fw0)"/><text x="498" y="59.948" fill="#000" font-family="sans-serif" font-size="14" lengthAdjust="spacing" textLength="65">Batch job</text><rect style="stroke:#a80036;stroke-width:1.5" width="79" height="30.297" x="491" y="457.578" fill="#FEFECE" filter="url(#f1olm6n7tz0fw0)"/><text x="498" y="477.573" fill="#000" font-family="sans-serif" font-size="14" lengthAdjust="spacing" textLength="65">Batch job</text><rect style="stroke:#a80036;stroke-width:1.5" width="141" height="30.297" x="584" y="39.953" fill="#FEFECE" filter="url(#f1olm6n7tz0fw0)"/><text x="591" y="59.948" fill="#000" font-family="sans-serif" font-size="14" lengthAdjust="spacing" textLength="127">Product Executors</text><rect style="stroke:#a80036;stroke-width:1.5" width="141" height="30.297" x="584" y="457.578" fill="#FEFECE" filter="url(#f1olm6n7tz0fw0)"/><text x="591" y="477.573" fill="#000" font-family="sans-serif" font-size="14" lengthAdjust="spacing" textLength="127">Product Executors</text><rect style="stroke:#a80036;stroke-width:1.5" width="126" height="30.297" x="739" y="39.953" fill="#FEFECE" filter="url(#f1olm6n7tz0fw0)"/><text x="746" y="59.948" fill="#000" font-family="sans-serif" font-size="14" lengthAdjust="spacing" textLength="112">Product Adapter</text><rect style="stroke:#a80036;stroke-width:1.5" width="126" height="30.297" x="739" y="457.578" fill="#FEFECE" filter="url(#f1olm6n7tz0fw0)"/><text x="746" y="477.573" fill="#000" font-family="sans-serif" font-size="14" lengthAdjust="spacing" textLength="112">Product Adapter</text><rect style="stroke:#a80036;stroke-width:1.5" width="133" height="30.297" x="879" y="39.953" fill="#FEFECE" filter="url(#f1olm6n7tz0fw0)"/><text x="886" y="59.948" fill="#000" font-family="sans-serif" font-size="14" lengthAdjust="spacing" textLength="119">3rd party product</text><rect style="stroke:#a80036;stroke-width:1.5" width="133" height="30.297" x="879" y="457.578" fill="#FEFECE" filter="url(#f1olm6n7tz0fw0)"/><text x="886" y="477.573" fill="#000" font-family="sans-serif" font-size="14" lengthAdjust="spacing" textLength="119">3rd party product</text><rect style="stroke:#a80036;stroke-width:1.5" width="63" height="30.297" x="1026" y="39.953" fill="#FEFECE" filter="url(#f1olm6n7tz0fw0)"/><text x="1033" y="59.948" fill="#000" font-family="sans-serif" font-size="14" lengthAdjust="spacing" textLength="49">Sereco</text><rect style="stroke:#a80036;stroke-width:1.5" width="63" height="30.297" x="1026" y="457.578" fill="#FEFECE" filter="url(#f1olm6n7tz0fw0)"/><text x="1033" y="477.573" fill="#000" font-family="sans-serif" font-size="14" lengthAdjust="spacing" textLength="49">Sereco</text><polygon fill="#A80036" points="133 87.25 143 91.25 133 95.25 137 91.25" style="stroke:#a80036;stroke-width:1"/><line style="stroke:#a80036;stroke-width:1" x1="49.5" x2="139" y1="91.25" y2="91.25"/><polygon fill="#A80036" points="212.5 101.25 222.5 105.25 212.5 109.25 216.5 105.25" style="stroke:#a80036;stroke-width:1"/><line style="stroke:#a80036;stroke-width:1" x1="49.5" x2="218.5" y1="105.25" y2="105.25"/><polygon fill="#A80036" points="212.5 115.25 222.5 119.25 212.5 123.25 216.5 119.25" style="stroke:#a80036;stroke-width:1"/><line style="stroke:#a80036;stroke-width:1" x1="145" x2="218.5" y1="119.25" y2="119.25"/><polygon fill="#A80036" points="235.5 144.383 225.5 148.383 235.5 152.383 231.5 148.383" style="stroke:#a80036;stroke-width:1"/><polygon fill="#A80036" points="335.5 144.383 345.5 148.383 335.5 152.383 339.5 148.383" style="stroke:#a80036;stroke-width:1"/><line style="stroke:#a80036;stroke-width:1" x1="229.5" x2="341.5" y1="148.383" y2="148.383"/><text x="241.5" y="143.317" fill="#000" font-family="sans-serif" font-size="13" lengthAdjust="spacing" textLength="99">communication</text><path fill="#FBFB77" d="M144,161.3828 L144,216.3828 L301,216.3828 L301,171.3828 L291,161.3828 L144,161.3828" filter="url(#f1olm6n7tz0fw0)" style="stroke:#a80036;stroke-width:1"/><path fill="#FBFB77" d="M291,161.3828 L291,171.3828 L301,171.3828 L291,161.3828" style="stroke:#a80036;stroke-width:1"/><text x="150" y="178.45" fill="#000" font-family="sans-serif" font-size="13" lengthAdjust="spacing" textLength="118">sends job request,</text><text x="150" y="193.583" fill="#000" font-family="sans-serif" font-size="13" lengthAdjust="spacing" textLength="108">uploads sources,</text><text x="150" y="208.715" fill="#000" font-family="sans-serif" font-size="13" lengthAdjust="spacing" textLength="136">receives job status, ..</text><polygon fill="#A80036" points="358.5 227.781 348.5 231.781 358.5 235.781 354.5 231.781" style="stroke:#a80036;stroke-width:1"/><polygon fill="#A80036" points="425 227.781 435 231.781 425 235.781 429 231.781" style="stroke:#a80036;stroke-width:1"/><line style="stroke:#a80036;stroke-width:1" x1="352.5" x2="431" y1="231.781" y2="231.781"/><polygon fill="#A80036" points="448 241.781 438 245.781 448 249.781 444 245.781" style="stroke:#a80036;stroke-width:1"/><polygon fill="#A80036" points="520.5 241.781 530.5 245.781 520.5 249.781 524.5 245.781" style="stroke:#a80036;stroke-width:1"/><line style="stroke:#a80036;stroke-width:1" x1="442" x2="526.5" y1="245.781" y2="245.781"/><polygon fill="#A80036" points="543.5 255.781 533.5 259.781 543.5 263.781 539.5 259.781" style="stroke:#a80036;stroke-width:1"/><polygon fill="#A80036" points="644.5 255.781 654.5 259.781 644.5 263.781 648.5 259.781" style="stroke:#a80036;stroke-width:1"/><line style="stroke:#a80036;stroke-width:1" x1="537.5" x2="650.5" y1="259.781" y2="259.781"/><polygon fill="#A80036" points="667.5 269.781 657.5 273.781 667.5 277.781 663.5 273.781" style="stroke:#a80036;stroke-width:1"/><polygon fill="#A80036" points="792 269.781 802 273.781 792 277.781 796 273.781" style="stroke:#a80036;stroke-width:1"/><line style="stroke:#a80036;stroke-width:1" x1="661.5" x2="798" y1="273.781" y2="273.781"/><polygon fill="#A80036" points="815 283.781 805 287.781 815 291.781 811 287.781" style="stroke:#a80036;stroke-width:1"/><polygon fill="#A80036" points="935.5 283.781 945.5 287.781 935.5 291.781 939.5 287.781" style="stroke:#a80036;stroke-width:1"/><line style="stroke:#a80036;stroke-width:1" x1="809" x2="941.5" y1="287.781" y2="287.781"/><polygon fill="#A80036" points="815 297.781 805 301.781 815 305.781 811 301.781" style="stroke:#a80036;stroke-width:1"/><polygon fill="#A80036" points="1047.5 297.781 1057.5 301.781 1047.5 305.781 1051.5 301.781" style="stroke:#a80036;stroke-width:1"/><line style="stroke:#a80036;stroke-width:1" x1="809" x2="1053.5" y1="301.781" y2="301.781"/><path fill="#FBFB77" d="M854,314.7813 L854,399.7813 L1036,399.7813 L1036,324.7813 L1026,314.7813 L854,314.7813" filter="url(#f1olm6n7tz0fw0)" style="stroke:#a80036;stroke-width:1"/><path fill="#FBFB77" d="M1026,314.7813 L1026,324.7813 L1036,324.7813 L1026,314.7813" style="stroke:#a80036;stroke-width:1"/><text x="860" y="331.848" fill="#000" font-family="sans-serif" font-size="13" lengthAdjust="spacing" textLength="135">Any security product,</text><text x="864" y="346.981" fill="#000" font-family="sans-serif" font-size="13" lengthAdjust="spacing" textLength="137">- static code analyser</text><text x="864" y="362.114" fill="#000" font-family="sans-serif" font-size="13" lengthAdjust="spacing" textLength="89">- web scanner</text><text x="864" y="377.247" fill="#000" font-family="sans-serif" font-size="13" lengthAdjust="spacing" textLength="157">- infrastructure scanners</text><text x="864" y="392.379" fill="#000" font-family="sans-serif" font-size="13" lengthAdjust="spacing" textLength="21">- ...</text><path fill="#FBFB77" d="M971,414.4453 L971,439.4453 L1143,439.4453 L1143,424.4453 L1133,414.4453 L971,414.4453" filter="url(#f1olm6n7tz0fw0)" style="stroke:#a80036;stroke-width:1"/><path fill="#FBFB77" d="M1133,414.4453 L1133,424.4453 L1143,424.4453 L1133,414.4453" style="stroke:#a80036;stroke-width:1"/><text x="977" y="431.512" fill="#000" font-family="sans-serif" font-size="13" lengthAdjust="spacing" textLength="151">SecHub report collector</text></g></svg>