<svg xmlns="http://www.w3.org/2000/svg" xmlns:xlink="http://www.w3.org/1999/xlink" width="1120" height="1186" contentScriptType="application/ecmascript" contentStyleType="text/css" style="width:1120px;height:1186px;background:#fff" preserveAspectRatio="none" version="1.1" viewBox="0 0 1120 1186" zoomAndPan="magnify"><defs><filter id="f1s24iq2b1htot" width="300%" height="300%" x="-1" y="-1"><feGaussianBlur result="blurOut" stdDeviation="2"/><feColorMatrix in="blurOut" result="blurOut2" type="matrix" values="0 0 0 0 0 0 0 0 0 0 0 0 0 0 0 0 0 0 .4 0"/><feOffset dx="4" dy="4" in="blurOut2" result="blurOut3"/><feBlend in="SourceGraphic" in2="blurOut3" mode="normal"/></filter></defs><g><rect style="stroke:#000;stroke-width:2" width="1093" height="691.125" x="13" y="364.625" fill="#FFF" filter="url(#f1s24iq2b1htot)"/><rect style="stroke:#000;stroke-width:2" width="544" height="61.398" x="542" y="487.289" fill="#FFF" filter="url(#f1s24iq2b1htot)"/><rect style="stroke:#000;stroke-width:2" width="684" height="220.195" x="412" y="562.688" fill="#FFF" filter="url(#f1s24iq2b1htot)"/><rect style="stroke:#000;stroke-width:2" width="664" height="75.398" x="422" y="700.484" fill="#FFF" filter="url(#f1s24iq2b1htot)"/><rect style="stroke:none;stroke-width:1" width="1093" height="174.469" x="13" y="881.281" fill="#FFF"/><line style="stroke:#a80036;stroke-width:1;stroke-dasharray:5,5" x1="67" x2="67" y1="88.297" y2="1101.883"/><line style="stroke:#a80036;stroke-width:1;stroke-dasharray:5,5" x1="180" x2="180" y1="88.297" y2="1101.883"/><line style="stroke:#a80036;stroke-width:1;stroke-dasharray:5,5" x1="356" x2="356" y1="88.297" y2="1101.883"/><line style="stroke:#a80036;stroke-width:1;stroke-dasharray:5,5" x1="487" x2="487" y1="88.297" y2="1101.883"/><line style="stroke:#a80036;stroke-width:1;stroke-dasharray:5,5" x1="607" x2="607" y1="88.297" y2="1101.883"/><line style="stroke:#a80036;stroke-width:1;stroke-dasharray:5,5" x1="688" x2="688" y1="88.297" y2="1101.883"/><line style="stroke:#a80036;stroke-width:1;stroke-dasharray:5,5" x1="769" x2="769" y1="88.297" y2="1101.883"/><line style="stroke:#a80036;stroke-width:1;stroke-dasharray:5,5" x1="877" x2="877" y1="88.297" y2="1101.883"/><line style="stroke:#a80036;stroke-width:1;stroke-dasharray:5,5" x1="1046" x2="1046" y1="88.297" y2="1101.883"/><path fill="#FEFECE" d="M10,62 L125,62 C130,62 130,75.1484 130,75.1484 C130,75.1484 130,88.2969 125,88.2969 L10,88.2969 C5,88.2969 5,75.1484 5,75.1484 C5,75.1484 5,62 10,62" filter="url(#f1s24iq2b1htot)" style="stroke:#a80036;stroke-width:2"/><path fill="none" d="M125,62 C120,62 120,75.1484 120,75.1484 C120,88.2969 125,88.2969 125,88.2969" style="stroke:#a80036;stroke-width:2"/><text x="10" y="79.995" fill="#000" font-family="sans-serif" font-size="14" lengthAdjust="spacing" textLength="105">PDS Job Queue</text><path fill="#FEFECE" d="M10,1100.8828 L125,1100.8828 C130,1100.8828 130,1114.0313 130,1114.0313 C130,1114.0313 130,1127.1797 125,1127.1797 L10,1127.1797 C5,1127.1797 5,1114.0313 5,1114.0313 C5,1114.0313 5,1100.8828 10,1100.8828" filter="url(#f1s24iq2b1htot)" style="stroke:#a80036;stroke-width:2"/><path fill="none" d="M125,1100.8828 C120,1100.8828 120,1114.0313 120,1114.0313 C120,1127.1797 125,1127.1797 125,1127.1797" style="stroke:#a80036;stroke-width:2"/><text x="10" y="1118.878" fill="#000" font-family="sans-serif" font-size="14" lengthAdjust="spacing" textLength="105">PDS Job Queue</text><text x="140" y="84.995" fill="#000" font-family="sans-serif" font-size="14" lengthAdjust="spacing" textLength="75">PDS admin</text><ellipse cx="180.5" cy="15" fill="#FEFECE" filter="url(#f1s24iq2b1htot)" rx="8" ry="8" style="stroke:#a80036;stroke-width:2"/><path fill="none" d="M180.5,23 L180.5,50 M167.5,31 L193.5,31 M180.5,50 L167.5,65 M180.5,50 L193.5,65" filter="url(#f1s24iq2b1htot)" style="stroke:#a80036;stroke-width:2"/><text x="140" y="1113.878" fill="#000" font-family="sans-serif" font-size="14" lengthAdjust="spacing" textLength="75">PDS admin</text><ellipse cx="180.5" cy="1127.18" fill="#FEFECE" filter="url(#f1s24iq2b1htot)" rx="8" ry="8" style="stroke:#a80036;stroke-width:2"/><path fill="none" d="M180.5,1135.1797 L180.5,1162.1797 M167.5,1143.1797 L193.5,1143.1797 M180.5,1162.1797 L167.5,1177.1797 M180.5,1162.1797 L193.5,1177.1797" filter="url(#f1s24iq2b1htot)" style="stroke:#a80036;stroke-width:2"/><text x="291" y="84.995" fill="#000" font-family="sans-serif" font-size="14" lengthAdjust="spacing" textLength="125">PDS Loadbalancer</text><ellipse cx="356.5" cy="56" fill="#FEFECE" filter="url(#f1s24iq2b1htot)" rx="12" ry="12" style="stroke:#a80036;stroke-width:2"/><polygon fill="#A80036" points="352.5 44 358.5 39 356.5 44 358.5 49 352.5 44" style="stroke:#a80036;stroke-width:1"/><text x="291" y="1113.878" fill="#000" font-family="sans-serif" font-size="14" lengthAdjust="spacing" textLength="125">PDS Loadbalancer</text><ellipse cx="356.5" cy="1133.18" fill="#FEFECE" filter="url(#f1s24iq2b1htot)" rx="12" ry="12" style="stroke:#a80036;stroke-width:2"/><polygon fill="#A80036" points="352.5 1121.18 358.5 1116.18 356.5 1121.18 358.5 1126.18 352.5 1121.18" style="stroke:#a80036;stroke-width:1"/><text x="432" y="84.995" fill="#000" font-family="sans-serif" font-size="14" lengthAdjust="spacing" textLength="104">PDS member 1</text><ellipse cx="487" cy="56" fill="#FEFECE" filter="url(#f1s24iq2b1htot)" rx="12" ry="12" style="stroke:#a80036;stroke-width:2"/><line style="stroke:#a80036;stroke-width:2" x1="475" x2="499" y1="70" y2="70"/><text x="432" y="1113.878" fill="#000" font-family="sans-serif" font-size="14" lengthAdjust="spacing" textLength="104">PDS member 1</text><ellipse cx="487" cy="1133.18" fill="#FEFECE" filter="url(#f1s24iq2b1htot)" rx="12" ry="12" style="stroke:#a80036;stroke-width:2"/><line style="stroke:#a80036;stroke-width:2" x1="475" x2="499" y1="1147.18" y2="1147.18"/><text x="552" y="84.995" fill="#000" font-family="sans-serif" font-size="14" lengthAdjust="spacing" textLength="104">PDS member 2</text><ellipse cx="607" cy="56" fill="#FEFECE" filter="url(#f1s24iq2b1htot)" rx="12" ry="12" style="stroke:#a80036;stroke-width:2"/><line style="stroke:#a80036;stroke-width:2" x1="595" x2="619" y1="70" y2="70"/><text x="552" y="1113.878" fill="#000" font-family="sans-serif" font-size="14" lengthAdjust="spacing" textLength="104">PDS member 2</text><ellipse cx="607" cy="1133.18" fill="#FEFECE" filter="url(#f1s24iq2b1htot)" rx="12" ry="12" style="stroke:#a80036;stroke-width:2"/><line style="stroke:#a80036;stroke-width:2" x1="595" x2="619" y1="1147.18" y2="1147.18"/><text x="679" y="84.995" fill="#000" font-family="sans-serif" font-size="14" lengthAdjust="spacing" textLength="12">...</text><ellipse cx="688" cy="56" fill="#FEFECE" filter="url(#f1s24iq2b1htot)" rx="12" ry="12" style="stroke:#a80036;stroke-width:2"/><line style="stroke:#a80036;stroke-width:2" x1="676" x2="700" y1="70" y2="70"/><text x="679" y="1113.878" fill="#000" font-family="sans-serif" font-size="14" lengthAdjust="spacing" textLength="12">...</text><ellipse cx="688" cy="1133.18" fill="#FEFECE" filter="url(#f1s24iq2b1htot)" rx="12" ry="12" style="stroke:#a80036;stroke-width:2"/><line style="stroke:#a80036;stroke-width:2" x1="676" x2="700" y1="1147.18" y2="1147.18"/><text x="714" y="84.995" fill="#000" font-family="sans-serif" font-size="14" lengthAdjust="spacing" textLength="104">PDS member n</text><ellipse cx="769" cy="56" fill="#FEFECE" filter="url(#f1s24iq2b1htot)" rx="12" ry="12" style="stroke:#a80036;stroke-width:2"/><line style="stroke:#a80036;stroke-width:2" x1="757" x2="781" y1="70" y2="70"/><text x="714" y="1113.878" fill="#000" font-family="sans-serif" font-size="14" lengthAdjust="spacing" textLength="104">PDS member n</text><ellipse cx="769" cy="1133.18" fill="#FEFECE" filter="url(#f1s24iq2b1htot)" rx="12" ry="12" style="stroke:#a80036;stroke-width:2"/><line style="stroke:#a80036;stroke-width:2" x1="757" x2="781" y1="1147.18" y2="1147.18"/><text x="834" y="84.995" fill="#000" font-family="sans-serif" font-size="14" lengthAdjust="spacing" textLength="81">Job process</text><path fill="none" d="M857,44 L857,68 M857,56 L874,56" filter="url(#f1s24iq2b1htot)" style="stroke:#a80036;stroke-width:2"/><ellipse cx="886" cy="56" fill="#FEFECE" filter="url(#f1s24iq2b1htot)" rx="12" ry="12" style="stroke:#a80036;stroke-width:2"/><text x="834" y="1113.878" fill="#000" font-family="sans-serif" font-size="14" lengthAdjust="spacing" textLength="81">Job process</text><path fill="none" d="M857,1121.1797 L857,1145.1797 M857,1133.1797 L874,1133.1797" filter="url(#f1s24iq2b1htot)" style="stroke:#a80036;stroke-width:2"/><ellipse cx="886" cy="1133.18" fill="#FEFECE" filter="url(#f1s24iq2b1htot)" rx="12" ry="12" style="stroke:#a80036;stroke-width:2"/><text x="1016" y="84.995" fill="#000" font-family="sans-serif" font-size="14" lengthAdjust="spacing" textLength="54">PDS DB</text><path fill="#FEFECE" d="M1028,36 C1028,26 1046,26 1046,26 C1046,26 1064,26 1064,36 L1064,62 C1064,72 1046,72 1046,72 C1046,72 1028,72 1028,62 L1028,36" filter="url(#f1s24iq2b1htot)" style="stroke:#000;stroke-width:1.5"/><path fill="none" d="M1028,36 C1028,46 1046,46 1046,46 C1046,46 1064,46 1064,36" style="stroke:#000;stroke-width:1.5"/><text x="1016" y="1113.878" fill="#000" font-family="sans-serif" font-size="14" lengthAdjust="spacing" textLength="54">PDS DB</text><path fill="#FEFECE" d="M1028,1127.1797 C1028,1117.1797 1046,1117.1797 1046,1117.1797 C1046,1117.1797 1064,1117.1797 1064,1127.1797 L1064,1153.1797 C1064,1163.1797 1046,1163.1797 1046,1163.1797 C1046,1163.1797 1028,1163.1797 1028,1153.1797 L1028,1127.1797" filter="url(#f1s24iq2b1htot)" style="stroke:#000;stroke-width:1.5"/><path fill="none" d="M1028,1127.1797 C1028,1137.1797 1046,1137.1797 1046,1137.1797 C1046,1137.1797 1064,1137.1797 1064,1127.1797" style="stroke:#000;stroke-width:1.5"/><polygon fill="#A80036" points="78.5 115.43 68.5 119.43 78.5 123.43 74.5 119.43" style="stroke:#a80036;stroke-width:1"/><line style="stroke:#a80036;stroke-width:1" x1="72.5" x2="486" y1="119.43" y2="119.43"/><text x="84.5" y="114.364" fill="#000" font-family="sans-serif" font-size="13" lengthAdjust="spacing" textLength="205">fetches Job and starts execution</text><polygon fill="#A80036" points="865.5 144.563 875.5 148.563 865.5 152.563 869.5 148.563" style="stroke:#a80036;stroke-width:1"/><line style="stroke:#a80036;stroke-width:1" x1="487" x2="871.5" y1="148.563" y2="148.563"/><text x="494" y="143.497" fill="#000" font-family="sans-serif" font-size="13" lengthAdjust="spacing" textLength="91">starts process</text><polygon fill="#A80036" points="498 173.695 488 177.695 498 181.695 494 177.695" style="stroke:#a80036;stroke-width:1"/><line style="stroke:#a80036;stroke-width:1" x1="492" x2="876.5" y1="177.695" y2="177.695"/><text x="504" y="172.629" fill="#000" font-family="sans-serif" font-size="13" lengthAdjust="spacing" textLength="180">writes streams to filesystem</text><path fill="#FBFB77" d="M135,190.6953 L135,245.6953 L652,245.6953 L652,200.6953 L642,190.6953 L135,190.6953" filter="url(#f1s24iq2b1htot)" style="stroke:#a80036;stroke-width:1"/><path fill="#FBFB77" d="M642,190.6953 L642,200.6953 L652,200.6953 L642,190.6953" style="stroke:#a80036;stroke-width:1"/><text x="244.5" y="207.762" fill="#000" font-family="sans-serif" font-size="13" lengthAdjust="spacing" textLength="284">Administrator wants to fetch content stream</text><text x="244.5" y="222.895" fill="#000" font-family="sans-serif" font-size="13" lengthAdjust="spacing" textLength="285">but loadbalancer uses other cluster member</text><text x="244.5" y="238.028" fill="#000" font-family="sans-serif" font-size="13" lengthAdjust="spacing" textLength="233">which does not execute the process.</text><polygon fill="#A80036" points="344.5 287.359 354.5 291.359 344.5 295.359 348.5 291.359" style="stroke:#a80036;stroke-width:1"/><line style="stroke:#a80036;stroke-width:1" x1="180.5" x2="350.5" y1="291.359" y2="291.359"/><text x="187.5" y="271.161" fill="#000" font-family="sans-serif" font-size="13" lengthAdjust="spacing" textLength="92">Wants to fetch</text><text x="187.5" y="286.293" fill="#000" font-family="sans-serif" font-size="13" lengthAdjust="spacing" textLength="99">stream content</text><polygon fill="#A80036" points="595 316.492 605 320.492 595 324.492 599 320.492" style="stroke:#a80036;stroke-width:1"/><line style="stroke:#a80036;stroke-width:1" x1="356.5" x2="601" y1="320.492" y2="320.492"/><text x="363.5" y="315.426" fill="#000" font-family="sans-serif" font-size="13" lengthAdjust="spacing" textLength="63">delegates</text><polygon fill="#A80036" points="1034 345.625 1044 349.625 1034 353.625 1038 349.625" style="stroke:#a80036;stroke-width:1"/><line style="stroke:#a80036;stroke-width:1" x1="607" x2="1040" y1="349.625" y2="349.625"/><text x="614" y="344.559" fill="#000" font-family="sans-serif" font-size="13" lengthAdjust="spacing" textLength="113">check job finished</text><path fill="#EEE" d="M13,364.625 L77,364.625 L77,371.625 L67,381.625 L13,381.625 L13,364.625" style="stroke:#000;stroke-width:1"/><rect style="stroke:#000;stroke-width:2" width="1093" height="691.125" x="13" y="364.625" fill="none"/><text x="28" y="377.692" fill="#000" font-family="sans-serif" font-size="13" font-weight="bold" lengthAdjust="spacing" textLength="19">alt</text><text x="92" y="376.835" fill="#000" font-family="sans-serif" font-size="11" font-weight="bold" lengthAdjust="spacing" textLength="111">[job still running]</text><path fill="#FBFB77" d="M492,386.7578 L492,441.7578 L718,441.7578 L718,396.7578 L708,386.7578 L492,386.7578" filter="url(#f1s24iq2b1htot)" style="stroke:#a80036;stroke-width:1"/><path fill="#FBFB77" d="M708,386.7578 L708,396.7578 L718,396.7578 L708,386.7578" style="stroke:#a80036;stroke-width:1"/><text x="498" y="403.825" fill="#000" font-family="sans-serif" font-size="13" lengthAdjust="spacing" textLength="159">Cluster member2 has no</text><text x="498" y="418.957" fill="#000" font-family="sans-serif" font-size="13" lengthAdjust="spacing" textLength="149">direct access to the job</text><text x="498" y="434.09" fill="#000" font-family="sans-serif" font-size="13" lengthAdjust="spacing" textLength="205">which runs on another member!</text><polygon fill="#A80036" points="1034 468.289 1044 472.289 1034 476.289 1038 472.289" style="stroke:#a80036;stroke-width:1"/><line style="stroke:#a80036;stroke-width:1" x1="607" x2="1040" y1="472.289" y2="472.289"/><text x="614" y="467.223" fill="#000" font-family="sans-serif" font-size="13" lengthAdjust="spacing" textLength="208">check for last update timestamp</text><path fill="#EEE" d="M542,487.2891 L606,487.2891 L606,494.2891 L596,504.2891 L542,504.2891 L542,487.2891" style="stroke:#000;stroke-width:1"/><rect style="stroke:#000;stroke-width:2" width="544" height="61.398" x="542" y="487.289" fill="none"/><text x="557" y="500.356" fill="#000" font-family="sans-serif" font-size="13" font-weight="bold" lengthAdjust="spacing" textLength="19">alt</text><text x="621" y="499.5" fill="#000" font-family="sans-serif" font-size="11" font-weight="bold" lengthAdjust="spacing" textLength="212">[outdated data or no data found]</text><polygon fill="#A80036" points="1034 536.688 1044 540.688 1034 544.688 1038 540.688" style="stroke:#a80036;stroke-width:1"/><line style="stroke:#a80036;stroke-width:1" x1="607" x2="1040" y1="540.688" y2="540.688"/><text x="614" y="520.489" fill="#000" font-family="sans-serif" font-size="13" lengthAdjust="spacing" textLength="324">set request refresh time stamp for stream content</text><text x="614" y="535.622" fill="#000" font-family="sans-serif" font-size="13" lengthAdjust="spacing" textLength="415">and wait until last update timestamp newer or job has been done</text><path fill="#EEE" d="M412,562.6875 L489,562.6875 L489,569.6875 L479,579.6875 L412,579.6875 L412,562.6875" style="stroke:#000;stroke-width:1"/><rect style="stroke:#000;stroke-width:2" width="684" height="220.195" x="412" y="562.688" fill="none"/><text x="427" y="575.754" fill="#000" font-family="sans-serif" font-size="13" font-weight="bold" lengthAdjust="spacing" textLength="32">loop</text><text x="504" y="574.898" fill="#000" font-family="sans-serif" font-size="11" font-weight="bold" lengthAdjust="spacing" textLength="271">[check for last refresh request timestamp]</text><path fill="#FBFB77" d="M493,584.8203 L493,624.8203 L717,624.8203 L717,594.8203 L707,584.8203 L493,584.8203" filter="url(#f1s24iq2b1htot)" style="stroke:#a80036;stroke-width:1"/><path fill="#FBFB77" d="M707,584.8203 L707,594.8203 L717,594.8203 L707,584.8203" style="stroke:#a80036;stroke-width:1"/><text x="499" y="601.887" fill="#000" font-family="sans-serif" font-size="13" lengthAdjust="spacing" textLength="203">Here we have a watcher thread,</text><text x="499" y="617.02" fill="#000" font-family="sans-serif" font-size="13" lengthAdjust="spacing" textLength="197">running on executing machine.</text><polygon fill="#A80036" points="498 681.484 488 685.484 498 689.484 494 685.484" style="stroke:#a80036;stroke-width:1"/><line style="stroke:#a80036;stroke-width:1" x1="492" x2="1045" y1="685.484" y2="685.484"/><text x="504" y="650.153" fill="#000" font-family="sans-serif" font-size="13" lengthAdjust="spacing" textLength="57">inspect if</text><text x="565" y="650.153" fill="#000" font-family="sans-serif" font-size="13" font-weight="bold" lengthAdjust="spacing" textLength="147">request time stamp</text><text x="716" y="650.153" fill="#000" font-family="sans-serif" font-size="13" lengthAdjust="spacing" textLength="120">for stream content</text><text x="508" y="665.286" fill="#000" font-family="sans-serif" font-size="13" lengthAdjust="spacing" textLength="24">and</text><text x="536" y="665.286" fill="#000" font-family="sans-serif" font-size="13" font-weight="bold" lengthAdjust="spacing" textLength="306">last update timestamp &gt; ACCEPTED_GAP</text><text x="504" y="680.418" fill="#000" font-family="sans-serif" font-size="13" font-weight="bold" lengthAdjust="spacing" textLength="165">and job is still running</text><path fill="#EEE" d="M422,700.4844 L486,700.4844 L486,707.4844 L476,717.4844 L422,717.4844 L422,700.4844" style="stroke:#000;stroke-width:1"/><rect style="stroke:#000;stroke-width:2" width="664" height="75.398" x="422" y="700.484" fill="none"/><text x="437" y="713.551" fill="#000" font-family="sans-serif" font-size="13" font-weight="bold" lengthAdjust="spacing" textLength="19">alt</text><text x="501" y="712.695" fill="#000" font-family="sans-serif" font-size="11" font-weight="bold" lengthAdjust="spacing" textLength="125">[refresh necessary]</text><polygon fill="#A80036" points="1034 734.75 1044 738.75 1034 742.75 1038 738.75" style="stroke:#a80036;stroke-width:1"/><line style="stroke:#a80036;stroke-width:1" x1="487" x2="1040" y1="738.75" y2="738.75"/><text x="494" y="733.684" fill="#000" font-family="sans-serif" font-size="13" lengthAdjust="spacing" textLength="285">write current stream content (file) to DB field</text><polygon fill="#A80036" points="1034 763.883 1044 767.883 1034 771.883 1038 767.883" style="stroke:#a80036;stroke-width:1"/><line style="stroke:#a80036;stroke-width:1" x1="487" x2="1040" y1="767.883" y2="767.883"/><text x="494" y="762.817" fill="#000" font-family="sans-serif" font-size="13" lengthAdjust="spacing" textLength="45">update</text><text x="543" y="762.817" fill="#000" font-family="sans-serif" font-size="13" font-weight="bold" lengthAdjust="spacing" textLength="184">&quot;last update timestamp&quot;</text><polygon fill="#A80036" points="1034 807.016 1044 811.016 1034 815.016 1038 811.016" style="stroke:#a80036;stroke-width:1"/><line style="stroke:#a80036;stroke-width:1" x1="607" x2="1040" y1="811.016" y2="811.016"/><text x="614" y="805.95" fill="#000" font-family="sans-serif" font-size="13" lengthAdjust="spacing" textLength="222">fetch stream content from DB field</text><polygon fill="#A80036" points="367.5 836.148 357.5 840.148 367.5 844.148 363.5 840.148" style="stroke:#a80036;stroke-width:1"/><line style="stroke:#a80036;stroke-width:1" x1="361.5" x2="606" y1="840.148" y2="840.148"/><text x="373.5" y="835.082" fill="#000" font-family="sans-serif" font-size="13" lengthAdjust="spacing" textLength="92">return content</text><polygon fill="#FBFB77" points="33 853.148 1079 853.148 1089 864.148 1079 876.148 33 876.148 23 864.148 33 853.148" filter="url(#f1s24iq2b1htot)" style="stroke:#a80036;stroke-width:1"/><text x="428.5" y="869.215" fill="#000" font-family="sans-serif" font-size="13" lengthAdjust="spacing" textLength="255">End of current process still running case</text><line style="stroke:#000;stroke-width:1;stroke-dasharray:2,2" x1="13" x2="1106" y1="882.281" y2="882.281"/><text x="18" y="892.492" fill="#000" font-family="sans-serif" font-size="11" font-weight="bold" lengthAdjust="spacing" textLength="138">[job already finished]</text><polygon fill="#A80036" points="1034 913.219 1044 917.219 1034 921.219 1038 917.219" style="stroke:#a80036;stroke-width:1"/><line style="stroke:#a80036;stroke-width:1" x1="487" x2="1040" y1="917.219" y2="917.219"/><text x="494" y="912.153" fill="#000" font-family="sans-serif" font-size="13" lengthAdjust="spacing" textLength="254">write file to DB field after process ended</text><path fill="#FBFB77" d="M503,930.2188 L503,955.2188 L707,955.2188 L707,940.2188 L697,930.2188 L503,930.2188" filter="url(#f1s24iq2b1htot)" style="stroke:#a80036;stroke-width:1"/><path fill="#FBFB77" d="M697,930.2188 L697,940.2188 L707,940.2188 L697,930.2188" style="stroke:#a80036;stroke-width:1"/><text x="509" y="947.286" fill="#000" font-family="sans-serif" font-size="13" lengthAdjust="spacing" textLength="183">Just fetch final data from DB.</text><polygon fill="#A80036" points="1034 981.484 1044 985.484 1034 989.484 1038 985.484" style="stroke:#a80036;stroke-width:1"/><line style="stroke:#a80036;stroke-width:1" x1="607" x2="1040" y1="985.484" y2="985.484"/><text x="614" y="980.418" fill="#000" font-family="sans-serif" font-size="13" lengthAdjust="spacing" textLength="222">fetch stream content from DB field</text><polygon fill="#A80036" points="367.5 1010.617 357.5 1014.617 367.5 1018.617 363.5 1014.617" style="stroke:#a80036;stroke-width:1"/><line style="stroke:#a80036;stroke-width:1" x1="361.5" x2="606" y1="1014.617" y2="1014.617"/><text x="373.5" y="1009.551" fill="#000" font-family="sans-serif" font-size="13" lengthAdjust="spacing" textLength="92">return content</text><polygon fill="#FBFB77" points="33 1027.617 1079 1027.617 1089 1038.617 1079 1050.617 33 1050.617 23 1038.617 33 1027.617" filter="url(#f1s24iq2b1htot)" style="stroke:#a80036;stroke-width:1"/><text x="482.5" y="1043.684" fill="#000" font-family="sans-serif" font-size="13" lengthAdjust="spacing" textLength="147">End of process finished</text><polygon fill="#A80036" points="191.5 1079.883 181.5 1083.883 191.5 1087.883 187.5 1083.883" style="stroke:#a80036;stroke-width:1"/><line style="stroke:#a80036;stroke-width:1" x1="185.5" x2="355.5" y1="1083.883" y2="1083.883"/><text x="197.5" y="1078.817" fill="#000" font-family="sans-serif" font-size="13" lengthAdjust="spacing" textLength="152">Returns content stream</text></g></svg>