<svg xmlns="http://www.w3.org/2000/svg" xmlns:xlink="http://www.w3.org/1999/xlink" width="1162" height="663" contentScriptType="application/ecmascript" contentStyleType="text/css" style="width:1162px;height:663px;background:#fff" preserveAspectRatio="none" version="1.1" viewBox="0 0 1162 663" zoomAndPan="magnify"><defs><filter id="fbkyxnvx45mxo" width="300%" height="300%" x="-1" y="-1"><feGaussianBlur result="blurOut" stdDeviation="2"/><feColorMatrix in="blurOut" result="blurOut2" type="matrix" values="0 0 0 0 0 0 0 0 0 0 0 0 0 0 0 0 0 0 .4 0"/><feOffset dx="4" dy="4" in="blurOut2" result="blurOut3"/><feBlend in="SourceGraphic" in2="blurOut3" mode="normal"/></filter></defs><g><polygon fill="#FFF" points="16 6 158 6 165 28.297 168 28.297 168 103 16 103 16 6" filter="url(#fbkyxnvx45mxo)" style="stroke:#000;stroke-width:1.5"/><line style="stroke:#000;stroke-width:1.5" x1="16" x2="165" y1="28.297" y2="28.297"/><text x="20" y="20.995" fill="#000" font-family="sans-serif" font-size="14" font-weight="bold" lengthAdjust="spacing" textLength="136">Sechub CLI client</text><path fill="#FFF" d="M133.4046,140.6877 C142.2184,122.1437 157.4962,120.422 170.9897,135.4483 C180.1959,115.5255 198.261,114.5893 208.5189,134.4564 C220.5652,116.2276 232.1187,120.9795 243.3077,135.3707 C253.2498,116.9763 267.872,116.7562 279.3517,133.8071 C289.2586,117.4076 303.3321,117.8884 312.7345,134.32 C325.8599,116.3396 341.7178,117.9986 353.5518,135.7935 C360.0467,119.352 376.6882,115.3196 387.7572,130.9089 C398.6707,112.0434 414.6357,112.2933 425.3495,131.1081 C436.3197,116.3587 450.6838,114.125 461.2328,131.5775 C470.7686,116.8427 484.9707,116.2464 493.3807,132.7366 C507.5959,115.1971 521.1526,118.5634 530.4653,137.6945 C540.0122,119.4623 555.9444,117.7286 568.9237,133.8522 C580.3657,116.8292 592.037,119.1165 601.2212,136.0026 C616.4211,119.8534 631.737,118.7714 641,142 C644.8369,140.3818 646.6539,141.8378 646.7858,145.8246 C661.2332,154.2955 661.9754,170.0535 645.8077,177.5815 C664.4784,190.4308 665.793,202.5757 645.5939,215.2042 C659.6551,223.326 660.4252,238.1577 644.44,245.1206 C662.2639,255.1948 661.882,266.33 647.5186,279.3031 C661.8723,288.614 666.2832,303.2326 648.1568,313.1559 C665.1922,324.104 666.7553,340.3223 648.6123,351.6863 C663.1389,360.3019 658.277,374.1619 645.8935,380.2129 C660.8258,390.94 660.6457,406.2643 643.3947,414.6567 C662.0619,423.9246 660.4613,438.6881 644.1633,448.7445 C660.7266,458.9186 661.4887,469.7843 646.8649,482.4575 C664.9922,492.978 661.0978,506.5806 647.0968,517.3148 C661.7898,527.0097 662.6265,542.8413 647.7238,553.0554 C664.0236,565.026 658.4202,580.7111 641.5612,586.5878 C655.2643,599.766 654.5056,618.5555 634,625 C637.1701,626.4622 636.9588,628.864 634.6115,630.8983 C624.4255,647.3055 608.6847,648.3793 598.9697,630.4099 C590.0381,648.0525 572.6122,646.0636 563.2563,630.8713 C551.871,647.4602 541.4129,648.0624 528.9971,631.9509 C517.8524,647.9296 507.8779,645.531 496.6318,632.0624 C486.9104,648.408 469.4521,649.6914 457.73,634.5328 C449.6377,653.2383 436.9017,652.9788 423.7598,639.9359 C410.3253,656.2808 393.0374,656.822 383.8954,635.4045 C372.1118,651.8377 360.2948,651.1235 350.1371,633.7796 C338.7561,652.5692 323.2645,648.2602 313.1856,632.3913 C306.9492,650.0005 290.8108,648.6508 281.3436,635.7648 C267.9579,652.2141 251.0846,646.7614 243.2403,629.5012 C234.9173,648.6273 216.7602,647.9855 206.1301,631.9352 C195.2726,644.7593 179.1834,643.9743 172.4906,627.2017 C153.4009,649.615 134.2909,646.1587 125,618 C126.9485,618.5169 127.9665,620.2867 126.1812,621.9267 C108.7971,612.8569 111.2922,599.4388 125.4868,589.6888 C110.9477,580.7457 107.2876,566.1088 124.2565,556.0146 C108.0911,547.4537 106.8163,530.403 121.6243,519.6031 C105.853,509.7869 106.2152,499.4104 119.3927,487.5771 C101.6091,475.7729 104.6278,461.4865 121.8852,452.1475 C105.9351,442.0788 104.5019,431.8377 118.8046,418.9608 C103.7498,406.5739 100.5264,390.6763 121.2889,380.6095 C107.3108,370.9277 102.9542,359.4496 119.7935,348.3398 C102.6181,338.4526 106.1435,322.0485 121.5133,313.7809 C106.8371,304.6462 104.9799,288.4605 122.7198,280.501 C109.3582,271.9446 105.8386,256.2424 122.4952,247.4818 C105.9872,238.2519 107.6081,223.2815 123.4773,215.0315 C109.249,201.9244 113.2741,189.6219 128.7335,181.1157 C108.0584,167.8054 108.3112,145.1679 132,135 C135.0455,136.0005 135.8686,138.3266 133.4046,140.6877" filter="url(#fbkyxnvx45mxo)" style="stroke:#000;stroke-width:1.5"/><text x="306.5" y="152.995" fill="#000" font-family="sans-serif" font-size="14" font-weight="bold" lengthAdjust="spacing" textLength="153">Kubernetes cluster</text><polygon fill="#FFF" points="141 170 349 170 356 192.297 446 192.297 446 489 141 489 141 170" filter="url(#fbkyxnvx45mxo)" style="stroke:#000;stroke-width:1.5"/><line style="stroke:#000;stroke-width:1.5" x1="141" x2="356" y1="192.297" y2="192.297"/><text x="145" y="184.995" fill="#000" font-family="sans-serif" font-size="14" font-weight="bold" lengthAdjust="spacing" textLength="202">Sechub Server POD (1..n)</text><polygon fill="#FFF" points="308 513 452 513 459 535.297 462 535.297 462 609 308 609 308 513" filter="url(#fbkyxnvx45mxo)" style="stroke:#000;stroke-width:1.5"/><line style="stroke:#000;stroke-width:1.5" x1="308" x2="459" y1="535.297" y2="535.297"/><text x="312" y="527.995" fill="#000" font-family="sans-serif" font-size="14" font-weight="bold" lengthAdjust="spacing" textLength="138">Database POD (1)</text><polygon fill="#FFF" points="470 397 605 397 612 419.297 615 419.297 615 484 470 484 470 397" filter="url(#fbkyxnvx45mxo)" style="stroke:#000;stroke-width:1.5"/><line style="stroke:#000;stroke-width:1.5" x1="470" x2="612" y1="419.297" y2="419.297"/><text x="474" y="411.995" fill="#000" font-family="sans-serif" font-size="14" font-weight="bold" lengthAdjust="spacing" textLength="129">Shared Volumes</text><path fill="#FFF" d="M684.2048,289.4974 C693.1405,273.3081 702.6007,275.4224 713.9067,286.958 C721.3926,272.0935 736.2468,272.2479 744.8444,285.7453 C753.98,269.3877 768.0838,268.6824 779.6974,282.9227 C789.4582,270.1195 801.7486,271.5049 808.5391,286.0547 C817.496,266.5801 833.8755,270.6624 843.7324,285.1213 C850.8207,271.4042 866.0735,270.6825 874.9217,283.014 C883.1498,269.3502 897.5735,266.4624 906.189,282.6077 C916.573,266.3194 928.2765,270.4003 937.5432,283.7881 C946.3333,266.8518 960.5751,268.658 969.7279,283.4199 C979.0325,265.5091 992.8958,266.3102 1002.9795,282.6639 C1011.8745,271.2125 1024.4961,269.4424 1032.0526,284.1514 C1044.0036,266.187 1060.1331,269.6729 1067.9097,288.2479 C1077.4926,276.6921 1087.3663,276.0872 1096.3454,288.951 C1104.2961,274.8256 1118.3217,273.2074 1127.2866,287.8607 C1147.6143,294.4547 1151.0437,310.7448 1135.2403,325.0634 C1155.8483,337.9469 1150.6374,356.4364 1131.8883,366.1053 C1124.6256,383.8937 1109.7097,385.8232 1098.2772,370.3144 C1088.6004,385.1213 1076.1105,385.368 1067.4559,369.2941 C1055.637,387.6643 1043.5219,386.7833 1031.5103,369.4883 C1021.7879,384.1005 1012.3446,381.4402 1002.4271,369.7037 C992.9806,383.6763 979.0338,387.042 969.334,369.9736 C958.0634,383.484 947.0974,382.636 939.4744,366.3218 C934.0572,383.4599 919.7238,383.62 909.6765,370.9504 C896.7932,384.9245 882.7355,387.7271 872.8348,367.7171 C865.0503,381.4618 853.443,381.1362 845.719,367.6568 C836.0015,383.6215 824.6013,384.2137 813.3746,369.2343 C802.7392,382.1091 792.2863,382.3 781.7094,369.1631 C772.035,386.6285 756.8485,384.4032 746.4121,370.0073 C738.7817,384.7493 724.5743,385.9688 716.5409,370.4045 C703.1136,386.168 691.7979,381.8398 683.2036,365.4011 C661.84,358.4262 658.3411,341.3981 673.4905,325.5286 C662.454,309.3856 661.379,295.571 684.2048,289.4974" filter="url(#fbkyxnvx45mxo)" style="stroke:#000;stroke-width:1.5"/><text x="767" y="301.995" fill="#000" font-family="sans-serif" font-size="14" font-weight="bold" lengthAdjust="spacing" textLength="274">Hosted 3rdParty security products</text><rect style="stroke:#a80036;stroke-width:1.5" width="60" height="46.297" x="62" y="41" fill="#FEFECE" filter="url(#fbkyxnvx45mxo)"/><rect style="stroke:#a80036;stroke-width:1.5" width="15" height="10" x="102" y="46" fill="#FEFECE"/><rect style="stroke:#a80036;stroke-width:1.5" width="4" height="2" x="100" y="48" fill="#FEFECE"/><rect style="stroke:#a80036;stroke-width:1.5" width="4" height="2" x="100" y="52" fill="#FEFECE"/><text x="77" y="73.995" fill="#000" font-family="sans-serif" font-size="14" lengthAdjust="spacing" textLength="20">CLI</text><rect style="stroke:#a80036;stroke-width:1.5" width="105" height="46.297" x="215.5" y="205" fill="#FEFECE" filter="url(#fbkyxnvx45mxo)"/><rect style="stroke:#a80036;stroke-width:1.5" width="15" height="10" x="300.5" y="210" fill="#FEFECE"/><rect style="stroke:#a80036;stroke-width:1.5" width="4" height="2" x="298.5" y="212" fill="#FEFECE"/><rect style="stroke:#a80036;stroke-width:1.5" width="4" height="2" x="298.5" y="216" fill="#FEFECE"/><text x="230.5" y="237.995" fill="#000" font-family="sans-serif" font-size="14" lengthAdjust="spacing" textLength="65">Schedule</text><rect style="stroke:#a80036;stroke-width:1.5" width="141" height="46.297" x="288.5" y="427" fill="#FEFECE" filter="url(#fbkyxnvx45mxo)"/><rect style="stroke:#a80036;stroke-width:1.5" width="15" height="10" x="409.5" y="432" fill="#FEFECE"/><rect style="stroke:#a80036;stroke-width:1.5" width="4" height="2" x="407.5" y="434" fill="#FEFECE"/><rect style="stroke:#a80036;stroke-width:1.5" width="4" height="2" x="407.5" y="438" fill="#FEFECE"/><text x="303.5" y="459.995" fill="#000" font-family="sans-serif" font-size="14" lengthAdjust="spacing" textLength="101">Source Upload</text><rect style="stroke:#a80036;stroke-width:1.5" width="74" height="46.297" x="356" y="205" fill="#FEFECE" filter="url(#fbkyxnvx45mxo)"/><rect style="stroke:#a80036;stroke-width:1.5" width="15" height="10" x="410" y="210" fill="#FEFECE"/><rect style="stroke:#a80036;stroke-width:1.5" width="4" height="2" x="408" y="212" fill="#FEFECE"/><rect style="stroke:#a80036;stroke-width:1.5" width="4" height="2" x="408" y="216" fill="#FEFECE"/><text x="371" y="237.995" fill="#000" font-family="sans-serif" font-size="14" lengthAdjust="spacing" textLength="34">Scan</text><rect style="stroke:#a80036;stroke-width:1.5" width="87" height="46.297" x="157.5" y="311" fill="#FEFECE" filter="url(#fbkyxnvx45mxo)"/><rect style="stroke:#a80036;stroke-width:1.5" width="15" height="10" x="224.5" y="316" fill="#FEFECE"/><rect style="stroke:#a80036;stroke-width:1.5" width="4" height="2" x="222.5" y="318" fill="#FEFECE"/><rect style="stroke:#a80036;stroke-width:1.5" width="4" height="2" x="222.5" y="322" fill="#FEFECE"/><text x="172.5" y="343.995" fill="#000" font-family="sans-serif" font-size="14" lengthAdjust="spacing" textLength="47">Report</text><polygon fill="#FFF" points="157 437 167 427 253 427 253 463.297 243 473.297 157 473.297 157 437" filter="url(#fbkyxnvx45mxo)" style="stroke:#000;stroke-width:1.5"/><line style="stroke:#000;stroke-width:1.5" x1="243" x2="253" y1="437" y2="427"/><line style="stroke:#000;stroke-width:1.5" x1="157" x2="243" y1="437" y2="437"/><line style="stroke:#000;stroke-width:1.5" x1="243" x2="243" y1="437" y2="473.297"/><text x="172" y="459.995" fill="#000" font-family="sans-serif" font-size="14" lengthAdjust="spacing" textLength="56">SeReCo</text><path fill="#FFF" d="M327,558 C327,548 368,548 368,548 C368,548 409,548 409,558 L409,583.2969 C409,593.2969 368,593.2969 368,593.2969 C368,593.2969 327,593.2969 327,583.2969 L327,558" filter="url(#fbkyxnvx45mxo)" style="stroke:#000;stroke-width:1.5"/><path fill="none" d="M327,558 C327,568 368,568 368,568 C368,568 409,568 409,558" style="stroke:#000;stroke-width:1.5"/><text x="337" y="584.995" fill="#000" font-family="sans-serif" font-size="14" lengthAdjust="spacing" textLength="62">Postgres</text><rect style="stroke:#000;stroke-width:1.5" width="47" height="36.297" x="486.5" y="432" fill="#FEFECE" filter="url(#fbkyxnvx45mxo)" rx="35" ry="35"/><text x="496.5" y="454.995" fill="#000" font-family="sans-serif" font-size="14" lengthAdjust="spacing" textLength="27">NFS</text><rect style="stroke:#a80036;stroke-width:1.5" width="153" height="46.297" x="965.5" y="311" fill="#FEFECE" filter="url(#fbkyxnvx45mxo)"/><rect style="stroke:#a80036;stroke-width:1.5" width="15" height="10" x="1098.5" y="316" fill="#FEFECE"/><rect style="stroke:#a80036;stroke-width:1.5" width="4" height="2" x="1096.5" y="318" fill="#FEFECE"/><rect style="stroke:#a80036;stroke-width:1.5" width="4" height="2" x="1096.5" y="322" fill="#FEFECE"/><text x="980.5" y="343.995" fill="#000" font-family="sans-serif" font-size="14" lengthAdjust="spacing" textLength="113">Security Product</text><rect style="stroke:#a80036;stroke-width:1.5" width="52" height="46.297" x="878" y="311" fill="#FEFECE" filter="url(#fbkyxnvx45mxo)"/><rect style="stroke:#a80036;stroke-width:1.5" width="15" height="10" x="910" y="316" fill="#FEFECE"/><rect style="stroke:#a80036;stroke-width:1.5" width="4" height="2" x="908" y="318" fill="#FEFECE"/><rect style="stroke:#a80036;stroke-width:1.5" width="4" height="2" x="908" y="322" fill="#FEFECE"/><text x="893" y="343.995" fill="#000" font-family="sans-serif" font-size="14" lengthAdjust="spacing" textLength="12">...</text><rect style="stroke:#a80036;stroke-width:1.5" width="153" height="46.297" x="689.5" y="311" fill="#FEFECE" filter="url(#fbkyxnvx45mxo)"/><rect style="stroke:#a80036;stroke-width:1.5" width="15" height="10" x="822.5" y="316" fill="#FEFECE"/><rect style="stroke:#a80036;stroke-width:1.5" width="4" height="2" x="820.5" y="318" fill="#FEFECE"/><rect style="stroke:#a80036;stroke-width:1.5" width="4" height="2" x="820.5" y="322" fill="#FEFECE"/><text x="704.5" y="343.995" fill="#000" font-family="sans-serif" font-size="14" lengthAdjust="spacing" textLength="113">Security Product</text><ellipse cx="92" cy="228" fill="#FEFECE" filter="url(#fbkyxnvx45mxo)" rx="8" ry="8" style="stroke:#a80036;stroke-width:1.5"/><text x="69" y="257.995" fill="#000" font-family="sans-serif" font-size="14" lengthAdjust="spacing" textLength="46">HTTPS</text><path id="HTTPS-to-job_engine" fill="none" d="M101.28,228 C137.49,228 173.7,228 209.91,228" style="stroke:#a80036;stroke-width:1"/><polygon fill="#A80036" points="215.25 228 206.25 224 210.25 228 206.25 232 215.25 228" style="stroke:#a80036;stroke-width:1"/><path id="HTTPS-to-report_service" fill="none" d="M100.55,237.16 C116.18,252.07 149.94,284.29 174.01,307.25" style="stroke:#a80036;stroke-width:1"/><polygon fill="#A80036" points="177.78 310.85 174.022 301.746 174.16 307.401 168.505 307.539 177.78 310.85" style="stroke:#a80036;stroke-width:1"/><path id="job_engine-to-source_upload" fill="none" d="M269.15,251.31 C280,292.09 315.55,378.54 339.3,422.35" style="stroke:#a80036;stroke-width:1"/><polygon fill="#A80036" points="341.85 426.96 341 417.148 339.433 422.583 333.997 421.015 341.85 426.96" style="stroke:#a80036;stroke-width:1"/><path id="NFS-backto-source_upload" fill="none" d="M481.18,450 C464.05,450 446.91,450 429.78,450" style="stroke:#a80036;stroke-width:1"/><polygon fill="#A80036" points="486.5 450 477.5 446 481.5 450 477.5 454 486.5 450" style="stroke:#a80036;stroke-width:1"/><path id="scan_engine-to-NFS" fill="none" d="M404.86,251.31 C427.41,293.7 476.17,385.39 498.46,427.3" style="stroke:#a80036;stroke-width:1"/><polygon fill="#A80036" points="500.92 431.92 500.209 422.097 498.565 427.509 493.152 425.865 500.92 431.92" style="stroke:#a80036;stroke-width:1"/><path id="job_engine-to-scan_engine" fill="none" d="M320.73,228 C330.67,228 340.61,228 350.54,228" style="stroke:#a80036;stroke-width:1"/><polygon fill="#A80036" points="355.74 228 346.74 224 350.74 228 346.74 232 355.74 228" style="stroke:#a80036;stroke-width:1"/><path id="cli-to-HTTPS" fill="none" d="M92,87.19 C92,121.47 92,186.25 92,213.93" style="stroke:#a80036;stroke-width:1"/><polygon fill="#A80036" points="92 218.95 96 209.95 92 213.95 88 209.95 92 218.95" style="stroke:#a80036;stroke-width:1"/><path id="scan_engine-to-product1" fill="none" d="M430.27,229.07 C538.65,229.66 852.07,234.33 948,268 C972.37,276.55 996.25,293.21 1013.85,307.52" style="stroke:#a80036;stroke-width:1"/><polygon fill="#A80036" points="1017.73 310.72 1013.338 301.905 1013.875 307.536 1008.244 308.073 1017.73 310.72" style="stroke:#a80036;stroke-width:1"/><path id="scan_engine-to-productn" fill="none" d="M430.01,231.09 C479.26,234.7 568.54,244.17 641,268 C671.08,277.89 702.7,294.4 726.61,308.3" style="stroke:#a80036;stroke-width:1"/><polygon fill="#A80036" points="730.98 310.87 725.238 302.868 726.666 308.342 721.193 309.77 730.98 310.87" style="stroke:#a80036;stroke-width:1"/><path id="report_service-to-sereco" fill="none" d="M201.78,357.25 C202.43,375.69 203.35,401.98 204.04,421.69" style="stroke:#a80036;stroke-width:1"/><polygon fill="#A80036" points="204.22 426.81 207.908 417.678 204.048 421.813 199.913 417.953 204.22 426.81" style="stroke:#a80036;stroke-width:1"/><path id="sereco-to-db" fill="none" d="M235.28,473.01 C263.27,493.36 304.82,523.57 333.95,544.75" style="stroke:#a80036;stroke-width:1"/><polygon fill="#A80036" points="338.16 547.81 333.238 539.279 334.118 544.867 328.53 545.747 338.16 547.81" style="stroke:#a80036;stroke-width:1"/><path id="scan_engine-to-db" fill="none" d="M430.17,251.06 C437.71,256.22 445.36,261.98 452,268 C503.24,314.51 526.9,323.77 550,389 C566.02,434.25 576.94,457.27 550,497 C519.83,541.5 457.52,558.69 414.27,565.32" style="stroke:#a80036;stroke-width:1"/><polygon fill="#A80036" points="409.1 566.08 418.587 568.725 414.047 565.351 417.421 560.81 409.1 566.08" style="stroke:#a80036;stroke-width:1"/></g></svg>