<svg xmlns="http://www.w3.org/2000/svg" xmlns:xlink="http://www.w3.org/1999/xlink" width="417" height="212" contentScriptType="application/ecmascript" contentStyleType="text/css" style="width:417px;height:212px;background:#fff" preserveAspectRatio="none" version="1.1" viewBox="0 0 417 212" zoomAndPan="magnify"><g><line style="stroke:#a80036;stroke-width:1;stroke-dasharray:5,5" x1="47" x2="47" y1="84.297" y2="205.695"/><line style="stroke:#a80036;stroke-width:1;stroke-dasharray:5,5" x1="157" x2="157" y1="84.297" y2="205.695"/><line style="stroke:#a80036;stroke-width:1;stroke-dasharray:5,5" x1="358" x2="358" y1="84.297" y2="205.695"/><text x="5" y="80.995" fill="#000" font-family="sans-serif" font-size="14" lengthAdjust="spacing" textLength="79">UC_SIGNUP</text><ellipse cx="47.5" cy="15" fill="#FEFECE" rx="8" ry="8" style="stroke:#a80036;stroke-width:2"/><path fill="none" d="M47.5,23 L47.5,50 M34.5,31 L60.5,31 M47.5,50 L34.5,65 M47.5,50 L60.5,65" style="stroke:#a80036;stroke-width:2"/><rect style="stroke:#a80036;stroke-width:1.5" width="111" height="30.297" x="104" y="49" fill="#FEFECE"/><rect style="stroke:#a80036;stroke-width:1.5" width="111" height="30.297" x="100" y="53" fill="#FEFECE"/><text x="107" y="72.995" fill="#000" font-family="sans-serif" font-size="14" lengthAdjust="spacing" textLength="97">administration</text><rect style="stroke:#a80036;stroke-width:1.5" width="89" height="30.297" x="316" y="49" fill="#FEFECE"/><rect style="stroke:#a80036;stroke-width:1.5" width="89" height="30.297" x="312" y="53" fill="#FEFECE"/><text x="319" y="72.995" fill="#000" font-family="sans-serif" font-size="14" lengthAdjust="spacing" textLength="75">notification</text><rect style="stroke:#eee;stroke-width:1" width="410" height="3" x="0" y="114.863" fill="#EEE"/><line style="stroke:#000;stroke-width:1" x1="0" x2="410" y1="114.863" y2="114.863"/><line style="stroke:#000;stroke-width:1" x1="0" x2="410" y1="117.863" y2="117.863"/><rect style="stroke:#000;stroke-width:2" width="28" height="23.133" x="191" y="104.297" fill="#EEE"/><text x="197" y="120.364" fill="#000" font-family="sans-serif" font-size="13" font-weight="bold" lengthAdjust="spacing" textLength="9">0</text><polygon fill="#A80036" points="145.5 154.563 155.5 158.563 145.5 162.563" style="stroke:#a80036;stroke-width:1"/><line style="stroke:#a80036;stroke-width:1" x1="47.5" x2="151.5" y1="158.563" y2="158.563"/><text x="54.5" y="153.497" fill="#000" font-family="sans-serif" font-size="13" lengthAdjust="spacing" textLength="59">executed</text><line style="stroke:#a80036;stroke-width:1" x1="356.5" x2="346.5" y1="187.695" y2="183.695"/><line style="stroke:#a80036;stroke-width:1" x1="356.5" x2="346.5" y1="187.695" y2="191.695"/><line style="stroke:#a80036;stroke-width:1" x1="157.5" x2="357.5" y1="187.695" y2="187.695"/><text x="164.5" y="182.629" fill="#000" font-family="sans-serif" font-size="13" lengthAdjust="spacing" textLength="177">USER_SIGNUP_REQUESTED</text></g></svg>