<svg xmlns="http://www.w3.org/2000/svg" xmlns:xlink="http://www.w3.org/1999/xlink" width="787" height="646" contentScriptType="application/ecmascript" contentStyleType="text/css" style="width:787px;height:646px;background:#fff" preserveAspectRatio="none" version="1.1" viewBox="0 0 787 646" zoomAndPan="magnify"><g><line style="stroke:#a80036;stroke-width:1;stroke-dasharray:5,5" x1="123" x2="123" y1="84.297" y2="639.289"/><line style="stroke:#a80036;stroke-width:1;stroke-dasharray:5,5" x1="309" x2="309" y1="84.297" y2="639.289"/><line style="stroke:#a80036;stroke-width:1;stroke-dasharray:5,5" x1="423" x2="423" y1="84.297" y2="639.289"/><line style="stroke:#a80036;stroke-width:1;stroke-dasharray:5,5" x1="505" x2="505" y1="84.297" y2="639.289"/><line style="stroke:#a80036;stroke-width:1;stroke-dasharray:5,5" x1="734.5" x2="734.5" y1="84.297" y2="639.289"/><text x="5" y="80.995" fill="#000" font-family="sans-serif" font-size="14" lengthAdjust="spacing" textLength="231">UC_ADMIN_RESTARTS_JOB_HARD</text><ellipse cx="123.5" cy="15" fill="#FEFECE" rx="8" ry="8" style="stroke:#a80036;stroke-width:2"/><path fill="none" d="M123.5,23 L123.5,50 M110.5,31 L136.5,31 M123.5,50 L110.5,65 M123.5,50 L136.5,65" style="stroke:#a80036;stroke-width:2"/><rect style="stroke:#a80036;stroke-width:1.5" width="111" height="30.297" x="256" y="49" fill="#FEFECE"/><rect style="stroke:#a80036;stroke-width:1.5" width="111" height="30.297" x="252" y="53" fill="#FEFECE"/><text x="259" y="72.995" fill="#000" font-family="sans-serif" font-size="14" lengthAdjust="spacing" textLength="97">administration</text><rect style="stroke:#a80036;stroke-width:1.5" width="89" height="30.297" x="381" y="49" fill="#FEFECE"/><rect style="stroke:#a80036;stroke-width:1.5" width="89" height="30.297" x="377" y="53" fill="#FEFECE"/><text x="384" y="72.995" fill="#000" font-family="sans-serif" font-size="14" lengthAdjust="spacing" textLength="75">notification</text><rect style="stroke:#a80036;stroke-width:1.5" width="47" height="30.297" x="484" y="49" fill="#FEFECE"/><rect style="stroke:#a80036;stroke-width:1.5" width="47" height="30.297" x="480" y="53" fill="#FEFECE"/><text x="487" y="72.995" fill="#000" font-family="sans-serif" font-size="14" lengthAdjust="spacing" textLength="33">scan</text><rect style="stroke:#a80036;stroke-width:1.5" width="78" height="30.297" x="697.5" y="49" fill="#FEFECE"/><rect style="stroke:#a80036;stroke-width:1.5" width="78" height="30.297" x="693.5" y="53" fill="#FEFECE"/><text x="700.5" y="72.995" fill="#000" font-family="sans-serif" font-size="14" lengthAdjust="spacing" textLength="64">schedule</text><rect style="stroke:#eee;stroke-width:1" width="780.5" height="3" x="0" y="114.863" fill="#EEE"/><line style="stroke:#000;stroke-width:1" x1="0" x2="780.5" y1="114.863" y2="114.863"/><line style="stroke:#000;stroke-width:1" x1="0" x2="780.5" y1="117.863" y2="117.863"/><rect style="stroke:#000;stroke-width:2" width="28" height="23.133" x="376.25" y="104.297" fill="#EEE"/><text x="382.25" y="120.364" fill="#000" font-family="sans-serif" font-size="13" font-weight="bold" lengthAdjust="spacing" textLength="9">0</text><polygon fill="#A80036" points="297.5 154.563 307.5 158.563 297.5 162.563" style="stroke:#a80036;stroke-width:1"/><line style="stroke:#a80036;stroke-width:1" x1="123.5" x2="303.5" y1="158.563" y2="158.563"/><text x="130.5" y="153.497" fill="#000" font-family="sans-serif" font-size="13" lengthAdjust="spacing" textLength="59">executed</text><line style="stroke:#a80036;stroke-width:1" x1="732.5" x2="722.5" y1="187.695" y2="183.695"/><line style="stroke:#a80036;stroke-width:1" x1="732.5" x2="722.5" y1="187.695" y2="191.695"/><line style="stroke:#a80036;stroke-width:1" x1="309.5" x2="733.5" y1="187.695" y2="187.695"/><text x="316.5" y="182.629" fill="#000" font-family="sans-serif" font-size="13" lengthAdjust="spacing" textLength="196">REQUEST_JOB_RESTART_HARD</text><rect style="stroke:#eee;stroke-width:1" width="780.5" height="3" x="0" y="216.262" fill="#EEE"/><line style="stroke:#000;stroke-width:1" x1="0" x2="780.5" y1="216.262" y2="216.262"/><line style="stroke:#000;stroke-width:1" x1="0" x2="780.5" y1="219.262" y2="219.262"/><rect style="stroke:#000;stroke-width:2" width="28" height="23.133" x="376.25" y="205.695" fill="#EEE"/><text x="382.25" y="221.762" fill="#000" font-family="sans-serif" font-size="13" font-weight="bold" lengthAdjust="spacing" textLength="9">1</text><polygon fill="#A80036" points="516.5 255.961 506.5 259.961 516.5 263.961" style="stroke:#a80036;stroke-width:1"/><line style="stroke:#a80036;stroke-width:1" x1="510.5" x2="733.5" y1="259.961" y2="259.961"/><text x="522.5" y="254.895" fill="#000" font-family="sans-serif" font-size="13" lengthAdjust="spacing" textLength="205">REQUEST_PURGE_JOB_RESULTS</text><rect style="stroke:#eee;stroke-width:1" width="780.5" height="3" x="0" y="288.527" fill="#EEE"/><line style="stroke:#000;stroke-width:1" x1="0" x2="780.5" y1="288.527" y2="288.527"/><line style="stroke:#000;stroke-width:1" x1="0" x2="780.5" y1="291.527" y2="291.527"/><rect style="stroke:#000;stroke-width:2" width="28" height="23.133" x="376.25" y="277.961" fill="#EEE"/><text x="382.25" y="294.028" fill="#000" font-family="sans-serif" font-size="13" font-weight="bold" lengthAdjust="spacing" textLength="9">2</text><line style="stroke:#a80036;stroke-width:1" x1="423.5" x2="433.5" y1="332.227" y2="328.227"/><line style="stroke:#a80036;stroke-width:1" x1="423.5" x2="433.5" y1="332.227" y2="336.227"/><line style="stroke:#a80036;stroke-width:1" x1="423.5" x2="733.5" y1="332.227" y2="332.227"/><text x="440.5" y="327.161" fill="#000" font-family="sans-serif" font-size="13" lengthAdjust="spacing" textLength="164">JOB_RESTART_TRIGGERED</text><rect style="stroke:#eee;stroke-width:1" width="780.5" height="3" x="0" y="360.793" fill="#EEE"/><line style="stroke:#000;stroke-width:1" x1="0" x2="780.5" y1="360.793" y2="360.793"/><line style="stroke:#000;stroke-width:1" x1="0" x2="780.5" y1="363.793" y2="363.793"/><rect style="stroke:#000;stroke-width:2" width="28" height="23.133" x="376.25" y="350.227" fill="#EEE"/><text x="382.25" y="366.293" fill="#000" font-family="sans-serif" font-size="13" font-weight="bold" lengthAdjust="spacing" textLength="9">3</text><line style="stroke:#a80036;stroke-width:1" x1="309.5" x2="319.5" y1="404.492" y2="400.492"/><line style="stroke:#a80036;stroke-width:1" x1="309.5" x2="319.5" y1="404.492" y2="408.492"/><line style="stroke:#a80036;stroke-width:1" x1="309.5" x2="733.5" y1="404.492" y2="404.492"/><text x="326.5" y="399.426" fill="#000" font-family="sans-serif" font-size="13" lengthAdjust="spacing" textLength="87">JOB_STARTED</text><rect style="stroke:#eee;stroke-width:1" width="780.5" height="3" x="0" y="433.059" fill="#EEE"/><line style="stroke:#000;stroke-width:1" x1="0" x2="780.5" y1="433.059" y2="433.059"/><line style="stroke:#000;stroke-width:1" x1="0" x2="780.5" y1="436.059" y2="436.059"/><rect style="stroke:#000;stroke-width:2" width="28" height="23.133" x="376.25" y="422.492" fill="#EEE"/><text x="382.25" y="438.559" fill="#000" font-family="sans-serif" font-size="13" font-weight="bold" lengthAdjust="spacing" textLength="9">4</text><polygon fill="#A80036" points="516.5 472.758 506.5 476.758 516.5 480.758" style="stroke:#a80036;stroke-width:1"/><line style="stroke:#a80036;stroke-width:1" x1="510.5" x2="733.5" y1="476.758" y2="476.758"/><text x="522.5" y="471.692" fill="#000" font-family="sans-serif" font-size="13" lengthAdjust="spacing" textLength="84">START_SCAN</text><rect style="stroke:#eee;stroke-width:1" width="780.5" height="3" x="0" y="505.324" fill="#EEE"/><line style="stroke:#000;stroke-width:1" x1="0" x2="780.5" y1="505.324" y2="505.324"/><line style="stroke:#000;stroke-width:1" x1="0" x2="780.5" y1="508.324" y2="508.324"/><rect style="stroke:#000;stroke-width:2" width="28" height="23.133" x="376.25" y="494.758" fill="#EEE"/><text x="382.25" y="510.825" fill="#000" font-family="sans-serif" font-size="13" font-weight="bold" lengthAdjust="spacing" textLength="9">5</text><polygon fill="#A80036" points="722.5 545.023 732.5 549.023 722.5 553.023" style="stroke:#a80036;stroke-width:1"/><line style="stroke:#a80036;stroke-width:1" x1="505.5" x2="728.5" y1="549.023" y2="549.023"/><text x="512.5" y="543.957" fill="#000" font-family="sans-serif" font-size="13" lengthAdjust="spacing" textLength="198">REQUEST_BATCH_JOB_STATUS</text><rect style="stroke:#eee;stroke-width:1" width="780.5" height="3" x="0" y="577.59" fill="#EEE"/><line style="stroke:#000;stroke-width:1" x1="0" x2="780.5" y1="577.59" y2="577.59"/><line style="stroke:#000;stroke-width:1" x1="0" x2="780.5" y1="580.59" y2="580.59"/><rect style="stroke:#000;stroke-width:2" width="28" height="23.133" x="376.25" y="567.023" fill="#EEE"/><text x="382.25" y="583.09" fill="#000" font-family="sans-serif" font-size="13" font-weight="bold" lengthAdjust="spacing" textLength="9">6</text><line style="stroke:#a80036;stroke-width:1" x1="309.5" x2="319.5" y1="621.289" y2="617.289"/><line style="stroke:#a80036;stroke-width:1" x1="309.5" x2="319.5" y1="621.289" y2="625.289"/><line style="stroke:#a80036;stroke-width:1" x1="309.5" x2="733.5" y1="621.289" y2="621.289"/><text x="326.5" y="616.223" fill="#000" font-family="sans-serif" font-size="13" lengthAdjust="spacing" textLength="67">JOB_DONE</text></g></svg>