<svg xmlns="http://www.w3.org/2000/svg" xmlns:xlink="http://www.w3.org/1999/xlink" width="906" height="283" contentScriptType="application/ecmascript" contentStyleType="text/css" style="width:906px;height:283px;background:#fff" preserveAspectRatio="none" version="1.1" viewBox="0 0 906 283" zoomAndPan="magnify"><g><line style="stroke:#a80036;stroke-width:1;stroke-dasharray:5,5" x1="200" x2="200" y1="84.297" y2="276.961"/><line style="stroke:#a80036;stroke-width:1;stroke-dasharray:5,5" x1="462" x2="462" y1="84.297" y2="276.961"/><line style="stroke:#a80036;stroke-width:1;stroke-dasharray:5,5" x1="776" x2="776" y1="84.297" y2="276.961"/><line style="stroke:#a80036;stroke-width:1;stroke-dasharray:5,5" x1="853" x2="853" y1="84.297" y2="276.961"/><text x="5" y="80.995" fill="#000" font-family="sans-serif" font-size="14" lengthAdjust="spacing" textLength="384">UC_ADMIN_UPDATES_AUTO_CLEANUP_CONFIGURATION</text><ellipse cx="200" cy="15" fill="#FEFECE" rx="8" ry="8" style="stroke:#a80036;stroke-width:2"/><path fill="none" d="M200,23 L200,50 M187,31 L213,31 M200,50 L187,65 M200,50 L213,65" style="stroke:#a80036;stroke-width:2"/><rect style="stroke:#a80036;stroke-width:1.5" width="111" height="30.297" x="409" y="49" fill="#FEFECE"/><rect style="stroke:#a80036;stroke-width:1.5" width="111" height="30.297" x="405" y="53" fill="#FEFECE"/><text x="412" y="72.995" fill="#000" font-family="sans-serif" font-size="14" lengthAdjust="spacing" textLength="97">administration</text><rect style="stroke:#a80036;stroke-width:1.5" width="47" height="30.297" x="755" y="49" fill="#FEFECE"/><rect style="stroke:#a80036;stroke-width:1.5" width="47" height="30.297" x="751" y="53" fill="#FEFECE"/><text x="758" y="72.995" fill="#000" font-family="sans-serif" font-size="14" lengthAdjust="spacing" textLength="33">scan</text><rect style="stroke:#a80036;stroke-width:1.5" width="78" height="30.297" x="816" y="49" fill="#FEFECE"/><rect style="stroke:#a80036;stroke-width:1.5" width="78" height="30.297" x="812" y="53" fill="#FEFECE"/><text x="819" y="72.995" fill="#000" font-family="sans-serif" font-size="14" lengthAdjust="spacing" textLength="64">schedule</text><rect style="stroke:#eee;stroke-width:1" width="899" height="3" x="0" y="114.863" fill="#EEE"/><line style="stroke:#000;stroke-width:1" x1="0" x2="899" y1="114.863" y2="114.863"/><line style="stroke:#000;stroke-width:1" x1="0" x2="899" y1="117.863" y2="117.863"/><rect style="stroke:#000;stroke-width:2" width="28" height="23.133" x="435.5" y="104.297" fill="#EEE"/><text x="441.5" y="120.364" fill="#000" font-family="sans-serif" font-size="13" font-weight="bold" lengthAdjust="spacing" textLength="9">0</text><polygon fill="#A80036" points="450.5 154.563 460.5 158.563 450.5 162.563" style="stroke:#a80036;stroke-width:1"/><line style="stroke:#a80036;stroke-width:1" x1="200" x2="456.5" y1="158.563" y2="158.563"/><text x="207" y="153.497" fill="#000" font-family="sans-serif" font-size="13" lengthAdjust="spacing" textLength="59">executed</text><line style="stroke:#a80036;stroke-width:1" x1="851" x2="841" y1="187.695" y2="183.695"/><line style="stroke:#a80036;stroke-width:1" x1="851" x2="841" y1="187.695" y2="191.695"/><line style="stroke:#a80036;stroke-width:1" x1="462.5" x2="852" y1="187.695" y2="187.695"/><text x="469.5" y="182.629" fill="#000" font-family="sans-serif" font-size="13" lengthAdjust="spacing" textLength="290">AUTO_CLEANUP_CONFIGURATION_CHANGED</text><line style="stroke:#a80036;stroke-width:1" x1="462.5" x2="504.5" y1="216.828" y2="216.828"/><line style="stroke:#a80036;stroke-width:1" x1="504.5" x2="504.5" y1="216.828" y2="229.828"/><line style="stroke:#a80036;stroke-width:1" x1="463.5" x2="504.5" y1="229.828" y2="229.828"/><line style="stroke:#a80036;stroke-width:1" x1="463.5" x2="473.5" y1="229.828" y2="225.828"/><line style="stroke:#a80036;stroke-width:1" x1="463.5" x2="473.5" y1="229.828" y2="233.828"/><text x="469.5" y="211.762" fill="#000" font-family="sans-serif" font-size="13" lengthAdjust="spacing" textLength="290">AUTO_CLEANUP_CONFIGURATION_CHANGED</text><line style="stroke:#a80036;stroke-width:1" x1="774.5" x2="764.5" y1="258.961" y2="254.961"/><line style="stroke:#a80036;stroke-width:1" x1="774.5" x2="764.5" y1="258.961" y2="262.961"/><line style="stroke:#a80036;stroke-width:1" x1="462.5" x2="775.5" y1="258.961" y2="258.961"/><text x="469.5" y="253.895" fill="#000" font-family="sans-serif" font-size="13" lengthAdjust="spacing" textLength="290">AUTO_CLEANUP_CONFIGURATION_CHANGED</text></g></svg>