<svg xmlns="http://www.w3.org/2000/svg" xmlns:xlink="http://www.w3.org/1999/xlink" width="845" height="399" contentScriptType="application/ecmascript" contentStyleType="text/css" style="width:845px;height:399px;background:#fff" preserveAspectRatio="none" version="1.1" viewBox="0 0 845 399" zoomAndPan="magnify"><g><line style="stroke:#a80036;stroke-width:1;stroke-dasharray:5,5" x1="147" x2="147" y1="84.297" y2="392.359"/><line style="stroke:#a80036;stroke-width:1;stroke-dasharray:5,5" x1="357" x2="357" y1="84.297" y2="392.359"/><line style="stroke:#a80036;stroke-width:1;stroke-dasharray:5,5" x1="626.5" x2="626.5" y1="84.297" y2="392.359"/><line style="stroke:#a80036;stroke-width:1;stroke-dasharray:5,5" x1="715.5" x2="715.5" y1="84.297" y2="392.359"/><line style="stroke:#a80036;stroke-width:1;stroke-dasharray:5,5" x1="792.5" x2="792.5" y1="84.297" y2="392.359"/><text x="5" y="80.995" fill="#000" font-family="sans-serif" font-size="14" lengthAdjust="spacing" textLength="279">UC_ADMIN_ASSIGNS_USER_TO_PROJECT</text><ellipse cx="147.5" cy="15" fill="#FEFECE" rx="8" ry="8" style="stroke:#a80036;stroke-width:2"/><path fill="none" d="M147.5,23 L147.5,50 M134.5,31 L160.5,31 M147.5,50 L134.5,65 M147.5,50 L160.5,65" style="stroke:#a80036;stroke-width:2"/><rect style="stroke:#a80036;stroke-width:1.5" width="111" height="30.297" x="304" y="49" fill="#FEFECE"/><rect style="stroke:#a80036;stroke-width:1.5" width="111" height="30.297" x="300" y="53" fill="#FEFECE"/><text x="307" y="72.995" fill="#000" font-family="sans-serif" font-size="14" lengthAdjust="spacing" textLength="97">administration</text><rect style="stroke:#a80036;stroke-width:1.5" width="104" height="30.297" x="576.5" y="49" fill="#FEFECE"/><rect style="stroke:#a80036;stroke-width:1.5" width="104" height="30.297" x="572.5" y="53" fill="#FEFECE"/><text x="579.5" y="72.995" fill="#000" font-family="sans-serif" font-size="14" lengthAdjust="spacing" textLength="90">authorization</text><rect style="stroke:#a80036;stroke-width:1.5" width="47" height="30.297" x="694.5" y="49" fill="#FEFECE"/><rect style="stroke:#a80036;stroke-width:1.5" width="47" height="30.297" x="690.5" y="53" fill="#FEFECE"/><text x="697.5" y="72.995" fill="#000" font-family="sans-serif" font-size="14" lengthAdjust="spacing" textLength="33">scan</text><rect style="stroke:#a80036;stroke-width:1.5" width="78" height="30.297" x="755.5" y="49" fill="#FEFECE"/><rect style="stroke:#a80036;stroke-width:1.5" width="78" height="30.297" x="751.5" y="53" fill="#FEFECE"/><text x="758.5" y="72.995" fill="#000" font-family="sans-serif" font-size="14" lengthAdjust="spacing" textLength="64">schedule</text><rect style="stroke:#eee;stroke-width:1" width="838.5" height="3" x="0" y="114.863" fill="#EEE"/><line style="stroke:#000;stroke-width:1" x1="0" x2="838.5" y1="114.863" y2="114.863"/><line style="stroke:#000;stroke-width:1" x1="0" x2="838.5" y1="117.863" y2="117.863"/><rect style="stroke:#000;stroke-width:2" width="28" height="23.133" x="405.25" y="104.297" fill="#EEE"/><text x="411.25" y="120.364" fill="#000" font-family="sans-serif" font-size="13" font-weight="bold" lengthAdjust="spacing" textLength="9">0</text><polygon fill="#A80036" points="345.5 154.563 355.5 158.563 345.5 162.563" style="stroke:#a80036;stroke-width:1"/><line style="stroke:#a80036;stroke-width:1" x1="147.5" x2="351.5" y1="158.563" y2="158.563"/><text x="154.5" y="153.497" fill="#000" font-family="sans-serif" font-size="13" lengthAdjust="spacing" textLength="59">executed</text><line style="stroke:#a80036;stroke-width:1" x1="714" x2="704" y1="187.695" y2="183.695"/><line style="stroke:#a80036;stroke-width:1" x1="714" x2="704" y1="187.695" y2="191.695"/><line style="stroke:#a80036;stroke-width:1" x1="357.5" x2="715" y1="187.695" y2="187.695"/><text x="364.5" y="182.629" fill="#000" font-family="sans-serif" font-size="13" lengthAdjust="spacing" textLength="173">USER_ADDED_TO_PROJECT</text><line style="stroke:#a80036;stroke-width:1" x1="790.5" x2="780.5" y1="216.828" y2="212.828"/><line style="stroke:#a80036;stroke-width:1" x1="790.5" x2="780.5" y1="216.828" y2="220.828"/><line style="stroke:#a80036;stroke-width:1" x1="357.5" x2="791.5" y1="216.828" y2="216.828"/><text x="364.5" y="211.762" fill="#000" font-family="sans-serif" font-size="13" lengthAdjust="spacing" textLength="173">USER_ADDED_TO_PROJECT</text><rect style="stroke:#eee;stroke-width:1" width="838.5" height="3" x="0" y="245.394" fill="#EEE"/><line style="stroke:#000;stroke-width:1" x1="0" x2="838.5" y1="245.394" y2="245.394"/><line style="stroke:#000;stroke-width:1" x1="0" x2="838.5" y1="248.394" y2="248.394"/><rect style="stroke:#000;stroke-width:2" width="28" height="23.133" x="405.25" y="234.828" fill="#EEE"/><text x="411.25" y="250.895" fill="#000" font-family="sans-serif" font-size="13" font-weight="bold" lengthAdjust="spacing" textLength="9">1</text><line style="stroke:#a80036;stroke-width:1" x1="357.5" x2="399.5" y1="289.094" y2="289.094"/><line style="stroke:#a80036;stroke-width:1" x1="399.5" x2="399.5" y1="289.094" y2="302.094"/><line style="stroke:#a80036;stroke-width:1" x1="358.5" x2="399.5" y1="302.094" y2="302.094"/><line style="stroke:#a80036;stroke-width:1" x1="358.5" x2="368.5" y1="302.094" y2="298.094"/><line style="stroke:#a80036;stroke-width:1" x1="358.5" x2="368.5" y1="302.094" y2="306.094"/><text x="364.5" y="284.028" fill="#000" font-family="sans-serif" font-size="13" lengthAdjust="spacing" textLength="255">REQUEST_USER_ROLE_RECALCULATION</text><rect style="stroke:#eee;stroke-width:1" width="838.5" height="3" x="0" y="330.66" fill="#EEE"/><line style="stroke:#000;stroke-width:1" x1="0" x2="838.5" y1="330.66" y2="330.66"/><line style="stroke:#000;stroke-width:1" x1="0" x2="838.5" y1="333.66" y2="333.66"/><rect style="stroke:#000;stroke-width:2" width="28" height="23.133" x="405.25" y="320.094" fill="#EEE"/><text x="411.25" y="336.161" fill="#000" font-family="sans-serif" font-size="13" font-weight="bold" lengthAdjust="spacing" textLength="9">2</text><line style="stroke:#a80036;stroke-width:1" x1="624.5" x2="614.5" y1="374.359" y2="370.359"/><line style="stroke:#a80036;stroke-width:1" x1="624.5" x2="614.5" y1="374.359" y2="378.359"/><line style="stroke:#a80036;stroke-width:1" x1="357.5" x2="625.5" y1="374.359" y2="374.359"/><text x="364.5" y="369.293" fill="#000" font-family="sans-serif" font-size="13" lengthAdjust="spacing" textLength="157">USER_ROLES_CHANGED</text></g></svg>