<svg xmlns="http://www.w3.org/2000/svg" xmlns:xlink="http://www.w3.org/1999/xlink" width="907" height="314" contentScriptType="application/ecmascript" contentStyleType="text/css" style="width:907px;height:314px;background:#fff" preserveAspectRatio="none" version="1.1" viewBox="0 0 907 314" zoomAndPan="magnify"><g><line style="stroke:#a80036;stroke-width:1;stroke-dasharray:5,5" x1="191" x2="191" y1="84.297" y2="307.094"/><line style="stroke:#a80036;stroke-width:1;stroke-dasharray:5,5" x1="445" x2="445" y1="84.297" y2="307.094"/><line style="stroke:#a80036;stroke-width:1;stroke-dasharray:5,5" x1="559" x2="559" y1="84.297" y2="307.094"/><line style="stroke:#a80036;stroke-width:1;stroke-dasharray:5,5" x1="854.5" x2="854.5" y1="84.297" y2="307.094"/><text x="5" y="80.995" fill="#000" font-family="sans-serif" font-size="14" lengthAdjust="spacing" textLength="367">UC_ADMIN_DISABLES_SCHEDULER_JOB_PROCESSING</text><ellipse cx="191.5" cy="15" fill="#FEFECE" rx="8" ry="8" style="stroke:#a80036;stroke-width:2"/><path fill="none" d="M191.5,23 L191.5,50 M178.5,31 L204.5,31 M191.5,50 L178.5,65 M191.5,50 L204.5,65" style="stroke:#a80036;stroke-width:2"/><rect style="stroke:#a80036;stroke-width:1.5" width="111" height="30.297" x="392" y="49" fill="#FEFECE"/><rect style="stroke:#a80036;stroke-width:1.5" width="111" height="30.297" x="388" y="53" fill="#FEFECE"/><text x="395" y="72.995" fill="#000" font-family="sans-serif" font-size="14" lengthAdjust="spacing" textLength="97">administration</text><rect style="stroke:#a80036;stroke-width:1.5" width="89" height="30.297" x="517" y="49" fill="#FEFECE"/><rect style="stroke:#a80036;stroke-width:1.5" width="89" height="30.297" x="513" y="53" fill="#FEFECE"/><text x="520" y="72.995" fill="#000" font-family="sans-serif" font-size="14" lengthAdjust="spacing" textLength="75">notification</text><rect style="stroke:#a80036;stroke-width:1.5" width="78" height="30.297" x="817.5" y="49" fill="#FEFECE"/><rect style="stroke:#a80036;stroke-width:1.5" width="78" height="30.297" x="813.5" y="53" fill="#FEFECE"/><text x="820.5" y="72.995" fill="#000" font-family="sans-serif" font-size="14" lengthAdjust="spacing" textLength="64">schedule</text><rect style="stroke:#eee;stroke-width:1" width="900.5" height="3" x="0" y="114.863" fill="#EEE"/><line style="stroke:#000;stroke-width:1" x1="0" x2="900.5" y1="114.863" y2="114.863"/><line style="stroke:#000;stroke-width:1" x1="0" x2="900.5" y1="117.863" y2="117.863"/><rect style="stroke:#000;stroke-width:2" width="28" height="23.133" x="436.25" y="104.297" fill="#EEE"/><text x="442.25" y="120.364" fill="#000" font-family="sans-serif" font-size="13" font-weight="bold" lengthAdjust="spacing" textLength="9">0</text><polygon fill="#A80036" points="433.5 154.563 443.5 158.563 433.5 162.563" style="stroke:#a80036;stroke-width:1"/><line style="stroke:#a80036;stroke-width:1" x1="191.5" x2="439.5" y1="158.563" y2="158.563"/><text x="198.5" y="153.497" fill="#000" font-family="sans-serif" font-size="13" lengthAdjust="spacing" textLength="59">executed</text><line style="stroke:#a80036;stroke-width:1" x1="852.5" x2="842.5" y1="187.695" y2="183.695"/><line style="stroke:#a80036;stroke-width:1" x1="852.5" x2="842.5" y1="187.695" y2="191.695"/><line style="stroke:#a80036;stroke-width:1" x1="445.5" x2="853.5" y1="187.695" y2="187.695"/><text x="452.5" y="182.629" fill="#000" font-family="sans-serif" font-size="13" lengthAdjust="spacing" textLength="328">REQUEST_SCHEDULER_DISABLE_JOB_PROCESSING</text><rect style="stroke:#eee;stroke-width:1" width="900.5" height="3" x="0" y="216.262" fill="#EEE"/><line style="stroke:#000;stroke-width:1" x1="0" x2="900.5" y1="216.262" y2="216.262"/><line style="stroke:#000;stroke-width:1" x1="0" x2="900.5" y1="219.262" y2="219.262"/><rect style="stroke:#000;stroke-width:2" width="28" height="23.133" x="436.25" y="205.695" fill="#EEE"/><text x="442.25" y="221.762" fill="#000" font-family="sans-serif" font-size="13" font-weight="bold" lengthAdjust="spacing" textLength="9">1</text><line style="stroke:#a80036;stroke-width:1" x1="445.5" x2="455.5" y1="259.961" y2="255.961"/><line style="stroke:#a80036;stroke-width:1" x1="445.5" x2="455.5" y1="259.961" y2="263.961"/><line style="stroke:#a80036;stroke-width:1" x1="445.5" x2="853.5" y1="259.961" y2="259.961"/><text x="462.5" y="254.895" fill="#000" font-family="sans-serif" font-size="13" lengthAdjust="spacing" textLength="271">SCHEDULER_JOB_PROCESSING_DISABLED</text><line style="stroke:#a80036;stroke-width:1" x1="559.5" x2="569.5" y1="289.094" y2="285.094"/><line style="stroke:#a80036;stroke-width:1" x1="559.5" x2="569.5" y1="289.094" y2="293.094"/><line style="stroke:#a80036;stroke-width:1" x1="559.5" x2="853.5" y1="289.094" y2="289.094"/><text x="576.5" y="284.028" fill="#000" font-family="sans-serif" font-size="13" lengthAdjust="spacing" textLength="271">SCHEDULER_JOB_PROCESSING_DISABLED</text></g></svg>