<svg xmlns="http://www.w3.org/2000/svg" xmlns:xlink="http://www.w3.org/1999/xlink" width="729" height="429" contentScriptType="application/ecmascript" contentStyleType="text/css" style="width:729px;height:429px;background:#fff" preserveAspectRatio="none" version="1.1" viewBox="0 0 729 429" zoomAndPan="magnify"><g><line style="stroke:#a80036;stroke-width:1;stroke-dasharray:5,5" x1="109" x2="109" y1="84.297" y2="422.492"/><line style="stroke:#a80036;stroke-width:1;stroke-dasharray:5,5" x1="281" x2="281" y1="84.297" y2="422.492"/><line style="stroke:#a80036;stroke-width:1;stroke-dasharray:5,5" x1="560.5" x2="560.5" y1="84.297" y2="422.492"/><line style="stroke:#a80036;stroke-width:1;stroke-dasharray:5,5" x1="670.5" x2="670.5" y1="84.297" y2="422.492"/><text x="5" y="80.995" fill="#000" font-family="sans-serif" font-size="14" lengthAdjust="spacing" textLength="203">UC_ADMIN_ACCEPTS_SIGNUP</text><ellipse cx="109.5" cy="15" fill="#FEFECE" rx="8" ry="8" style="stroke:#a80036;stroke-width:2"/><path fill="none" d="M109.5,23 L109.5,50 M96.5,31 L122.5,31 M109.5,50 L96.5,65 M109.5,50 L122.5,65" style="stroke:#a80036;stroke-width:2"/><rect style="stroke:#a80036;stroke-width:1.5" width="111" height="30.297" x="228" y="49" fill="#FEFECE"/><rect style="stroke:#a80036;stroke-width:1.5" width="111" height="30.297" x="224" y="53" fill="#FEFECE"/><text x="231" y="72.995" fill="#000" font-family="sans-serif" font-size="14" lengthAdjust="spacing" textLength="97">administration</text><rect style="stroke:#a80036;stroke-width:1.5" width="104" height="30.297" x="510.5" y="49" fill="#FEFECE"/><rect style="stroke:#a80036;stroke-width:1.5" width="104" height="30.297" x="506.5" y="53" fill="#FEFECE"/><text x="513.5" y="72.995" fill="#000" font-family="sans-serif" font-size="14" lengthAdjust="spacing" textLength="90">authorization</text><rect style="stroke:#a80036;stroke-width:1.5" width="89" height="30.297" x="628.5" y="49" fill="#FEFECE"/><rect style="stroke:#a80036;stroke-width:1.5" width="89" height="30.297" x="624.5" y="53" fill="#FEFECE"/><text x="631.5" y="72.995" fill="#000" font-family="sans-serif" font-size="14" lengthAdjust="spacing" textLength="75">notification</text><rect style="stroke:#eee;stroke-width:1" width="722.5" height="3" x="0" y="114.863" fill="#EEE"/><line style="stroke:#000;stroke-width:1" x1="0" x2="722.5" y1="114.863" y2="114.863"/><line style="stroke:#000;stroke-width:1" x1="0" x2="722.5" y1="117.863" y2="117.863"/><rect style="stroke:#000;stroke-width:2" width="28" height="23.133" x="347.25" y="104.297" fill="#EEE"/><text x="353.25" y="120.364" fill="#000" font-family="sans-serif" font-size="13" font-weight="bold" lengthAdjust="spacing" textLength="9">0</text><polygon fill="#A80036" points="269.5 154.563 279.5 158.563 269.5 162.563" style="stroke:#a80036;stroke-width:1"/><line style="stroke:#a80036;stroke-width:1" x1="109.5" x2="275.5" y1="158.563" y2="158.563"/><text x="116.5" y="153.497" fill="#000" font-family="sans-serif" font-size="13" lengthAdjust="spacing" textLength="59">executed</text><line style="stroke:#a80036;stroke-width:1" x1="669" x2="659" y1="187.695" y2="183.695"/><line style="stroke:#a80036;stroke-width:1" x1="669" x2="659" y1="187.695" y2="191.695"/><line style="stroke:#a80036;stroke-width:1" x1="281.5" x2="670" y1="187.695" y2="187.695"/><text x="288.5" y="182.629" fill="#000" font-family="sans-serif" font-size="13" lengthAdjust="spacing" textLength="233">USER_NEW_API_TOKEN_REQUESTED</text><rect style="stroke:#eee;stroke-width:1" width="722.5" height="3" x="0" y="216.262" fill="#EEE"/><line style="stroke:#000;stroke-width:1" x1="0" x2="722.5" y1="216.262" y2="216.262"/><line style="stroke:#000;stroke-width:1" x1="0" x2="722.5" y1="219.262" y2="219.262"/><rect style="stroke:#000;stroke-width:2" width="28" height="23.133" x="347.25" y="205.695" fill="#EEE"/><text x="353.25" y="221.762" fill="#000" font-family="sans-serif" font-size="13" font-weight="bold" lengthAdjust="spacing" textLength="9">1</text><line style="stroke:#a80036;stroke-width:1" x1="558.5" x2="548.5" y1="259.961" y2="255.961"/><line style="stroke:#a80036;stroke-width:1" x1="558.5" x2="548.5" y1="259.961" y2="263.961"/><line style="stroke:#a80036;stroke-width:1" x1="281.5" x2="559.5" y1="259.961" y2="259.961"/><text x="288.5" y="254.895" fill="#000" font-family="sans-serif" font-size="13" lengthAdjust="spacing" textLength="101">USER_CREATED</text><rect style="stroke:#eee;stroke-width:1" width="722.5" height="3" x="0" y="288.527" fill="#EEE"/><line style="stroke:#000;stroke-width:1" x1="0" x2="722.5" y1="288.527" y2="288.527"/><line style="stroke:#000;stroke-width:1" x1="0" x2="722.5" y1="291.527" y2="291.527"/><rect style="stroke:#000;stroke-width:2" width="28" height="23.133" x="347.25" y="277.961" fill="#EEE"/><text x="353.25" y="294.028" fill="#000" font-family="sans-serif" font-size="13" font-weight="bold" lengthAdjust="spacing" textLength="9">2</text><line style="stroke:#a80036;stroke-width:1" x1="281.5" x2="291.5" y1="332.227" y2="328.227"/><line style="stroke:#a80036;stroke-width:1" x1="281.5" x2="291.5" y1="332.227" y2="336.227"/><line style="stroke:#a80036;stroke-width:1" x1="281.5" x2="559.5" y1="332.227" y2="332.227"/><text x="298.5" y="327.161" fill="#000" font-family="sans-serif" font-size="13" lengthAdjust="spacing" textLength="255">REQUEST_USER_ROLE_RECALCULATION</text><rect style="stroke:#eee;stroke-width:1" width="722.5" height="3" x="0" y="360.793" fill="#EEE"/><line style="stroke:#000;stroke-width:1" x1="0" x2="722.5" y1="360.793" y2="360.793"/><line style="stroke:#000;stroke-width:1" x1="0" x2="722.5" y1="363.793" y2="363.793"/><rect style="stroke:#000;stroke-width:2" width="28" height="23.133" x="347.25" y="350.227" fill="#EEE"/><text x="353.25" y="366.293" fill="#000" font-family="sans-serif" font-size="13" font-weight="bold" lengthAdjust="spacing" textLength="9">3</text><line style="stroke:#a80036;stroke-width:1" x1="558.5" x2="548.5" y1="404.492" y2="400.492"/><line style="stroke:#a80036;stroke-width:1" x1="558.5" x2="548.5" y1="404.492" y2="408.492"/><line style="stroke:#a80036;stroke-width:1" x1="281.5" x2="559.5" y1="404.492" y2="404.492"/><text x="288.5" y="399.426" fill="#000" font-family="sans-serif" font-size="13" lengthAdjust="spacing" textLength="157">USER_ROLES_CHANGED</text></g></svg>