<svg xmlns="http://www.w3.org/2000/svg" xmlns:xlink="http://www.w3.org/1999/xlink" width="662" height="284" contentScriptType="application/ecmascript" contentStyleType="text/css" style="width:662px;height:284px;background:#fff" preserveAspectRatio="none" version="1.1" viewBox="0 0 662 284" zoomAndPan="magnify"><g><line style="stroke:#a80036;stroke-width:1;stroke-dasharray:5,5" x1="123" x2="123" y1="84.297" y2="277.961"/><line style="stroke:#a80036;stroke-width:1;stroke-dasharray:5,5" x1="309" x2="309" y1="84.297" y2="277.961"/><line style="stroke:#a80036;stroke-width:1;stroke-dasharray:5,5" x1="423" x2="423" y1="84.297" y2="277.961"/><line style="stroke:#a80036;stroke-width:1;stroke-dasharray:5,5" x1="609.5" x2="609.5" y1="84.297" y2="277.961"/><text x="5" y="80.995" fill="#000" font-family="sans-serif" font-size="14" lengthAdjust="spacing" textLength="231">UC_ADMIN_RESTARTS_JOB_HARD</text><ellipse cx="123.5" cy="15" fill="#FEFECE" rx="8" ry="8" style="stroke:#a80036;stroke-width:2"/><path fill="none" d="M123.5,23 L123.5,50 M110.5,31 L136.5,31 M123.5,50 L110.5,65 M123.5,50 L136.5,65" style="stroke:#a80036;stroke-width:2"/><rect style="stroke:#a80036;stroke-width:1.5" width="111" height="30.297" x="256" y="49" fill="#FEFECE"/><rect style="stroke:#a80036;stroke-width:1.5" width="111" height="30.297" x="252" y="53" fill="#FEFECE"/><text x="259" y="72.995" fill="#000" font-family="sans-serif" font-size="14" lengthAdjust="spacing" textLength="97">administration</text><rect style="stroke:#a80036;stroke-width:1.5" width="89" height="30.297" x="381" y="49" fill="#FEFECE"/><rect style="stroke:#a80036;stroke-width:1.5" width="89" height="30.297" x="377" y="53" fill="#FEFECE"/><text x="384" y="72.995" fill="#000" font-family="sans-serif" font-size="14" lengthAdjust="spacing" textLength="75">notification</text><rect style="stroke:#a80036;stroke-width:1.5" width="78" height="30.297" x="572.5" y="49" fill="#FEFECE"/><rect style="stroke:#a80036;stroke-width:1.5" width="78" height="30.297" x="568.5" y="53" fill="#FEFECE"/><text x="575.5" y="72.995" fill="#000" font-family="sans-serif" font-size="14" lengthAdjust="spacing" textLength="64">schedule</text><rect style="stroke:#eee;stroke-width:1" width="655.5" height="3" x="0" y="114.863" fill="#EEE"/><line style="stroke:#000;stroke-width:1" x1="0" x2="655.5" y1="114.863" y2="114.863"/><line style="stroke:#000;stroke-width:1" x1="0" x2="655.5" y1="117.863" y2="117.863"/><rect style="stroke:#000;stroke-width:2" width="28" height="23.133" x="313.75" y="104.297" fill="#EEE"/><text x="319.75" y="120.364" fill="#000" font-family="sans-serif" font-size="13" font-weight="bold" lengthAdjust="spacing" textLength="9">0</text><polygon fill="#A80036" points="297.5 154.563 307.5 158.563 297.5 162.563" style="stroke:#a80036;stroke-width:1"/><line style="stroke:#a80036;stroke-width:1" x1="123.5" x2="303.5" y1="158.563" y2="158.563"/><text x="130.5" y="153.497" fill="#000" font-family="sans-serif" font-size="13" lengthAdjust="spacing" textLength="59">executed</text><line style="stroke:#a80036;stroke-width:1" x1="607.5" x2="597.5" y1="187.695" y2="183.695"/><line style="stroke:#a80036;stroke-width:1" x1="607.5" x2="597.5" y1="187.695" y2="191.695"/><line style="stroke:#a80036;stroke-width:1" x1="309.5" x2="608.5" y1="187.695" y2="187.695"/><text x="316.5" y="182.629" fill="#000" font-family="sans-serif" font-size="13" lengthAdjust="spacing" textLength="196">REQUEST_JOB_RESTART_HARD</text><rect style="stroke:#eee;stroke-width:1" width="655.5" height="3" x="0" y="216.262" fill="#EEE"/><line style="stroke:#000;stroke-width:1" x1="0" x2="655.5" y1="216.262" y2="216.262"/><line style="stroke:#000;stroke-width:1" x1="0" x2="655.5" y1="219.262" y2="219.262"/><rect style="stroke:#000;stroke-width:2" width="28" height="23.133" x="313.75" y="205.695" fill="#EEE"/><text x="319.75" y="221.762" fill="#000" font-family="sans-serif" font-size="13" font-weight="bold" lengthAdjust="spacing" textLength="9">1</text><line style="stroke:#a80036;stroke-width:1" x1="423.5" x2="433.5" y1="259.961" y2="255.961"/><line style="stroke:#a80036;stroke-width:1" x1="423.5" x2="433.5" y1="259.961" y2="263.961"/><line style="stroke:#a80036;stroke-width:1" x1="423.5" x2="608.5" y1="259.961" y2="259.961"/><text x="440.5" y="254.895" fill="#000" font-family="sans-serif" font-size="13" lengthAdjust="spacing" textLength="162">JOB_RESTART_CANCELED</text></g></svg>