<svg xmlns="http://www.w3.org/2000/svg" xmlns:xlink="http://www.w3.org/1999/xlink" width="485" height="397" contentScriptType="application/ecmascript" contentStyleType="text/css" style="width:485px;height:397px;background:#fff" preserveAspectRatio="none" version="1.1" viewBox="0 0 485 397" zoomAndPan="magnify"><g><text x="9" y="28.708" fill="#000" font-family="sans-serif" font-size="18" lengthAdjust="spacing" text-decoration="underline" textLength="201">Communication details</text><text x="222" y="28.708" fill="#000" font-family="sans-serif" font-size="18" lengthAdjust="spacing" textLength="17">of</text><text x="245" y="28.708" fill="#000" font-family="sans-serif" font-size="18" font-weight="bold" lengthAdjust="spacing" textLength="224">message START_SCAN</text><rect style="stroke:#a80036;stroke-width:1" width="223" height="343.906" x="114.5" y="40.953" fill="#C8C8CF"/><text x="193" y="53.02" fill="#000" font-family="sans-serif" font-size="13" font-weight="bold" lengthAdjust="spacing" textLength="66">schedule</text><rect style="stroke:#a80036;stroke-width:1" width="106" height="343.906" x="339.5" y="40.953" fill="#F8F8FF"/><text x="375.5" y="53.02" fill="#000" font-family="sans-serif" font-size="13" font-weight="bold" lengthAdjust="spacing" textLength="34">scan</text><rect style="stroke:#000;stroke-width:2" width="425" height="178.078" x="26.5" y="166.648" fill="#FFF"/><rect style="stroke:none;stroke-width:1" width="425" height="43.938" x="26.5" y="212.914" fill="#FFF"/><rect style="stroke:none;stroke-width:1" width="425" height="43.938" x="26.5" y="256.852" fill="#FFF"/><rect style="stroke:none;stroke-width:1" width="425" height="43.938" x="26.5" y="300.789" fill="#FFF"/><line style="stroke:#a80036;stroke-width:1;stroke-dasharray:5,5" x1="72.5" x2="72.5" y1="91.383" y2="390.859"/><line style="stroke:#a80036;stroke-width:1;stroke-dasharray:5,5" x1="225.5" x2="225.5" y1="91.383" y2="390.859"/><line style="stroke:#a80036;stroke-width:1;stroke-dasharray:5,5" x1="392.5" x2="392.5" y1="91.383" y2="390.859"/><text x="36.5" y="88.081" fill="#000" font-family="sans-serif" font-size="14" lengthAdjust="spacing" textLength="66">EventBus</text><ellipse cx="72.5" cy="59.086" fill="#FEFECE" rx="12" ry="12" style="stroke:#a80036;stroke-width:2"/><polygon fill="#A80036" points="68.5 47.086 74.5 42.086 72.5 47.086 74.5 52.086 68.5 47.086" style="stroke:#a80036;stroke-width:1"/><rect style="stroke:#a80036;stroke-width:1.5" width="215" height="30.297" x="118.5" y="60.086" fill="#FEFECE"/><text x="125.5" y="80.081" fill="#000" font-family="sans-serif" font-size="14" lengthAdjust="spacing" textLength="201">SynchronSecHubJobExecutor</text><rect style="stroke:#a80036;stroke-width:1.5" width="98" height="30.297" x="343.5" y="60.086" fill="#FEFECE"/><text x="350.5" y="80.081" fill="#000" font-family="sans-serif" font-size="14" lengthAdjust="spacing" textLength="84">ScanService</text><polygon fill="#A80036" points="83.5 118.516 73.5 122.516 83.5 126.516" style="stroke:#a80036;stroke-width:1"/><line style="stroke:#a80036;stroke-width:1" x1="77.5" x2="225" y1="122.516" y2="122.516"/><text x="89.5" y="117.45" fill="#000" font-family="sans-serif" font-size="13" font-weight="bold" lengthAdjust="spacing" textLength="9">1</text><text x="102.5" y="117.45" fill="#000" font-family="sans-serif" font-size="13" lengthAdjust="spacing" textLength="84">START_SCAN</text><polygon fill="#A80036" points="380.5 147.648 390.5 151.648 380.5 155.648" style="stroke:#a80036;stroke-width:1"/><line style="stroke:#a80036;stroke-width:1" x1="72.5" x2="386.5" y1="151.648" y2="151.648"/><text x="79.5" y="146.583" fill="#000" font-family="sans-serif" font-size="13" font-weight="bold" lengthAdjust="spacing" textLength="9">2</text><text x="92.5" y="146.583" fill="#000" font-family="sans-serif" font-size="13" lengthAdjust="spacing" textLength="84">START_SCAN</text><path fill="#EEE" d="M26.5,166.6484 L90.5,166.6484 L90.5,173.6484 L80.5,183.6484 L26.5,183.6484 L26.5,166.6484" style="stroke:#000;stroke-width:1"/><rect style="stroke:#000;stroke-width:2" width="425" height="178.078" x="26.5" y="166.648" fill="none"/><text x="41.5" y="179.715" fill="#000" font-family="sans-serif" font-size="13" font-weight="bold" lengthAdjust="spacing" textLength="19">alt</text><text x="105.5" y="178.859" fill="#000" font-family="sans-serif" font-size="11" font-weight="bold" lengthAdjust="spacing" textLength="52">[failure]</text><polygon fill="#A80036" points="83.5 200.914 73.5 204.914 83.5 208.914" style="stroke:#a80036;stroke-width:1"/><line style="stroke:#a80036;stroke-width:1" x1="77.5" x2="391.5" y1="204.914" y2="204.914"/><text x="89.5" y="199.848" fill="#000" font-family="sans-serif" font-size="13" font-weight="bold" lengthAdjust="spacing" textLength="9">3</text><text x="102.5" y="199.848" fill="#000" font-family="sans-serif" font-size="13" lengthAdjust="spacing" textLength="178">UNSUPPORTED_OPERATION</text><line style="stroke:#000;stroke-width:1;stroke-dasharray:2,2" x1="26.5" x2="451.5" y1="213.914" y2="213.914"/><text x="31.5" y="224.125" fill="#000" font-family="sans-serif" font-size="11" font-weight="bold" lengthAdjust="spacing" textLength="61">[success]</text><polygon fill="#A80036" points="83.5 244.852 73.5 248.852 83.5 252.852" style="stroke:#a80036;stroke-width:1"/><line style="stroke:#a80036;stroke-width:1" x1="77.5" x2="391.5" y1="248.852" y2="248.852"/><text x="89.5" y="243.786" fill="#000" font-family="sans-serif" font-size="13" font-weight="bold" lengthAdjust="spacing" textLength="9">4</text><text x="102.5" y="243.786" fill="#000" font-family="sans-serif" font-size="13" lengthAdjust="spacing" textLength="82">SCAN_DONE</text><line style="stroke:#000;stroke-width:1;stroke-dasharray:2,2" x1="26.5" x2="451.5" y1="257.852" y2="257.852"/><text x="31.5" y="268.062" fill="#000" font-family="sans-serif" font-size="11" font-weight="bold" lengthAdjust="spacing" textLength="52">[failure]</text><polygon fill="#A80036" points="83.5 288.789 73.5 292.789 83.5 296.789" style="stroke:#a80036;stroke-width:1"/><line style="stroke:#a80036;stroke-width:1" x1="77.5" x2="391.5" y1="292.789" y2="292.789"/><text x="89.5" y="287.723" fill="#000" font-family="sans-serif" font-size="13" font-weight="bold" lengthAdjust="spacing" textLength="9">5</text><text x="102.5" y="287.723" fill="#000" font-family="sans-serif" font-size="13" lengthAdjust="spacing" textLength="88">SCAN_FAILED</text><line style="stroke:#000;stroke-width:1;stroke-dasharray:2,2" x1="26.5" x2="451.5" y1="301.789" y2="301.789"/><text x="31.5" y="312" fill="#000" font-family="sans-serif" font-size="11" font-weight="bold" lengthAdjust="spacing" textLength="52">[failure]</text><polygon fill="#A80036" points="83.5 332.727 73.5 336.727 83.5 340.727" style="stroke:#a80036;stroke-width:1"/><line style="stroke:#a80036;stroke-width:1" x1="77.5" x2="391.5" y1="336.727" y2="336.727"/><text x="89.5" y="331.661" fill="#000" font-family="sans-serif" font-size="13" font-weight="bold" lengthAdjust="spacing" textLength="9">6</text><text x="102.5" y="331.661" fill="#000" font-family="sans-serif" font-size="13" lengthAdjust="spacing" textLength="139">SCAN_ABANDONDED</text><polygon fill="#A80036" points="214 368.859 224 372.859 214 376.859" style="stroke:#a80036;stroke-width:1"/><line style="stroke:#a80036;stroke-width:1;stroke-dasharray:2,2" x1="72.5" x2="220" y1="372.859" y2="372.859"/><text x="79.5" y="367.793" fill="#000" font-family="sans-serif" font-size="13" font-weight="bold" lengthAdjust="spacing" textLength="9">7</text></g></svg>