<svg xmlns="http://www.w3.org/2000/svg" xmlns:xlink="http://www.w3.org/1999/xlink" width="1396" height="271" contentScriptType="application/ecmascript" contentStyleType="text/css" style="width:1396px;height:271px;background:#fff" preserveAspectRatio="none" version="1.1" viewBox="0 0 1396 271" zoomAndPan="magnify"><defs><filter id="f13l6kr4kjsfdi" width="300%" height="300%" x="-1" y="-1"><feGaussianBlur result="blurOut" stdDeviation="2"/><feColorMatrix in="blurOut" result="blurOut2" type="matrix" values="0 0 0 0 0 0 0 0 0 0 0 0 0 0 0 0 0 0 .4 0"/><feOffset dx="4" dy="4" in="blurOut2" result="blurOut3"/><feBlend in="SourceGraphic" in2="blurOut3" mode="normal"/></filter></defs><g><polygon fill="#FFF" points="16 77.57 163 77.57 170 99.867 190 99.867 190 174.57 16 174.57 16 77.57" filter="url(#f13l6kr4kjsfdi)" style="stroke:#000;stroke-width:1.5"/><line style="stroke:#000;stroke-width:1.5" x1="16" x2="170" y1="99.867" y2="99.867"/><text x="20" y="92.565" fill="#000" font-family="sans-serif" font-size="14" font-weight="bold" lengthAdjust="spacing" textLength="141">&lt;integrationtest&gt;</text><polygon fill="#FEFECE" points="32.5 122.57 42.5 112.57 173.5 112.57 173.5 148.867 163.5 158.867 32.5 158.867 32.5 122.57" filter="url(#f13l6kr4kjsfdi)" style="stroke:#000;stroke-width:1.5"/><line style="stroke:#000;stroke-width:1.5" x1="163.5" x2="173.5" y1="122.57" y2="112.57"/><line style="stroke:#000;stroke-width:1.5" x1="32.5" x2="163.5" y1="122.57" y2="122.57"/><line style="stroke:#000;stroke-width:1.5" x1="163.5" x2="163.5" y1="122.57" y2="158.867"/><text x="47.5" y="145.565" fill="#000" font-family="sans-serif" font-size="14" lengthAdjust="spacing" textLength="101">integrationtest</text><polygon fill="#FEFECE" points="209 122.57 219 112.57 323 112.57 323 148.867 313 158.867 209 158.867 209 122.57" filter="url(#f13l6kr4kjsfdi)" style="stroke:#000;stroke-width:1.5"/><line style="stroke:#000;stroke-width:1.5" x1="313" x2="323" y1="122.57" y2="112.57"/><line style="stroke:#000;stroke-width:1.5" x1="209" x2="313" y1="122.57" y2="122.57"/><line style="stroke:#000;stroke-width:1.5" x1="313" x2="313" y1="122.57" y2="158.867"/><text x="224" y="145.565" fill="#000" font-family="sans-serif" font-size="14" lengthAdjust="spacing" textLength="74">localserver</text><polygon fill="#FEFECE" points="358.5 122.57 368.5 112.57 525.5 112.57 525.5 148.867 515.5 158.867 358.5 158.867 358.5 122.57" filter="url(#f13l6kr4kjsfdi)" style="stroke:#000;stroke-width:1.5"/><line style="stroke:#000;stroke-width:1.5" x1="515.5" x2="525.5" y1="122.57" y2="112.57"/><line style="stroke:#000;stroke-width:1.5" x1="358.5" x2="515.5" y1="122.57" y2="122.57"/><line style="stroke:#000;stroke-width:1.5" x1="515.5" x2="515.5" y1="122.57" y2="158.867"/><text x="373.5" y="145.565" fill="#000" font-family="sans-serif" font-size="14" lengthAdjust="spacing" textLength="127">initial_admin_static</text><polygon fill="#FEFECE" points="560 122.57 570 112.57 746 112.57 746 148.867 736 158.867 560 158.867 560 122.57" filter="url(#f13l6kr4kjsfdi)" style="stroke:#000;stroke-width:1.5"/><line style="stroke:#000;stroke-width:1.5" x1="736" x2="746" y1="122.57" y2="112.57"/><line style="stroke:#000;stroke-width:1.5" x1="560" x2="736" y1="122.57" y2="122.57"/><line style="stroke:#000;stroke-width:1.5" x1="736" x2="736" y1="122.57" y2="158.867"/><text x="575" y="145.565" fill="#000" font-family="sans-serif" font-size="14" lengthAdjust="spacing" textLength="146">mocked_notifications</text><polygon fill="#FEFECE" points="1076.5 122.57 1086.5 112.57 1241.5 112.57 1241.5 148.867 1231.5 158.867 1076.5 158.867 1076.5 122.57" filter="url(#f13l6kr4kjsfdi)" style="stroke:#000;stroke-width:1.5"/><line style="stroke:#000;stroke-width:1.5" x1="1231.5" x2="1241.5" y1="122.57" y2="112.57"/><line style="stroke:#000;stroke-width:1.5" x1="1076.5" x2="1231.5" y1="122.57" y2="122.57"/><line style="stroke:#000;stroke-width:1.5" x1="1231.5" x2="1231.5" y1="122.57" y2="158.867"/><text x="1091.5" y="145.565" fill="#000" font-family="sans-serif" font-size="14" lengthAdjust="spacing" textLength="125">mocked_products</text><polygon fill="#FEFECE" points="954.5 122.57 964.5 112.57 1041.5 112.57 1041.5 148.867 1031.5 158.867 954.5 158.867 954.5 122.57" filter="url(#f13l6kr4kjsfdi)" style="stroke:#000;stroke-width:1.5"/><line style="stroke:#000;stroke-width:1.5" x1="1031.5" x2="1041.5" y1="122.57" y2="112.57"/><line style="stroke:#000;stroke-width:1.5" x1="954.5" x2="1031.5" y1="122.57" y2="122.57"/><line style="stroke:#000;stroke-width:1.5" x1="1031.5" x2="1031.5" y1="122.57" y2="158.867"/><text x="969.5" y="145.565" fill="#000" font-family="sans-serif" font-size="14" lengthAdjust="spacing" textLength="47">default</text><polygon fill="#FEFECE" points="781 122.57 791 112.57 919 112.57 919 148.867 909 158.867 781 158.867 781 122.57" filter="url(#f13l6kr4kjsfdi)" style="stroke:#000;stroke-width:1.5"/><line style="stroke:#000;stroke-width:1.5" x1="909" x2="919" y1="122.57" y2="112.57"/><line style="stroke:#000;stroke-width:1.5" x1="781" x2="909" y1="122.57" y2="122.57"/><line style="stroke:#000;stroke-width:1.5" x1="909" x2="909" y1="122.57" y2="158.867"/><text x="796" y="145.565" fill="#000" font-family="sans-serif" font-size="14" lengthAdjust="spacing" textLength="98">admin_access</text><polygon fill="#FEFECE" points="1277 122.57 1287 112.57 1379 112.57 1379 148.867 1369 158.867 1277 158.867 1277 122.57" filter="url(#f13l6kr4kjsfdi)" style="stroke:#000;stroke-width:1.5"/><line style="stroke:#000;stroke-width:1.5" x1="1369" x2="1379" y1="122.57" y2="112.57"/><line style="stroke:#000;stroke-width:1.5" x1="1277" x2="1369" y1="122.57" y2="122.57"/><line style="stroke:#000;stroke-width:1.5" x1="1369" x2="1369" y1="122.57" y2="158.867"/><text x="1292" y="145.565" fill="#000" font-family="sans-serif" font-size="14" lengthAdjust="spacing" textLength="62">postgres</text><polygon fill="#FEFECE" points="1092 228.57 1102 218.57 1226 218.57 1226 254.867 1216 264.867 1092 264.867 1092 228.57" filter="url(#f13l6kr4kjsfdi)" style="stroke:#000;stroke-width:1.5"/><line style="stroke:#000;stroke-width:1.5" x1="1216" x2="1226" y1="228.57" y2="218.57"/><line style="stroke:#000;stroke-width:1.5" x1="1092" x2="1216" y1="228.57" y2="228.57"/><line style="stroke:#000;stroke-width:1.5" x1="1216" x2="1216" y1="228.57" y2="264.867"/><text x="1107" y="251.565" fill="#000" font-family="sans-serif" font-size="14" lengthAdjust="spacing" textLength="94">real_products</text><polygon fill="#FEFECE" points="1261 228.57 1271 218.57 1319 218.57 1319 254.867 1309 264.867 1261 264.867 1261 228.57" filter="url(#f13l6kr4kjsfdi)" style="stroke:#000;stroke-width:1.5"/><line style="stroke:#000;stroke-width:1.5" x1="1309" x2="1319" y1="228.57" y2="218.57"/><line style="stroke:#000;stroke-width:1.5" x1="1261" x2="1309" y1="228.57" y2="228.57"/><line style="stroke:#000;stroke-width:1.5" x1="1309" x2="1309" y1="228.57" y2="264.867"/><text x="1276" y="251.565" fill="#000" font-family="sans-serif" font-size="14" lengthAdjust="spacing" textLength="18">h2</text><path id="integrationtest-to-localserver" fill="none" d="M173.68,135.57 C183.61,135.57 193.54,135.57 203.47,135.57" style="stroke:#a80036;stroke-width:1"/><polygon fill="#A80036" points="208.66 135.57 199.66 131.57 203.66 135.57 199.66 139.57 208.66 135.57" style="stroke:#a80036;stroke-width:1"/><path id="integrationtest-to-initial_admin_static" fill="none" d="M119.75,112.53 C138.38,89.07 170.85,54.13 208.5,39.57 C255.75,21.29 274.71,22.75 322.5,39.57 C361.34,53.24 396.88,85.45 418.93,108.8" style="stroke:#a80036;stroke-width:1"/><polygon fill="#A80036" points="422.35 112.47 419.132 103.162 418.938 108.815 413.284 108.621 422.35 112.47" style="stroke:#a80036;stroke-width:1"/><path id="integrationtest-to-mocked_notifications" fill="none" d="M119.75,112.53 C138.38,89.07 170.85,54.13 208.5,39.57 C274.2,14.15 458.69,17.23 525.5,39.57 C566.16,53.17 604.24,85.39 628.01,108.77" style="stroke:#a80036;stroke-width:1"/><polygon fill="#A80036" points="631.7 112.44 628.127 103.262 628.15 108.919 622.493 108.942 631.7 112.44" style="stroke:#a80036;stroke-width:1"/><path id="integrationtest-to-admin_access" fill="none" d="M119.75,112.53 C138.38,89.07 170.85,54.13 208.5,39.57 C264.15,18.04 689.9,17.91 745.5,39.57 C780.87,53.35 811.52,85.32 830.32,108.59" style="stroke:#a80036;stroke-width:1"/><polygon fill="#A80036" points="833.46 112.54 830.987 103.007 830.347 108.627 824.726 107.988 833.46 112.54" style="stroke:#a80036;stroke-width:1"/><path id="integrationtest-to-default" fill="none" d="M119.75,112.53 C138.38,89.07 170.85,54.13 208.5,39.57 C282.07,11.11 847.11,6 918.5,39.57 C948.24,53.56 970.67,84.74 984,107.79" style="stroke:#a80036;stroke-width:1"/><polygon fill="#A80036" points="986.55 112.28 985.613 102.476 984.094 107.925 978.645 106.406 986.55 112.28" style="stroke:#a80036;stroke-width:1"/></g></svg>