<svg xmlns="http://www.w3.org/2000/svg" xmlns:xlink="http://www.w3.org/1999/xlink" width="2453" height="235" contentScriptType="application/ecmascript" contentStyleType="text/css" style="width:2453px;height:235px;background:#fff" preserveAspectRatio="none" version="1.1" viewBox="0 0 2453 235" zoomAndPan="magnify"><defs><filter id="f15aeqjvoaz39m" width="300%" height="300%" x="-1" y="-1"><feGaussianBlur result="blurOut" stdDeviation="2"/><feColorMatrix in="blurOut" result="blurOut2" type="matrix" values="0 0 0 0 0 0 0 0 0 0 0 0 0 0 0 0 0 0 .4 0"/><feOffset dx="4" dy="4" in="blurOut2" result="blurOut3"/><feBlend in="SourceGraphic" in2="blurOut3" mode="normal"/></filter></defs><g><polygon fill="#FEFECE" points="1128.5 86 1138.5 76 1242.5 76 1242.5 112.297 1232.5 122.297 1128.5 122.297 1128.5 86" filter="url(#f15aeqjvoaz39m)" style="stroke:#000;stroke-width:1.5"/><line style="stroke:#000;stroke-width:1.5" x1="1232.5" x2="1242.5" y1="86" y2="76"/><line style="stroke:#000;stroke-width:1.5" x1="1128.5" x2="1232.5" y1="86" y2="86"/><line style="stroke:#000;stroke-width:1.5" x1="1232.5" x2="1232.5" y1="86" y2="122.297"/><text x="1143.5" y="108.995" fill="#000" font-family="sans-serif" font-size="14" lengthAdjust="spacing" textLength="74">localserver</text><polygon fill="#FEFECE" points="16 86 26 76 81 76 81 112.297 71 122.297 16 122.297 16 86" filter="url(#f15aeqjvoaz39m)" style="stroke:#000;stroke-width:1.5"/><line style="stroke:#000;stroke-width:1.5" x1="71" x2="81" y1="86" y2="76"/><line style="stroke:#000;stroke-width:1.5" x1="16" x2="71" y1="86" y2="86"/><line style="stroke:#000;stroke-width:1.5" x1="71" x2="71" y1="86" y2="122.297"/><text x="31" y="108.995" fill="#000" font-family="sans-serif" font-size="14" lengthAdjust="spacing" textLength="25">dev</text><polygon fill="#FEFECE" points="753 86 763 76 920 76 920 112.297 910 122.297 753 122.297 753 86" filter="url(#f15aeqjvoaz39m)" style="stroke:#000;stroke-width:1.5"/><line style="stroke:#000;stroke-width:1.5" x1="910" x2="920" y1="86" y2="76"/><line style="stroke:#000;stroke-width:1.5" x1="753" x2="910" y1="86" y2="86"/><line style="stroke:#000;stroke-width:1.5" x1="910" x2="910" y1="86" y2="122.297"/><text x="768" y="108.995" fill="#000" font-family="sans-serif" font-size="14" lengthAdjust="spacing" textLength="127">initial_admin_static</text><polygon fill="#FEFECE" points="532.5 86 542.5 76 718.5 76 718.5 112.297 708.5 122.297 532.5 122.297 532.5 86" filter="url(#f15aeqjvoaz39m)" style="stroke:#000;stroke-width:1.5"/><line style="stroke:#000;stroke-width:1.5" x1="708.5" x2="718.5" y1="86" y2="76"/><line style="stroke:#000;stroke-width:1.5" x1="532.5" x2="708.5" y1="86" y2="86"/><line style="stroke:#000;stroke-width:1.5" x1="708.5" x2="708.5" y1="86" y2="122.297"/><text x="547.5" y="108.995" fill="#000" font-family="sans-serif" font-size="14" lengthAdjust="spacing" textLength="146">mocked_notifications</text><polygon fill="#FEFECE" points="356 86 366 76 497 76 497 112.297 487 122.297 356 122.297 356 86" filter="url(#f15aeqjvoaz39m)" style="stroke:#000;stroke-width:1.5"/><line style="stroke:#000;stroke-width:1.5" x1="487" x2="497" y1="86" y2="76"/><line style="stroke:#000;stroke-width:1.5" x1="356" x2="487" y1="86" y2="86"/><line style="stroke:#000;stroke-width:1.5" x1="487" x2="487" y1="86" y2="122.297"/><text x="371" y="108.995" fill="#000" font-family="sans-serif" font-size="14" lengthAdjust="spacing" textLength="101">integrationtest</text><polygon fill="#FEFECE" points="2029 86 2039 76 2194 76 2194 112.297 2184 122.297 2029 122.297 2029 86" filter="url(#f15aeqjvoaz39m)" style="stroke:#000;stroke-width:1.5"/><line style="stroke:#000;stroke-width:1.5" x1="2184" x2="2194" y1="86" y2="76"/><line style="stroke:#000;stroke-width:1.5" x1="2029" x2="2184" y1="86" y2="86"/><line style="stroke:#000;stroke-width:1.5" x1="2184" x2="2184" y1="86" y2="122.297"/><text x="2044" y="108.995" fill="#000" font-family="sans-serif" font-size="14" lengthAdjust="spacing" textLength="125">mocked_products</text><polygon fill="#FEFECE" points="116 86 126 76 321 76 321 112.297 311 122.297 116 122.297 116 86" filter="url(#f15aeqjvoaz39m)" style="stroke:#000;stroke-width:1.5"/><line style="stroke:#000;stroke-width:1.5" x1="311" x2="321" y1="86" y2="76"/><line style="stroke:#000;stroke-width:1.5" x1="116" x2="311" y1="86" y2="86"/><line style="stroke:#000;stroke-width:1.5" x1="311" x2="311" y1="86" y2="122.297"/><text x="131" y="108.995" fill="#000" font-family="sans-serif" font-size="14" lengthAdjust="spacing" textLength="165">initial_admin_predefined</text><polygon fill="#FEFECE" points="1673 86 1683 76 1856 76 1856 112.297 1846 122.297 1673 122.297 1673 86" filter="url(#f15aeqjvoaz39m)" style="stroke:#000;stroke-width:1.5"/><line style="stroke:#000;stroke-width:1.5" x1="1846" x2="1856" y1="86" y2="76"/><line style="stroke:#000;stroke-width:1.5" x1="1673" x2="1846" y1="86" y2="86"/><line style="stroke:#000;stroke-width:1.5" x1="1846" x2="1846" y1="86" y2="122.297"/><text x="1688" y="108.995" fill="#000" font-family="sans-serif" font-size="14" lengthAdjust="spacing" textLength="143">initial_admin_created</text><polygon fill="#FEFECE" points="2229 86 2239 76 2316 76 2316 112.297 2306 122.297 2229 122.297 2229 86" filter="url(#f15aeqjvoaz39m)" style="stroke:#000;stroke-width:1.5"/><line style="stroke:#000;stroke-width:1.5" x1="2306" x2="2316" y1="86" y2="76"/><line style="stroke:#000;stroke-width:1.5" x1="2229" x2="2306" y1="86" y2="86"/><line style="stroke:#000;stroke-width:1.5" x1="2306" x2="2306" y1="86" y2="122.297"/><text x="2244" y="108.995" fill="#000" font-family="sans-serif" font-size="14" lengthAdjust="spacing" textLength="47">default</text><polygon fill="#FEFECE" points="2351 86 2361 76 2436 76 2436 112.297 2426 122.297 2351 122.297 2351 86" filter="url(#f15aeqjvoaz39m)" style="stroke:#000;stroke-width:1.5"/><line style="stroke:#000;stroke-width:1.5" x1="2426" x2="2436" y1="86" y2="76"/><line style="stroke:#000;stroke-width:1.5" x1="2351" x2="2426" y1="86" y2="86"/><line style="stroke:#000;stroke-width:1.5" x1="2426" x2="2426" y1="86" y2="122.297"/><text x="2366" y="108.995" fill="#000" font-family="sans-serif" font-size="14" lengthAdjust="spacing" textLength="45">debug</text><polygon fill="#FEFECE" points="1277.5 86 1287.5 76 1349.5 76 1349.5 112.297 1339.5 122.297 1277.5 122.297 1277.5 86" filter="url(#f15aeqjvoaz39m)" style="stroke:#000;stroke-width:1.5"/><line style="stroke:#000;stroke-width:1.5" x1="1339.5" x2="1349.5" y1="86" y2="76"/><line style="stroke:#000;stroke-width:1.5" x1="1277.5" x2="1339.5" y1="86" y2="86"/><line style="stroke:#000;stroke-width:1.5" x1="1339.5" x2="1339.5" y1="86" y2="122.297"/><text x="1292.5" y="108.995" fill="#000" font-family="sans-serif" font-size="14" lengthAdjust="spacing" textLength="32">prod</text><polygon fill="#FEFECE" points="955.5 86 965.5 76 1093.5 76 1093.5 112.297 1083.5 122.297 955.5 122.297 955.5 86" filter="url(#f15aeqjvoaz39m)" style="stroke:#000;stroke-width:1.5"/><line style="stroke:#000;stroke-width:1.5" x1="1083.5" x2="1093.5" y1="86" y2="76"/><line style="stroke:#000;stroke-width:1.5" x1="955.5" x2="1083.5" y1="86" y2="86"/><line style="stroke:#000;stroke-width:1.5" x1="1083.5" x2="1083.5" y1="86" y2="122.297"/><text x="970.5" y="108.995" fill="#000" font-family="sans-serif" font-size="14" lengthAdjust="spacing" textLength="98">admin_access</text><polygon fill="#FEFECE" points="1891.5 86 1901.5 76 1993.5 76 1993.5 112.297 1983.5 122.297 1891.5 122.297 1891.5 86" filter="url(#f15aeqjvoaz39m)" style="stroke:#000;stroke-width:1.5"/><line style="stroke:#000;stroke-width:1.5" x1="1983.5" x2="1993.5" y1="86" y2="76"/><line style="stroke:#000;stroke-width:1.5" x1="1891.5" x2="1983.5" y1="86" y2="86"/><line style="stroke:#000;stroke-width:1.5" x1="1983.5" x2="1983.5" y1="86" y2="122.297"/><text x="1906.5" y="108.995" fill="#000" font-family="sans-serif" font-size="14" lengthAdjust="spacing" textLength="62">postgres</text><polygon fill="#FEFECE" points="1385 86 1395 76 1468 76 1468 112.297 1458 122.297 1385 122.297 1385 86" filter="url(#f15aeqjvoaz39m)" style="stroke:#000;stroke-width:1.5"/><line style="stroke:#000;stroke-width:1.5" x1="1458" x2="1468" y1="86" y2="76"/><line style="stroke:#000;stroke-width:1.5" x1="1385" x2="1458" y1="86" y2="86"/><line style="stroke:#000;stroke-width:1.5" x1="1458" x2="1458" y1="86" y2="122.297"/><text x="1400" y="108.995" fill="#000" font-family="sans-serif" font-size="14" lengthAdjust="spacing" textLength="43">server</text><polygon fill="#FEFECE" points="1503.5 86 1513.5 76 1637.5 76 1637.5 112.297 1627.5 122.297 1503.5 122.297 1503.5 86" filter="url(#f15aeqjvoaz39m)" style="stroke:#000;stroke-width:1.5"/><line style="stroke:#000;stroke-width:1.5" x1="1627.5" x2="1637.5" y1="86" y2="76"/><line style="stroke:#000;stroke-width:1.5" x1="1503.5" x2="1627.5" y1="86" y2="86"/><line style="stroke:#000;stroke-width:1.5" x1="1627.5" x2="1627.5" y1="86" y2="122.297"/><text x="1518.5" y="108.995" fill="#000" font-family="sans-serif" font-size="14" lengthAdjust="spacing" textLength="94">real_products</text><polygon fill="#FEFECE" points="2082.5 192 2092.5 182 2140.5 182 2140.5 218.297 2130.5 228.297 2082.5 228.297 2082.5 192" filter="url(#f15aeqjvoaz39m)" style="stroke:#000;stroke-width:1.5"/><line style="stroke:#000;stroke-width:1.5" x1="2130.5" x2="2140.5" y1="192" y2="182"/><line style="stroke:#000;stroke-width:1.5" x1="2082.5" x2="2130.5" y1="192" y2="192"/><line style="stroke:#000;stroke-width:1.5" x1="2130.5" x2="2130.5" y1="192" y2="228.297"/><text x="2097.5" y="214.995" fill="#000" font-family="sans-serif" font-size="14" lengthAdjust="spacing" textLength="18">h2</text><polygon fill="#FEFECE" points="2176 192 2186 182 2243 182 2243 218.297 2233 228.297 2176 228.297 2176 192" filter="url(#f15aeqjvoaz39m)" style="stroke:#000;stroke-width:1.5"/><line style="stroke:#000;stroke-width:1.5" x1="2233" x2="2243" y1="192" y2="182"/><line style="stroke:#000;stroke-width:1.5" x1="2176" x2="2233" y1="192" y2="192"/><line style="stroke:#000;stroke-width:1.5" x1="2233" x2="2233" y1="192" y2="228.297"/><text x="2191" y="214.995" fill="#000" font-family="sans-serif" font-size="14" lengthAdjust="spacing" textLength="27">test</text><path id="dev-to-localserver" fill="none" d="M70.2,75.8 C82.42,64.46 98.68,51.99 116,46 C218.7,10.5 989.06,17.8 1094,46 C1114.09,51.4 1134.33,62.41 1150.65,73" style="stroke:#a80036;stroke-width:1"/><polygon fill="#A80036" points="1155.14 75.97 1149.857 67.658 1150.975 73.203 1145.43 74.321 1155.14 75.97" style="stroke:#a80036;stroke-width:1"/><path id="dev-to-initial_admin_predefined" fill="none" d="M81.04,99 C90.95,99 100.85,99 110.76,99" style="stroke:#a80036;stroke-width:1"/><polygon fill="#A80036" points="115.94 99 106.94 95 110.94 99 106.94 103 115.94 99" style="stroke:#a80036;stroke-width:1"/><path id="dev-to-admin_access" fill="none" d="M70.2,75.8 C82.42,64.46 98.68,51.99 116,46 C200.43,16.81 833.12,25.23 920,46 C942.62,51.41 965.87,62.55 984.68,73.23" style="stroke:#a80036;stroke-width:1"/><polygon fill="#A80036" points="989.37 75.94 983.577 67.975 985.04 73.439 979.576 74.903 989.37 75.94" style="stroke:#a80036;stroke-width:1"/><path id="integrationtest-to-localserver" fill="none" d="M462.36,75.93 C482.3,64.48 508.07,51.86 533,46 C654.36,17.47 973.6,13.65 1094,46 C1114.09,51.4 1134.33,62.41 1150.65,73" style="stroke:#a80036;stroke-width:1"/><polygon fill="#A80036" points="1155.14 75.97 1149.857 67.658 1150.975 73.203 1145.43 74.321 1155.14 75.97" style="stroke:#a80036;stroke-width:1"/><path id="integrationtest-to-initial_admin_static" fill="none" d="M462.36,75.93 C482.3,64.48 508.07,51.86 533,46 C613.47,27.08 638.18,28.62 719,46 C744.33,51.45 770.78,62.81 792.15,73.62" style="stroke:#a80036;stroke-width:1"/><polygon fill="#A80036" points="796.64 75.91 790.447 68.252 792.188 73.634 786.806 75.375 796.64 75.91" style="stroke:#a80036;stroke-width:1"/><path id="integrationtest-to-mocked_notifications" fill="none" d="M497.24,99 C507.19,99 517.15,99 527.1,99" style="stroke:#a80036;stroke-width:1"/><polygon fill="#A80036" points="532.31 99 523.31 95 527.31 99 523.31 103 532.31 99" style="stroke:#a80036;stroke-width:1"/><path id="integrationtest-to-admin_access" fill="none" d="M462.36,75.93 C482.3,64.48 508.07,51.86 533,46 C700.44,6.64 752.71,6 920,46 C942.62,51.41 965.87,62.55 984.68,73.23" style="stroke:#a80036;stroke-width:1"/><polygon fill="#A80036" points="989.37 75.94 983.577 67.975 985.04 73.439 979.576 74.903 989.37 75.94" style="stroke:#a80036;stroke-width:1"/><path id="prod-to-postgres" fill="none" d="M1336.73,75.77 C1349.74,64.43 1366.95,51.96 1385,46 C1484.39,13.18 1755.26,17.59 1856,46 C1875.21,51.42 1894.37,62.43 1909.75,73.02" style="stroke:#a80036;stroke-width:1"/><polygon fill="#A80036" points="1913.99 75.99 1908.913 67.551 1909.895 73.122 1904.323 74.103 1913.99 75.99" style="stroke:#a80036;stroke-width:1"/><path id="prod-to-initial_admin_created" fill="none" d="M1336.73,75.77 C1349.74,64.43 1366.95,51.96 1385,46 C1491.77,10.74 1527.76,23.84 1638,46 C1665.14,51.46 1693.71,62.89 1716.83,73.74" style="stroke:#a80036;stroke-width:1"/><polygon fill="#A80036" points="1721.37 75.9 1714.955 68.427 1716.853 73.756 1711.524 75.654 1721.37 75.9" style="stroke:#a80036;stroke-width:1"/><path id="prod-to-real_products" fill="none" d="M1336.73,75.77 C1349.74,64.43 1366.95,51.96 1385,46 C1420.03,34.43 1432.16,37.28 1468,46 C1490.25,51.41 1513.07,62.56 1531.51,73.24" style="stroke:#a80036;stroke-width:1"/><polygon fill="#A80036" points="1536.1 75.94 1530.389 67.916 1531.796 73.395 1526.317 74.802 1536.1 75.94" style="stroke:#a80036;stroke-width:1"/><path id="prod-to-server" fill="none" d="M1349.7,99 C1359.66,99 1369.62,99 1379.59,99" style="stroke:#a80036;stroke-width:1"/><polygon fill="#A80036" points="1384.8 99 1375.8 95 1379.8 99 1375.8 103 1384.8 99" style="stroke:#a80036;stroke-width:1"/></g></svg>