<svg xmlns="http://www.w3.org/2000/svg" xmlns:xlink="http://www.w3.org/1999/xlink" width="972" height="205" contentScriptType="application/ecmascript" contentStyleType="text/css" style="width:972px;height:205px;background:#fff" preserveAspectRatio="none" version="1.1" viewBox="0 0 972 205" zoomAndPan="magnify"><g><text x="110" y="28.708" fill="#000" font-family="sans-serif" font-size="18" lengthAdjust="spacing" text-decoration="underline" textLength="201">Communication details</text><text x="323" y="28.708" fill="#000" font-family="sans-serif" font-size="18" lengthAdjust="spacing" textLength="17">of</text><text x="346" y="28.708" fill="#000" font-family="sans-serif" font-size="18" font-weight="bold" lengthAdjust="spacing" textLength="511">message SCHEDULER_JOB_PROCESSING_DISABLED</text><rect style="stroke:#a80036;stroke-width:1" width="186" height="151.828" x="256" y="40.953" fill="#C8C8CF"/><text x="316" y="53.02" fill="#000" font-family="sans-serif" font-size="13" font-weight="bold" lengthAdjust="spacing" textLength="66">schedule</text><rect style="stroke:#a80036;stroke-width:1" width="306" height="151.828" x="444" y="40.953" fill="#F8F8FF"/><text x="543.5" y="53.02" fill="#000" font-family="sans-serif" font-size="13" font-weight="bold" lengthAdjust="spacing" textLength="107">administration</text><rect style="stroke:#a80036;stroke-width:1" width="214" height="151.828" x="752" y="40.953" fill="#C8C8CF"/><text x="817.5" y="53.02" fill="#000" font-family="sans-serif" font-size="13" font-weight="bold" lengthAdjust="spacing" textLength="83">notification</text><line style="stroke:#a80036;stroke-width:1;stroke-dasharray:5,5" x1="41" x2="41" y1="91.383" y2="198.781"/><line style="stroke:#a80036;stroke-width:1;stroke-dasharray:5,5" x1="349" x2="349" y1="91.383" y2="198.781"/><line style="stroke:#a80036;stroke-width:1;stroke-dasharray:5,5" x1="597" x2="597" y1="91.383" y2="198.781"/><line style="stroke:#a80036;stroke-width:1;stroke-dasharray:5,5" x1="859" x2="859" y1="91.383" y2="198.781"/><text x="5" y="88.081" fill="#000" font-family="sans-serif" font-size="14" lengthAdjust="spacing" textLength="66">EventBus</text><ellipse cx="41" cy="59.086" fill="#FEFECE" rx="12" ry="12" style="stroke:#a80036;stroke-width:2"/><polygon fill="#A80036" points="37 47.086 43 42.086 41 47.086 43 52.086 37 47.086" style="stroke:#a80036;stroke-width:1"/><rect style="stroke:#a80036;stroke-width:1.5" width="178" height="30.297" x="260" y="60.086" fill="#FEFECE"/><text x="267" y="80.081" fill="#000" font-family="sans-serif" font-size="14" lengthAdjust="spacing" textLength="164">SchedulerConfigService</text><rect style="stroke:#a80036;stroke-width:1.5" width="298" height="30.297" x="448" y="60.086" fill="#FEFECE"/><text x="455" y="80.081" fill="#000" font-family="sans-serif" font-size="14" lengthAdjust="spacing" textLength="284">SchedulerAdministrationMessageHandler</text><rect style="stroke:#a80036;stroke-width:1.5" width="206" height="30.297" x="756" y="60.086" fill="#FEFECE"/><text x="763" y="80.081" fill="#000" font-family="sans-serif" font-size="14" lengthAdjust="spacing" textLength="192">NotificationMessageHandler</text><line style="stroke:#a80036;stroke-width:1" x1="41" x2="51" y1="122.516" y2="118.516"/><line style="stroke:#a80036;stroke-width:1" x1="41" x2="51" y1="122.516" y2="126.516"/><line style="stroke:#a80036;stroke-width:1" x1="41" x2="348" y1="122.516" y2="122.516"/><text x="58" y="117.45" fill="#000" font-family="sans-serif" font-size="13" font-weight="bold" lengthAdjust="spacing" textLength="9">1</text><text x="71" y="117.45" fill="#000" font-family="sans-serif" font-size="13" lengthAdjust="spacing" textLength="271">SCHEDULER_JOB_PROCESSING_DISABLED</text><line style="stroke:#a80036;stroke-width:1" x1="595" x2="585" y1="151.648" y2="147.648"/><line style="stroke:#a80036;stroke-width:1" x1="595" x2="585" y1="151.648" y2="155.648"/><line style="stroke:#a80036;stroke-width:1" x1="41" x2="596" y1="151.648" y2="151.648"/><text x="48" y="146.583" fill="#000" font-family="sans-serif" font-size="13" font-weight="bold" lengthAdjust="spacing" textLength="9">2</text><text x="61" y="146.583" fill="#000" font-family="sans-serif" font-size="13" lengthAdjust="spacing" textLength="271">SCHEDULER_JOB_PROCESSING_DISABLED</text><line style="stroke:#a80036;stroke-width:1" x1="857" x2="847" y1="180.781" y2="176.781"/><line style="stroke:#a80036;stroke-width:1" x1="857" x2="847" y1="180.781" y2="184.781"/><line style="stroke:#a80036;stroke-width:1" x1="41" x2="858" y1="180.781" y2="180.781"/><text x="48" y="175.715" fill="#000" font-family="sans-serif" font-size="13" font-weight="bold" lengthAdjust="spacing" textLength="9">3</text><text x="61" y="175.715" fill="#000" font-family="sans-serif" font-size="13" lengthAdjust="spacing" textLength="271">SCHEDULER_JOB_PROCESSING_DISABLED</text></g></svg>