<svg xmlns="http://www.w3.org/2000/svg" xmlns:xlink="http://www.w3.org/1999/xlink" width="871" height="205" contentScriptType="application/ecmascript" contentStyleType="text/css" style="width:871px;height:205px;background:#fff" preserveAspectRatio="none" version="1.1" viewBox="0 0 871 205" zoomAndPan="magnify"><g><text x="87" y="28.708" fill="#000" font-family="sans-serif" font-size="18" lengthAdjust="spacing" text-decoration="underline" textLength="201">Communication details</text><text x="300" y="28.708" fill="#000" font-family="sans-serif" font-size="18" lengthAdjust="spacing" textLength="17">of</text><text x="323" y="28.708" fill="#000" font-family="sans-serif" font-size="18" font-weight="bold" lengthAdjust="spacing" textLength="456">message USER_NEW_API_TOKEN_REQUESTED</text><rect style="stroke:#a80036;stroke-width:1" width="512" height="151.828" x="137" y="40.953" fill="#F8F8FF"/><text x="339.5" y="53.02" fill="#000" font-family="sans-serif" font-size="13" font-weight="bold" lengthAdjust="spacing" textLength="107">administration</text><rect style="stroke:#a80036;stroke-width:1" width="214" height="151.828" x="651" y="40.953" fill="#C8C8CF"/><text x="716.5" y="53.02" fill="#000" font-family="sans-serif" font-size="13" font-weight="bold" lengthAdjust="spacing" textLength="83">notification</text><line style="stroke:#a80036;stroke-width:1;stroke-dasharray:5,5" x1="41" x2="41" y1="91.383" y2="198.781"/><line style="stroke:#a80036;stroke-width:1;stroke-dasharray:5,5" x1="311" x2="311" y1="91.383" y2="198.781"/><line style="stroke:#a80036;stroke-width:1;stroke-dasharray:5,5" x1="568" x2="568" y1="91.383" y2="198.781"/><line style="stroke:#a80036;stroke-width:1;stroke-dasharray:5,5" x1="758" x2="758" y1="91.383" y2="198.781"/><text x="5" y="88.081" fill="#000" font-family="sans-serif" font-size="14" lengthAdjust="spacing" textLength="66">EventBus</text><ellipse cx="41" cy="59.086" fill="#FEFECE" rx="12" ry="12" style="stroke:#a80036;stroke-width:2"/><polygon fill="#A80036" points="37 47.086 43 42.086 41 47.086 43 52.086 37 47.086" style="stroke:#a80036;stroke-width:1"/><rect style="stroke:#a80036;stroke-width:1.5" width="340" height="30.297" x="141" y="60.086" fill="#FEFECE"/><text x="148" y="80.081" fill="#000" font-family="sans-serif" font-size="14" lengthAdjust="spacing" textLength="326">AnonymousUserRequestsNewApiTokenService</text><rect style="stroke:#a80036;stroke-width:1.5" width="154" height="30.297" x="491" y="60.086" fill="#FEFECE"/><text x="498" y="80.081" fill="#000" font-family="sans-serif" font-size="14" lengthAdjust="spacing" textLength="140">UserCreationService</text><rect style="stroke:#a80036;stroke-width:1.5" width="206" height="30.297" x="655" y="60.086" fill="#FEFECE"/><text x="662" y="80.081" fill="#000" font-family="sans-serif" font-size="14" lengthAdjust="spacing" textLength="192">NotificationMessageHandler</text><line style="stroke:#a80036;stroke-width:1" x1="41" x2="51" y1="122.516" y2="118.516"/><line style="stroke:#a80036;stroke-width:1" x1="41" x2="51" y1="122.516" y2="126.516"/><line style="stroke:#a80036;stroke-width:1" x1="41" x2="310" y1="122.516" y2="122.516"/><text x="58" y="117.45" fill="#000" font-family="sans-serif" font-size="13" font-weight="bold" lengthAdjust="spacing" textLength="9">1</text><text x="71" y="117.45" fill="#000" font-family="sans-serif" font-size="13" lengthAdjust="spacing" textLength="233">USER_NEW_API_TOKEN_REQUESTED</text><line style="stroke:#a80036;stroke-width:1" x1="41" x2="51" y1="151.648" y2="147.648"/><line style="stroke:#a80036;stroke-width:1" x1="41" x2="51" y1="151.648" y2="155.648"/><line style="stroke:#a80036;stroke-width:1" x1="41" x2="567" y1="151.648" y2="151.648"/><text x="58" y="146.583" fill="#000" font-family="sans-serif" font-size="13" font-weight="bold" lengthAdjust="spacing" textLength="9">2</text><text x="71" y="146.583" fill="#000" font-family="sans-serif" font-size="13" lengthAdjust="spacing" textLength="233">USER_NEW_API_TOKEN_REQUESTED</text><line style="stroke:#a80036;stroke-width:1" x1="756" x2="746" y1="180.781" y2="176.781"/><line style="stroke:#a80036;stroke-width:1" x1="756" x2="746" y1="180.781" y2="184.781"/><line style="stroke:#a80036;stroke-width:1" x1="41" x2="757" y1="180.781" y2="180.781"/><text x="48" y="175.715" fill="#000" font-family="sans-serif" font-size="13" font-weight="bold" lengthAdjust="spacing" textLength="9">3</text><text x="61" y="175.715" fill="#000" font-family="sans-serif" font-size="13" lengthAdjust="spacing" textLength="233">USER_NEW_API_TOKEN_REQUESTED</text></g></svg>