<svg xmlns="http://www.w3.org/2000/svg" xmlns:xlink="http://www.w3.org/1999/xlink" width="687" height="176" contentScriptType="application/ecmascript" contentStyleType="text/css" style="width:687px;height:176px;background:#fff" preserveAspectRatio="none" version="1.1" viewBox="0 0 687 176" zoomAndPan="magnify"><g><text x="9" y="28.708" fill="#000" font-family="sans-serif" font-size="18" lengthAdjust="spacing" text-decoration="underline" textLength="201">Communication details</text><text x="222" y="28.708" fill="#000" font-family="sans-serif" font-size="18" lengthAdjust="spacing" textLength="17">of</text><text x="245" y="28.708" fill="#000" font-family="sans-serif" font-size="18" font-weight="bold" lengthAdjust="spacing" textLength="426">message USER_NO_LONGER_SUPERADMIN</text><rect style="stroke:#a80036;stroke-width:1" width="284" height="122.695" x="165" y="40.953" fill="#F8F8FF"/><text x="253.5" y="53.02" fill="#000" font-family="sans-serif" font-size="13" font-weight="bold" lengthAdjust="spacing" textLength="107">administration</text><rect style="stroke:#a80036;stroke-width:1" width="214" height="122.695" x="451" y="40.953" fill="#C8C8CF"/><text x="516.5" y="53.02" fill="#000" font-family="sans-serif" font-size="13" font-weight="bold" lengthAdjust="spacing" textLength="83">notification</text><line style="stroke:#a80036;stroke-width:1;stroke-dasharray:5,5" x1="55" x2="55" y1="91.383" y2="169.648"/><line style="stroke:#a80036;stroke-width:1;stroke-dasharray:5,5" x1="307" x2="307" y1="91.383" y2="169.648"/><line style="stroke:#a80036;stroke-width:1;stroke-dasharray:5,5" x1="558" x2="558" y1="91.383" y2="169.648"/><text x="19" y="88.081" fill="#000" font-family="sans-serif" font-size="14" lengthAdjust="spacing" textLength="66">EventBus</text><ellipse cx="55" cy="59.086" fill="#FEFECE" rx="12" ry="12" style="stroke:#a80036;stroke-width:2"/><polygon fill="#A80036" points="51 47.086 57 42.086 55 47.086 57 52.086 51 47.086" style="stroke:#a80036;stroke-width:1"/><rect style="stroke:#a80036;stroke-width:1.5" width="276" height="30.297" x="169" y="60.086" fill="#FEFECE"/><text x="176" y="80.081" fill="#000" font-family="sans-serif" font-size="14" lengthAdjust="spacing" textLength="262">UserRevokeSuperAdminRightsService</text><rect style="stroke:#a80036;stroke-width:1.5" width="206" height="30.297" x="455" y="60.086" fill="#FEFECE"/><text x="462" y="80.081" fill="#000" font-family="sans-serif" font-size="14" lengthAdjust="spacing" textLength="192">NotificationMessageHandler</text><line style="stroke:#a80036;stroke-width:1" x1="55" x2="65" y1="122.516" y2="118.516"/><line style="stroke:#a80036;stroke-width:1" x1="55" x2="65" y1="122.516" y2="126.516"/><line style="stroke:#a80036;stroke-width:1" x1="55" x2="306" y1="122.516" y2="122.516"/><text x="72" y="117.45" fill="#000" font-family="sans-serif" font-size="13" font-weight="bold" lengthAdjust="spacing" textLength="9">1</text><text x="85" y="117.45" fill="#000" font-family="sans-serif" font-size="13" lengthAdjust="spacing" textLength="215">USER_NO_LONGER_SUPERADMIN</text><line style="stroke:#a80036;stroke-width:1" x1="556" x2="546" y1="151.648" y2="147.648"/><line style="stroke:#a80036;stroke-width:1" x1="556" x2="546" y1="151.648" y2="155.648"/><line style="stroke:#a80036;stroke-width:1" x1="55" x2="557" y1="151.648" y2="151.648"/><text x="62" y="146.583" fill="#000" font-family="sans-serif" font-size="13" font-weight="bold" lengthAdjust="spacing" textLength="9">2</text><text x="75" y="146.583" fill="#000" font-family="sans-serif" font-size="13" lengthAdjust="spacing" textLength="215">USER_NO_LONGER_SUPERADMIN</text></g></svg>