<svg xmlns="http://www.w3.org/2000/svg" xmlns:xlink="http://www.w3.org/1999/xlink" width="852" height="205" contentScriptType="application/ecmascript" contentStyleType="text/css" style="width:852px;height:205px;background:#fff" preserveAspectRatio="none" version="1.1" viewBox="0 0 852 205" zoomAndPan="magnify"><g><text x="82.75" y="28.708" fill="#000" font-family="sans-serif" font-size="18" lengthAdjust="spacing" text-decoration="underline" textLength="201">Communication details</text><text x="295.75" y="28.708" fill="#000" font-family="sans-serif" font-size="18" lengthAdjust="spacing" textLength="17">of</text><text x="318.75" y="28.708" fill="#000" font-family="sans-serif" font-size="18" font-weight="bold" lengthAdjust="spacing" textLength="446">message PROJECT_ACCESS_LEVEL_CHANGED</text><rect style="stroke:#a80036;stroke-width:1" width="203" height="151.828" x="208.5" y="40.953" fill="#C8C8CF"/><text x="277" y="53.02" fill="#000" font-family="sans-serif" font-size="13" font-weight="bold" lengthAdjust="spacing" textLength="66">schedule</text><rect style="stroke:#a80036;stroke-width:1" width="172" height="151.828" x="413.5" y="40.953" fill="#F8F8FF"/><text x="482.5" y="53.02" fill="#000" font-family="sans-serif" font-size="13" font-weight="bold" lengthAdjust="spacing" textLength="34">scan</text><rect style="stroke:#a80036;stroke-width:1" width="259" height="151.828" x="587.5" y="40.953" fill="#F8F8FF"/><text x="663.5" y="53.02" fill="#000" font-family="sans-serif" font-size="13" font-weight="bold" lengthAdjust="spacing" textLength="107">administration</text><line style="stroke:#a80036;stroke-width:1;stroke-dasharray:5,5" x1="41" x2="41" y1="91.383" y2="198.781"/><line style="stroke:#a80036;stroke-width:1;stroke-dasharray:5,5" x1="309.5" x2="309.5" y1="91.383" y2="198.781"/><line style="stroke:#a80036;stroke-width:1;stroke-dasharray:5,5" x1="499.5" x2="499.5" y1="91.383" y2="198.781"/><line style="stroke:#a80036;stroke-width:1;stroke-dasharray:5,5" x1="716.5" x2="716.5" y1="91.383" y2="198.781"/><text x="5" y="88.081" fill="#000" font-family="sans-serif" font-size="14" lengthAdjust="spacing" textLength="66">EventBus</text><ellipse cx="41" cy="59.086" fill="#FEFECE" rx="12" ry="12" style="stroke:#a80036;stroke-width:2"/><polygon fill="#A80036" points="37 47.086 43 42.086 41 47.086 43 52.086 37 47.086" style="stroke:#a80036;stroke-width:1"/><rect style="stroke:#a80036;stroke-width:1.5" width="195" height="30.297" x="212.5" y="60.086" fill="#FEFECE"/><text x="219.5" y="80.081" fill="#000" font-family="sans-serif" font-size="14" lengthAdjust="spacing" textLength="181">ScheduleMessageHandler</text><rect style="stroke:#a80036;stroke-width:1.5" width="164" height="30.297" x="417.5" y="60.086" fill="#FEFECE"/><text x="424.5" y="80.081" fill="#000" font-family="sans-serif" font-size="14" lengthAdjust="spacing" textLength="150">ScanMessageHandler</text><rect style="stroke:#a80036;stroke-width:1.5" width="251" height="30.297" x="591.5" y="60.086" fill="#FEFECE"/><text x="598.5" y="80.081" fill="#000" font-family="sans-serif" font-size="14" lengthAdjust="spacing" textLength="237">ProjectChangeAccessLevelService</text><line style="stroke:#a80036;stroke-width:1" x1="41" x2="51" y1="122.516" y2="118.516"/><line style="stroke:#a80036;stroke-width:1" x1="41" x2="51" y1="122.516" y2="126.516"/><line style="stroke:#a80036;stroke-width:1" x1="41" x2="716" y1="122.516" y2="122.516"/><text x="58" y="117.45" fill="#000" font-family="sans-serif" font-size="13" font-weight="bold" lengthAdjust="spacing" textLength="9">1</text><text x="71" y="117.45" fill="#000" font-family="sans-serif" font-size="13" lengthAdjust="spacing" textLength="232">PROJECT_ACCESS_LEVEL_CHANGED</text><line style="stroke:#a80036;stroke-width:1" x1="308" x2="298" y1="151.648" y2="147.648"/><line style="stroke:#a80036;stroke-width:1" x1="308" x2="298" y1="151.648" y2="155.648"/><line style="stroke:#a80036;stroke-width:1" x1="41" x2="309" y1="151.648" y2="151.648"/><text x="48" y="146.583" fill="#000" font-family="sans-serif" font-size="13" font-weight="bold" lengthAdjust="spacing" textLength="9">2</text><text x="61" y="146.583" fill="#000" font-family="sans-serif" font-size="13" lengthAdjust="spacing" textLength="232">PROJECT_ACCESS_LEVEL_CHANGED</text><line style="stroke:#a80036;stroke-width:1" x1="497.5" x2="487.5" y1="180.781" y2="176.781"/><line style="stroke:#a80036;stroke-width:1" x1="497.5" x2="487.5" y1="180.781" y2="184.781"/><line style="stroke:#a80036;stroke-width:1" x1="41" x2="498.5" y1="180.781" y2="180.781"/><text x="48" y="175.715" fill="#000" font-family="sans-serif" font-size="13" font-weight="bold" lengthAdjust="spacing" textLength="9">3</text><text x="61" y="175.715" fill="#000" font-family="sans-serif" font-size="13" lengthAdjust="spacing" textLength="232">PROJECT_ACCESS_LEVEL_CHANGED</text></g></svg>