<svg xmlns="http://www.w3.org/2000/svg" xmlns:xlink="http://www.w3.org/1999/xlink" width="968" height="205" contentScriptType="application/ecmascript" contentStyleType="text/css" style="width:968px;height:205px;background:#fff" preserveAspectRatio="none" version="1.1" viewBox="0 0 968 205" zoomAndPan="magnify"><g><text x="112" y="28.708" fill="#000" font-family="sans-serif" font-size="18" lengthAdjust="spacing" text-decoration="underline" textLength="201">Communication details</text><text x="325" y="28.708" fill="#000" font-family="sans-serif" font-size="18" lengthAdjust="spacing" textLength="17">of</text><text x="348" y="28.708" fill="#000" font-family="sans-serif" font-size="18" font-weight="bold" lengthAdjust="spacing" textLength="503">message SCHEDULER_JOB_PROCESSING_ENABLED</text><rect style="stroke:#a80036;stroke-width:1" width="186" height="151.828" x="252" y="40.953" fill="#C8C8CF"/><text x="312" y="53.02" fill="#000" font-family="sans-serif" font-size="13" font-weight="bold" lengthAdjust="spacing" textLength="66">schedule</text><rect style="stroke:#a80036;stroke-width:1" width="306" height="151.828" x="440" y="40.953" fill="#F8F8FF"/><text x="539.5" y="53.02" fill="#000" font-family="sans-serif" font-size="13" font-weight="bold" lengthAdjust="spacing" textLength="107">administration</text><rect style="stroke:#a80036;stroke-width:1" width="214" height="151.828" x="748" y="40.953" fill="#C8C8CF"/><text x="813.5" y="53.02" fill="#000" font-family="sans-serif" font-size="13" font-weight="bold" lengthAdjust="spacing" textLength="83">notification</text><line style="stroke:#a80036;stroke-width:1;stroke-dasharray:5,5" x1="41" x2="41" y1="91.383" y2="198.781"/><line style="stroke:#a80036;stroke-width:1;stroke-dasharray:5,5" x1="345" x2="345" y1="91.383" y2="198.781"/><line style="stroke:#a80036;stroke-width:1;stroke-dasharray:5,5" x1="593" x2="593" y1="91.383" y2="198.781"/><line style="stroke:#a80036;stroke-width:1;stroke-dasharray:5,5" x1="855" x2="855" y1="91.383" y2="198.781"/><text x="5" y="88.081" fill="#000" font-family="sans-serif" font-size="14" lengthAdjust="spacing" textLength="66">EventBus</text><ellipse cx="41" cy="59.086" fill="#FEFECE" rx="12" ry="12" style="stroke:#a80036;stroke-width:2"/><polygon fill="#A80036" points="37 47.086 43 42.086 41 47.086 43 52.086 37 47.086" style="stroke:#a80036;stroke-width:1"/><rect style="stroke:#a80036;stroke-width:1.5" width="178" height="30.297" x="256" y="60.086" fill="#FEFECE"/><text x="263" y="80.081" fill="#000" font-family="sans-serif" font-size="14" lengthAdjust="spacing" textLength="164">SchedulerConfigService</text><rect style="stroke:#a80036;stroke-width:1.5" width="298" height="30.297" x="444" y="60.086" fill="#FEFECE"/><text x="451" y="80.081" fill="#000" font-family="sans-serif" font-size="14" lengthAdjust="spacing" textLength="284">SchedulerAdministrationMessageHandler</text><rect style="stroke:#a80036;stroke-width:1.5" width="206" height="30.297" x="752" y="60.086" fill="#FEFECE"/><text x="759" y="80.081" fill="#000" font-family="sans-serif" font-size="14" lengthAdjust="spacing" textLength="192">NotificationMessageHandler</text><line style="stroke:#a80036;stroke-width:1" x1="41" x2="51" y1="122.516" y2="118.516"/><line style="stroke:#a80036;stroke-width:1" x1="41" x2="51" y1="122.516" y2="126.516"/><line style="stroke:#a80036;stroke-width:1" x1="41" x2="344" y1="122.516" y2="122.516"/><text x="58" y="117.45" fill="#000" font-family="sans-serif" font-size="13" font-weight="bold" lengthAdjust="spacing" textLength="9">1</text><text x="71" y="117.45" fill="#000" font-family="sans-serif" font-size="13" lengthAdjust="spacing" textLength="267">SCHEDULER_JOB_PROCESSING_ENABLED</text><line style="stroke:#a80036;stroke-width:1" x1="591" x2="581" y1="151.648" y2="147.648"/><line style="stroke:#a80036;stroke-width:1" x1="591" x2="581" y1="151.648" y2="155.648"/><line style="stroke:#a80036;stroke-width:1" x1="41" x2="592" y1="151.648" y2="151.648"/><text x="48" y="146.583" fill="#000" font-family="sans-serif" font-size="13" font-weight="bold" lengthAdjust="spacing" textLength="9">2</text><text x="61" y="146.583" fill="#000" font-family="sans-serif" font-size="13" lengthAdjust="spacing" textLength="267">SCHEDULER_JOB_PROCESSING_ENABLED</text><line style="stroke:#a80036;stroke-width:1" x1="853" x2="843" y1="180.781" y2="176.781"/><line style="stroke:#a80036;stroke-width:1" x1="853" x2="843" y1="180.781" y2="184.781"/><line style="stroke:#a80036;stroke-width:1" x1="41" x2="854" y1="180.781" y2="180.781"/><text x="48" y="175.715" fill="#000" font-family="sans-serif" font-size="13" font-weight="bold" lengthAdjust="spacing" textLength="9">3</text><text x="61" y="175.715" fill="#000" font-family="sans-serif" font-size="13" lengthAdjust="spacing" textLength="267">SCHEDULER_JOB_PROCESSING_ENABLED</text></g></svg>