<svg xmlns="http://www.w3.org/2000/svg" xmlns:xlink="http://www.w3.org/1999/xlink" width="861" height="234" contentScriptType="application/ecmascript" contentStyleType="text/css" style="width:861px;height:234px;background:#fff" preserveAspectRatio="none" version="1.1" viewBox="0 0 861 234" zoomAndPan="magnify"><g><text x="170.75" y="28.708" fill="#000" font-family="sans-serif" font-size="18" lengthAdjust="spacing" text-decoration="underline" textLength="201">Communication details</text><text x="383.75" y="28.708" fill="#000" font-family="sans-serif" font-size="18" lengthAdjust="spacing" textLength="17">of</text><text x="406.75" y="28.708" fill="#000" font-family="sans-serif" font-size="18" font-weight="bold" lengthAdjust="spacing" textLength="279">message PROJECT_DELETED</text><rect style="stroke:#a80036;stroke-width:1" width="203" height="180.961" x="94.5" y="40.953" fill="#C8C8CF"/><text x="163" y="53.02" fill="#000" font-family="sans-serif" font-size="13" font-weight="bold" lengthAdjust="spacing" textLength="66">schedule</text><rect style="stroke:#a80036;stroke-width:1" width="172" height="180.961" x="299.5" y="40.953" fill="#F8F8FF"/><text x="368.5" y="53.02" fill="#000" font-family="sans-serif" font-size="13" font-weight="bold" lengthAdjust="spacing" textLength="34">scan</text><rect style="stroke:#a80036;stroke-width:1" width="166" height="180.961" x="473.5" y="40.953" fill="#F8F8FF"/><text x="503" y="53.02" fill="#000" font-family="sans-serif" font-size="13" font-weight="bold" lengthAdjust="spacing" textLength="107">administration</text><rect style="stroke:#a80036;stroke-width:1" width="214" height="180.961" x="641.5" y="40.953" fill="#C8C8CF"/><text x="707" y="53.02" fill="#000" font-family="sans-serif" font-size="13" font-weight="bold" lengthAdjust="spacing" textLength="83">notification</text><line style="stroke:#a80036;stroke-width:1;stroke-dasharray:5,5" x1="41" x2="41" y1="91.383" y2="227.914"/><line style="stroke:#a80036;stroke-width:1;stroke-dasharray:5,5" x1="195.5" x2="195.5" y1="91.383" y2="227.914"/><line style="stroke:#a80036;stroke-width:1;stroke-dasharray:5,5" x1="385.5" x2="385.5" y1="91.383" y2="227.914"/><line style="stroke:#a80036;stroke-width:1;stroke-dasharray:5,5" x1="556.5" x2="556.5" y1="91.383" y2="227.914"/><line style="stroke:#a80036;stroke-width:1;stroke-dasharray:5,5" x1="748.5" x2="748.5" y1="91.383" y2="227.914"/><text x="5" y="88.081" fill="#000" font-family="sans-serif" font-size="14" lengthAdjust="spacing" textLength="66">EventBus</text><ellipse cx="41" cy="59.086" fill="#FEFECE" rx="12" ry="12" style="stroke:#a80036;stroke-width:2"/><polygon fill="#A80036" points="37 47.086 43 42.086 41 47.086 43 52.086 37 47.086" style="stroke:#a80036;stroke-width:1"/><rect style="stroke:#a80036;stroke-width:1.5" width="195" height="30.297" x="98.5" y="60.086" fill="#FEFECE"/><text x="105.5" y="80.081" fill="#000" font-family="sans-serif" font-size="14" lengthAdjust="spacing" textLength="181">ScheduleMessageHandler</text><rect style="stroke:#a80036;stroke-width:1.5" width="164" height="30.297" x="303.5" y="60.086" fill="#FEFECE"/><text x="310.5" y="80.081" fill="#000" font-family="sans-serif" font-size="14" lengthAdjust="spacing" textLength="150">ScanMessageHandler</text><rect style="stroke:#a80036;stroke-width:1.5" width="158" height="30.297" x="477.5" y="60.086" fill="#FEFECE"/><text x="484.5" y="80.081" fill="#000" font-family="sans-serif" font-size="14" lengthAdjust="spacing" textLength="144">ProjectDeleteService</text><rect style="stroke:#a80036;stroke-width:1.5" width="206" height="30.297" x="645.5" y="60.086" fill="#FEFECE"/><text x="652.5" y="80.081" fill="#000" font-family="sans-serif" font-size="14" lengthAdjust="spacing" textLength="192">NotificationMessageHandler</text><line style="stroke:#a80036;stroke-width:1" x1="41" x2="51" y1="122.516" y2="118.516"/><line style="stroke:#a80036;stroke-width:1" x1="41" x2="51" y1="122.516" y2="126.516"/><line style="stroke:#a80036;stroke-width:1" x1="41" x2="555.5" y1="122.516" y2="122.516"/><text x="58" y="117.45" fill="#000" font-family="sans-serif" font-size="13" font-weight="bold" lengthAdjust="spacing" textLength="9">1</text><text x="71" y="117.45" fill="#000" font-family="sans-serif" font-size="13" lengthAdjust="spacing" textLength="118">PROJECT_DELETED</text><line style="stroke:#a80036;stroke-width:1" x1="194" x2="184" y1="151.648" y2="147.648"/><line style="stroke:#a80036;stroke-width:1" x1="194" x2="184" y1="151.648" y2="155.648"/><line style="stroke:#a80036;stroke-width:1" x1="41" x2="195" y1="151.648" y2="151.648"/><text x="48" y="146.583" fill="#000" font-family="sans-serif" font-size="13" font-weight="bold" lengthAdjust="spacing" textLength="9">2</text><text x="61" y="146.583" fill="#000" font-family="sans-serif" font-size="13" lengthAdjust="spacing" textLength="118">PROJECT_DELETED</text><line style="stroke:#a80036;stroke-width:1" x1="383.5" x2="373.5" y1="180.781" y2="176.781"/><line style="stroke:#a80036;stroke-width:1" x1="383.5" x2="373.5" y1="180.781" y2="184.781"/><line style="stroke:#a80036;stroke-width:1" x1="41" x2="384.5" y1="180.781" y2="180.781"/><text x="48" y="175.715" fill="#000" font-family="sans-serif" font-size="13" font-weight="bold" lengthAdjust="spacing" textLength="9">3</text><text x="61" y="175.715" fill="#000" font-family="sans-serif" font-size="13" lengthAdjust="spacing" textLength="118">PROJECT_DELETED</text><line style="stroke:#a80036;stroke-width:1" x1="746.5" x2="736.5" y1="209.914" y2="205.914"/><line style="stroke:#a80036;stroke-width:1" x1="746.5" x2="736.5" y1="209.914" y2="213.914"/><line style="stroke:#a80036;stroke-width:1" x1="41" x2="747.5" y1="209.914" y2="209.914"/><text x="48" y="204.848" fill="#000" font-family="sans-serif" font-size="13" font-weight="bold" lengthAdjust="spacing" textLength="9">4</text><text x="61" y="204.848" fill="#000" font-family="sans-serif" font-size="13" lengthAdjust="spacing" textLength="118">PROJECT_DELETED</text></g></svg>