<svg xmlns="http://www.w3.org/2000/svg" xmlns:xlink="http://www.w3.org/1999/xlink" width="674" height="309" contentScriptType="application/ecmascript" contentStyleType="text/css" style="width:674px;height:309px;background:#fff" preserveAspectRatio="none" version="1.1" viewBox="0 0 674 309" zoomAndPan="magnify"><g><text x="9" y="28.708" fill="#000" font-family="sans-serif" font-size="18" lengthAdjust="spacing" text-decoration="underline" textLength="201">Communication details</text><text x="222" y="28.708" fill="#000" font-family="sans-serif" font-size="18" lengthAdjust="spacing" textLength="17">of</text><text x="245" y="28.708" fill="#000" font-family="sans-serif" font-size="18" font-weight="bold" lengthAdjust="spacing" textLength="413">message REQUEST_PURGE_JOB_RESULTS</text><rect style="stroke:#a80036;stroke-width:1" width="213" height="256.031" x="227.75" y="40.953" fill="#C8C8CF"/><text x="301.25" y="53.02" fill="#000" font-family="sans-serif" font-size="13" font-weight="bold" lengthAdjust="spacing" textLength="66">schedule</text><rect style="stroke:#a80036;stroke-width:1" width="172" height="256.031" x="442.75" y="40.953" fill="#F8F8FF"/><text x="511.75" y="53.02" fill="#000" font-family="sans-serif" font-size="13" font-weight="bold" lengthAdjust="spacing" textLength="34">scan</text><rect style="stroke:#000;stroke-width:2" width="574.5" height="90.203" x="46.25" y="166.648" fill="#FFF"/><rect style="stroke:none;stroke-width:1" width="574.5" height="43.938" x="46.25" y="212.914" fill="#FFF"/><line style="stroke:#a80036;stroke-width:1;stroke-dasharray:5,5" x1="92.25" x2="92.25" y1="91.383" y2="302.984"/><line style="stroke:#a80036;stroke-width:1;stroke-dasharray:5,5" x1="333.75" x2="333.75" y1="91.383" y2="302.984"/><line style="stroke:#a80036;stroke-width:1;stroke-dasharray:5,5" x1="528.75" x2="528.75" y1="91.383" y2="302.984"/><text x="56.25" y="88.081" fill="#000" font-family="sans-serif" font-size="14" lengthAdjust="spacing" textLength="66">EventBus</text><ellipse cx="92.25" cy="59.086" fill="#FEFECE" rx="12" ry="12" style="stroke:#a80036;stroke-width:2"/><polygon fill="#A80036" points="88.25 47.086 94.25 42.086 92.25 47.086 94.25 52.086 88.25 47.086" style="stroke:#a80036;stroke-width:1"/><rect style="stroke:#a80036;stroke-width:1.5" width="205" height="30.297" x="231.75" y="60.086" fill="#FEFECE"/><text x="238.75" y="80.081" fill="#000" font-family="sans-serif" font-size="14" lengthAdjust="spacing" textLength="191">SchedulerRestartJobService</text><rect style="stroke:#a80036;stroke-width:1.5" width="164" height="30.297" x="446.75" y="60.086" fill="#FEFECE"/><text x="453.75" y="80.081" fill="#000" font-family="sans-serif" font-size="14" lengthAdjust="spacing" textLength="150">ScanMessageHandler</text><polygon fill="#A80036" points="103.25 118.516 93.25 122.516 103.25 126.516" style="stroke:#a80036;stroke-width:1"/><line style="stroke:#a80036;stroke-width:1" x1="97.25" x2="333.25" y1="122.516" y2="122.516"/><text x="109.25" y="117.45" fill="#000" font-family="sans-serif" font-size="13" font-weight="bold" lengthAdjust="spacing" textLength="9">1</text><text x="122.25" y="117.45" fill="#000" font-family="sans-serif" font-size="13" lengthAdjust="spacing" textLength="205">REQUEST_PURGE_JOB_RESULTS</text><polygon fill="#A80036" points="516.75 147.648 526.75 151.648 516.75 155.648" style="stroke:#a80036;stroke-width:1"/><line style="stroke:#a80036;stroke-width:1" x1="92.25" x2="522.75" y1="151.648" y2="151.648"/><text x="99.25" y="146.583" fill="#000" font-family="sans-serif" font-size="13" font-weight="bold" lengthAdjust="spacing" textLength="9">2</text><text x="112.25" y="146.583" fill="#000" font-family="sans-serif" font-size="13" lengthAdjust="spacing" textLength="205">REQUEST_PURGE_JOB_RESULTS</text><path fill="#EEE" d="M46.25,166.6484 L110.25,166.6484 L110.25,173.6484 L100.25,183.6484 L46.25,183.6484 L46.25,166.6484" style="stroke:#000;stroke-width:1"/><rect style="stroke:#000;stroke-width:2" width="574.5" height="90.203" x="46.25" y="166.648" fill="none"/><text x="61.25" y="179.715" fill="#000" font-family="sans-serif" font-size="13" font-weight="bold" lengthAdjust="spacing" textLength="19">alt</text><text x="125.25" y="178.859" fill="#000" font-family="sans-serif" font-size="11" font-weight="bold" lengthAdjust="spacing" textLength="47">[failed]</text><polygon fill="#A80036" points="103.25 200.914 93.25 204.914 103.25 208.914" style="stroke:#a80036;stroke-width:1"/><line style="stroke:#a80036;stroke-width:1" x1="97.25" x2="527.75" y1="204.914" y2="204.914"/><text x="109.25" y="199.848" fill="#000" font-family="sans-serif" font-size="13" font-weight="bold" lengthAdjust="spacing" textLength="9">3</text><text x="122.25" y="199.848" fill="#000" font-family="sans-serif" font-size="13" lengthAdjust="spacing" textLength="180">JOB_RESULT_PURGE_FAILED</text><line style="stroke:#000;stroke-width:1;stroke-dasharray:2,2" x1="46.25" x2="620.75" y1="213.914" y2="213.914"/><text x="51.25" y="224.125" fill="#000" font-family="sans-serif" font-size="11" font-weight="bold" lengthAdjust="spacing" textLength="61">[success]</text><polygon fill="#A80036" points="103.25 244.852 93.25 248.852 103.25 252.852" style="stroke:#a80036;stroke-width:1"/><line style="stroke:#a80036;stroke-width:1" x1="97.25" x2="527.75" y1="248.852" y2="248.852"/><text x="109.25" y="243.786" fill="#000" font-family="sans-serif" font-size="13" font-weight="bold" lengthAdjust="spacing" textLength="9">4</text><text x="122.25" y="243.786" fill="#000" font-family="sans-serif" font-size="13" lengthAdjust="spacing" textLength="174">JOB_RESULT_PURGE_DONE</text><polygon fill="#A80036" points="322.25 280.984 332.25 284.984 322.25 288.984" style="stroke:#a80036;stroke-width:1"/><line style="stroke:#a80036;stroke-width:1;stroke-dasharray:2,2" x1="92.25" x2="328.25" y1="284.984" y2="284.984"/><text x="99.25" y="279.918" fill="#000" font-family="sans-serif" font-size="13" font-weight="bold" lengthAdjust="spacing" textLength="9">5</text></g></svg>