<svg xmlns="http://www.w3.org/2000/svg" xmlns:xlink="http://www.w3.org/1999/xlink" width="594" height="176" contentScriptType="application/ecmascript" contentStyleType="text/css" style="width:594px;height:176px;background:#fff" preserveAspectRatio="none" version="1.1" viewBox="0 0 594 176" zoomAndPan="magnify"><g><text x="9" y="28.708" fill="#000" font-family="sans-serif" font-size="18" lengthAdjust="spacing" text-decoration="underline" textLength="201">Communication details</text><text x="222" y="28.708" fill="#000" font-family="sans-serif" font-size="18" lengthAdjust="spacing" textLength="17">of</text><text x="245" y="28.708" fill="#000" font-family="sans-serif" font-size="18" font-weight="bold" lengthAdjust="spacing" textLength="333">message USER_ROLES_CHANGED</text><rect style="stroke:#a80036;stroke-width:1" width="170" height="122.695" x="177" y="40.953" fill="#C8C8CF"/><text x="213.5" y="53.02" fill="#000" font-family="sans-serif" font-size="13" font-weight="bold" lengthAdjust="spacing" textLength="97">authorization</text><rect style="stroke:#a80036;stroke-width:1" width="210" height="122.695" x="349" y="40.953" fill="#F8F8FF"/><text x="400.5" y="53.02" fill="#000" font-family="sans-serif" font-size="13" font-weight="bold" lengthAdjust="spacing" textLength="107">administration</text><line style="stroke:#a80036;stroke-width:1;stroke-dasharray:5,5" x1="68" x2="68" y1="91.383" y2="169.648"/><line style="stroke:#a80036;stroke-width:1;stroke-dasharray:5,5" x1="262" x2="262" y1="91.383" y2="169.648"/><line style="stroke:#a80036;stroke-width:1;stroke-dasharray:5,5" x1="454" x2="454" y1="91.383" y2="169.648"/><text x="32" y="88.081" fill="#000" font-family="sans-serif" font-size="14" lengthAdjust="spacing" textLength="66">EventBus</text><ellipse cx="68" cy="59.086" fill="#FEFECE" rx="12" ry="12" style="stroke:#a80036;stroke-width:2"/><polygon fill="#A80036" points="64 47.086 70 42.086 68 47.086 70 52.086 64 47.086" style="stroke:#a80036;stroke-width:1"/><rect style="stroke:#a80036;stroke-width:1.5" width="162" height="30.297" x="181" y="60.086" fill="#FEFECE"/><text x="188" y="80.081" fill="#000" font-family="sans-serif" font-size="14" lengthAdjust="spacing" textLength="148">AuthMessageHandler</text><rect style="stroke:#a80036;stroke-width:1.5" width="202" height="30.297" x="353" y="60.086" fill="#FEFECE"/><text x="360" y="80.081" fill="#000" font-family="sans-serif" font-size="14" lengthAdjust="spacing" textLength="188">UserRoleCalculationService</text><line style="stroke:#a80036;stroke-width:1" x1="68" x2="78" y1="122.516" y2="118.516"/><line style="stroke:#a80036;stroke-width:1" x1="68" x2="78" y1="122.516" y2="126.516"/><line style="stroke:#a80036;stroke-width:1" x1="68" x2="453" y1="122.516" y2="122.516"/><text x="85" y="117.45" fill="#000" font-family="sans-serif" font-size="13" font-weight="bold" lengthAdjust="spacing" textLength="9">1</text><text x="98" y="117.45" fill="#000" font-family="sans-serif" font-size="13" lengthAdjust="spacing" textLength="157">USER_ROLES_CHANGED</text><line style="stroke:#a80036;stroke-width:1" x1="260" x2="250" y1="151.648" y2="147.648"/><line style="stroke:#a80036;stroke-width:1" x1="260" x2="250" y1="151.648" y2="155.648"/><line style="stroke:#a80036;stroke-width:1" x1="68" x2="261" y1="151.648" y2="151.648"/><text x="75" y="146.583" fill="#000" font-family="sans-serif" font-size="13" font-weight="bold" lengthAdjust="spacing" textLength="9">2</text><text x="88" y="146.583" fill="#000" font-family="sans-serif" font-size="13" lengthAdjust="spacing" textLength="157">USER_ROLES_CHANGED</text></g></svg>