<svg xmlns="http://www.w3.org/2000/svg" xmlns:xlink="http://www.w3.org/1999/xlink" width="1124" height="234" contentScriptType="application/ecmascript" contentStyleType="text/css" style="width:1124px;height:234px;background:#fff" preserveAspectRatio="none" version="1.1" viewBox="0 0 1124 234" zoomAndPan="magnify"><g><text x="170.25" y="28.708" fill="#000" font-family="sans-serif" font-size="18" lengthAdjust="spacing" text-decoration="underline" textLength="201">Communication details</text><text x="383.25" y="28.708" fill="#000" font-family="sans-serif" font-size="18" lengthAdjust="spacing" textLength="17">of</text><text x="406.25" y="28.708" fill="#000" font-family="sans-serif" font-size="18" font-weight="bold" lengthAdjust="spacing" textLength="543">message AUTO_CLEANUP_CONFIGURATION_CHANGED</text><rect style="stroke:#a80036;stroke-width:1" width="203" height="180.961" x="266.5" y="40.953" fill="#C8C8CF"/><text x="335" y="53.02" fill="#000" font-family="sans-serif" font-size="13" font-weight="bold" lengthAdjust="spacing" textLength="66">schedule</text><rect style="stroke:#a80036;stroke-width:1" width="172" height="180.961" x="471.5" y="40.953" fill="#F8F8FF"/><text x="540.5" y="53.02" fill="#000" font-family="sans-serif" font-size="13" font-weight="bold" lengthAdjust="spacing" textLength="34">scan</text><rect style="stroke:#a80036;stroke-width:1" width="473" height="180.961" x="645.5" y="40.953" fill="#F8F8FF"/><text x="828.5" y="53.02" fill="#000" font-family="sans-serif" font-size="13" font-weight="bold" lengthAdjust="spacing" textLength="107">administration</text><line style="stroke:#a80036;stroke-width:1;stroke-dasharray:5,5" x1="41" x2="41" y1="91.383" y2="227.914"/><line style="stroke:#a80036;stroke-width:1;stroke-dasharray:5,5" x1="367.5" x2="367.5" y1="91.383" y2="227.914"/><line style="stroke:#a80036;stroke-width:1;stroke-dasharray:5,5" x1="557.5" x2="557.5" y1="91.383" y2="227.914"/><line style="stroke:#a80036;stroke-width:1;stroke-dasharray:5,5" x1="752.5" x2="752.5" y1="91.383" y2="227.914"/><line style="stroke:#a80036;stroke-width:1;stroke-dasharray:5,5" x1="989.5" x2="989.5" y1="91.383" y2="227.914"/><text x="5" y="88.081" fill="#000" font-family="sans-serif" font-size="14" lengthAdjust="spacing" textLength="66">EventBus</text><ellipse cx="41" cy="59.086" fill="#FEFECE" rx="12" ry="12" style="stroke:#a80036;stroke-width:2"/><polygon fill="#A80036" points="37 47.086 43 42.086 41 47.086 43 52.086 37 47.086" style="stroke:#a80036;stroke-width:1"/><rect style="stroke:#a80036;stroke-width:1.5" width="195" height="30.297" x="270.5" y="60.086" fill="#FEFECE"/><text x="277.5" y="80.081" fill="#000" font-family="sans-serif" font-size="14" lengthAdjust="spacing" textLength="181">ScheduleMessageHandler</text><rect style="stroke:#a80036;stroke-width:1.5" width="164" height="30.297" x="475.5" y="60.086" fill="#FEFECE"/><text x="482.5" y="80.081" fill="#000" font-family="sans-serif" font-size="14" lengthAdjust="spacing" textLength="150">ScanMessageHandler</text><rect style="stroke:#a80036;stroke-width:1.5" width="206" height="30.297" x="649.5" y="60.086" fill="#FEFECE"/><text x="656.5" y="80.081" fill="#000" font-family="sans-serif" font-size="14" lengthAdjust="spacing" textLength="192">AdministrationConfigService</text><rect style="stroke:#a80036;stroke-width:1.5" width="249" height="30.297" x="865.5" y="60.086" fill="#FEFECE"/><text x="872.5" y="80.081" fill="#000" font-family="sans-serif" font-size="14" lengthAdjust="spacing" textLength="235">JobAdministrationMessageHandler</text><line style="stroke:#a80036;stroke-width:1" x1="41" x2="51" y1="122.516" y2="118.516"/><line style="stroke:#a80036;stroke-width:1" x1="41" x2="51" y1="122.516" y2="126.516"/><line style="stroke:#a80036;stroke-width:1" x1="41" x2="751.5" y1="122.516" y2="122.516"/><text x="58" y="117.45" fill="#000" font-family="sans-serif" font-size="13" font-weight="bold" lengthAdjust="spacing" textLength="9">1</text><text x="71" y="117.45" fill="#000" font-family="sans-serif" font-size="13" lengthAdjust="spacing" textLength="290">AUTO_CLEANUP_CONFIGURATION_CHANGED</text><line style="stroke:#a80036;stroke-width:1" x1="366" x2="356" y1="151.648" y2="147.648"/><line style="stroke:#a80036;stroke-width:1" x1="366" x2="356" y1="151.648" y2="155.648"/><line style="stroke:#a80036;stroke-width:1" x1="41" x2="367" y1="151.648" y2="151.648"/><text x="48" y="146.583" fill="#000" font-family="sans-serif" font-size="13" font-weight="bold" lengthAdjust="spacing" textLength="9">2</text><text x="61" y="146.583" fill="#000" font-family="sans-serif" font-size="13" lengthAdjust="spacing" textLength="290">AUTO_CLEANUP_CONFIGURATION_CHANGED</text><line style="stroke:#a80036;stroke-width:1" x1="555.5" x2="545.5" y1="180.781" y2="176.781"/><line style="stroke:#a80036;stroke-width:1" x1="555.5" x2="545.5" y1="180.781" y2="184.781"/><line style="stroke:#a80036;stroke-width:1" x1="41" x2="556.5" y1="180.781" y2="180.781"/><text x="48" y="175.715" fill="#000" font-family="sans-serif" font-size="13" font-weight="bold" lengthAdjust="spacing" textLength="9">3</text><text x="61" y="175.715" fill="#000" font-family="sans-serif" font-size="13" lengthAdjust="spacing" textLength="290">AUTO_CLEANUP_CONFIGURATION_CHANGED</text><line style="stroke:#a80036;stroke-width:1" x1="988" x2="978" y1="209.914" y2="205.914"/><line style="stroke:#a80036;stroke-width:1" x1="988" x2="978" y1="209.914" y2="213.914"/><line style="stroke:#a80036;stroke-width:1" x1="41" x2="989" y1="209.914" y2="209.914"/><text x="48" y="204.848" fill="#000" font-family="sans-serif" font-size="13" font-weight="bold" lengthAdjust="spacing" textLength="9">4</text><text x="61" y="204.848" fill="#000" font-family="sans-serif" font-size="13" lengthAdjust="spacing" textLength="290">AUTO_CLEANUP_CONFIGURATION_CHANGED</text></g></svg>