<svg xmlns="http://www.w3.org/2000/svg" xmlns:xlink="http://www.w3.org/1999/xlink" width="1006" height="264" contentScriptType="application/ecmascript" contentStyleType="text/css" style="width:1006px;height:264px;background:#fff" preserveAspectRatio="none" version="1.1" viewBox="0 0 1006 264" zoomAndPan="magnify"><g><text x="258.5" y="28.708" fill="#000" font-family="sans-serif" font-size="18" lengthAdjust="spacing" text-decoration="underline" textLength="201">Communication details</text><text x="471.5" y="28.708" fill="#000" font-family="sans-serif" font-size="18" lengthAdjust="spacing" textLength="17">of</text><text x="494.5" y="28.708" fill="#000" font-family="sans-serif" font-size="18" font-weight="bold" lengthAdjust="spacing" textLength="248">message USER_DELETED</text><rect style="stroke:#a80036;stroke-width:1" width="203" height="210.094" x="83" y="40.953" fill="#C8C8CF"/><text x="151.5" y="53.02" fill="#000" font-family="sans-serif" font-size="13" font-weight="bold" lengthAdjust="spacing" textLength="66">schedule</text><rect style="stroke:#a80036;stroke-width:1" width="172" height="210.094" x="288" y="40.953" fill="#F8F8FF"/><text x="357" y="53.02" fill="#000" font-family="sans-serif" font-size="13" font-weight="bold" lengthAdjust="spacing" textLength="34">scan</text><rect style="stroke:#a80036;stroke-width:1" width="170" height="210.094" x="462" y="40.953" fill="#C8C8CF"/><text x="498.5" y="53.02" fill="#000" font-family="sans-serif" font-size="13" font-weight="bold" lengthAdjust="spacing" textLength="97">authorization</text><rect style="stroke:#a80036;stroke-width:1" width="150" height="210.094" x="634" y="40.953" fill="#F8F8FF"/><text x="655.5" y="53.02" fill="#000" font-family="sans-serif" font-size="13" font-weight="bold" lengthAdjust="spacing" textLength="107">administration</text><rect style="stroke:#a80036;stroke-width:1" width="214" height="210.094" x="786" y="40.953" fill="#C8C8CF"/><text x="851.5" y="53.02" fill="#000" font-family="sans-serif" font-size="13" font-weight="bold" lengthAdjust="spacing" textLength="83">notification</text><line style="stroke:#a80036;stroke-width:1;stroke-dasharray:5,5" x1="41" x2="41" y1="91.383" y2="257.047"/><line style="stroke:#a80036;stroke-width:1;stroke-dasharray:5,5" x1="184" x2="184" y1="91.383" y2="257.047"/><line style="stroke:#a80036;stroke-width:1;stroke-dasharray:5,5" x1="374" x2="374" y1="91.383" y2="257.047"/><line style="stroke:#a80036;stroke-width:1;stroke-dasharray:5,5" x1="547" x2="547" y1="91.383" y2="257.047"/><line style="stroke:#a80036;stroke-width:1;stroke-dasharray:5,5" x1="709" x2="709" y1="91.383" y2="257.047"/><line style="stroke:#a80036;stroke-width:1;stroke-dasharray:5,5" x1="893" x2="893" y1="91.383" y2="257.047"/><text x="5" y="88.081" fill="#000" font-family="sans-serif" font-size="14" lengthAdjust="spacing" textLength="66">EventBus</text><ellipse cx="41" cy="59.086" fill="#FEFECE" rx="12" ry="12" style="stroke:#a80036;stroke-width:2"/><polygon fill="#A80036" points="37 47.086 43 42.086 41 47.086 43 52.086 37 47.086" style="stroke:#a80036;stroke-width:1"/><rect style="stroke:#a80036;stroke-width:1.5" width="195" height="30.297" x="87" y="60.086" fill="#FEFECE"/><text x="94" y="80.081" fill="#000" font-family="sans-serif" font-size="14" lengthAdjust="spacing" textLength="181">ScheduleMessageHandler</text><rect style="stroke:#a80036;stroke-width:1.5" width="164" height="30.297" x="292" y="60.086" fill="#FEFECE"/><text x="299" y="80.081" fill="#000" font-family="sans-serif" font-size="14" lengthAdjust="spacing" textLength="150">ScanMessageHandler</text><rect style="stroke:#a80036;stroke-width:1.5" width="162" height="30.297" x="466" y="60.086" fill="#FEFECE"/><text x="473" y="80.081" fill="#000" font-family="sans-serif" font-size="14" lengthAdjust="spacing" textLength="148">AuthMessageHandler</text><rect style="stroke:#a80036;stroke-width:1.5" width="142" height="30.297" x="638" y="60.086" fill="#FEFECE"/><text x="645" y="80.081" fill="#000" font-family="sans-serif" font-size="14" lengthAdjust="spacing" textLength="128">UserDeleteService</text><rect style="stroke:#a80036;stroke-width:1.5" width="206" height="30.297" x="790" y="60.086" fill="#FEFECE"/><text x="797" y="80.081" fill="#000" font-family="sans-serif" font-size="14" lengthAdjust="spacing" textLength="192">NotificationMessageHandler</text><line style="stroke:#a80036;stroke-width:1" x1="41" x2="51" y1="122.516" y2="118.516"/><line style="stroke:#a80036;stroke-width:1" x1="41" x2="51" y1="122.516" y2="126.516"/><line style="stroke:#a80036;stroke-width:1" x1="41" x2="708" y1="122.516" y2="122.516"/><text x="58" y="117.45" fill="#000" font-family="sans-serif" font-size="13" font-weight="bold" lengthAdjust="spacing" textLength="9">1</text><text x="71" y="117.45" fill="#000" font-family="sans-serif" font-size="13" lengthAdjust="spacing" textLength="100">USER_DELETED</text><line style="stroke:#a80036;stroke-width:1" x1="182.5" x2="172.5" y1="151.648" y2="147.648"/><line style="stroke:#a80036;stroke-width:1" x1="182.5" x2="172.5" y1="151.648" y2="155.648"/><line style="stroke:#a80036;stroke-width:1" x1="41" x2="183.5" y1="151.648" y2="151.648"/><text x="48" y="146.583" fill="#000" font-family="sans-serif" font-size="13" font-weight="bold" lengthAdjust="spacing" textLength="9">2</text><text x="61" y="146.583" fill="#000" font-family="sans-serif" font-size="13" lengthAdjust="spacing" textLength="100">USER_DELETED</text><line style="stroke:#a80036;stroke-width:1" x1="372" x2="362" y1="180.781" y2="176.781"/><line style="stroke:#a80036;stroke-width:1" x1="372" x2="362" y1="180.781" y2="184.781"/><line style="stroke:#a80036;stroke-width:1" x1="41" x2="373" y1="180.781" y2="180.781"/><text x="48" y="175.715" fill="#000" font-family="sans-serif" font-size="13" font-weight="bold" lengthAdjust="spacing" textLength="9">3</text><text x="61" y="175.715" fill="#000" font-family="sans-serif" font-size="13" lengthAdjust="spacing" textLength="100">USER_DELETED</text><line style="stroke:#a80036;stroke-width:1" x1="545" x2="535" y1="209.914" y2="205.914"/><line style="stroke:#a80036;stroke-width:1" x1="545" x2="535" y1="209.914" y2="213.914"/><line style="stroke:#a80036;stroke-width:1" x1="41" x2="546" y1="209.914" y2="209.914"/><text x="48" y="204.848" fill="#000" font-family="sans-serif" font-size="13" font-weight="bold" lengthAdjust="spacing" textLength="9">4</text><text x="61" y="204.848" fill="#000" font-family="sans-serif" font-size="13" lengthAdjust="spacing" textLength="100">USER_DELETED</text><line style="stroke:#a80036;stroke-width:1" x1="891" x2="881" y1="239.047" y2="235.047"/><line style="stroke:#a80036;stroke-width:1" x1="891" x2="881" y1="239.047" y2="243.047"/><line style="stroke:#a80036;stroke-width:1" x1="41" x2="892" y1="239.047" y2="239.047"/><text x="48" y="233.981" fill="#000" font-family="sans-serif" font-size="13" font-weight="bold" lengthAdjust="spacing" textLength="9">5</text><text x="61" y="233.981" fill="#000" font-family="sans-serif" font-size="13" lengthAdjust="spacing" textLength="100">USER_DELETED</text></g></svg>