<svg xmlns="http://www.w3.org/2000/svg" xmlns:xlink="http://www.w3.org/1999/xlink" width="886" height="179" contentScriptType="application/ecmascript" contentStyleType="text/css" style="width:886px;height:179px;background:#fff" preserveAspectRatio="none" version="1.1" viewBox="0 0 886 179" zoomAndPan="magnify"><defs><filter id="fuwlsriziedm9" width="300%" height="300%" x="-1" y="-1"><feGaussianBlur result="blurOut" stdDeviation="2"/><feColorMatrix in="blurOut" result="blurOut2" type="matrix" values="0 0 0 0 0 0 0 0 0 0 0 0 0 0 0 0 0 0 .4 0"/><feOffset dx="4" dy="4" in="blurOut2" result="blurOut3"/><feBlend in="SourceGraphic" in2="blurOut3" mode="normal"/></filter></defs><g><polygon fill="#FFF" points="16 75.91 83 75.91 90 98.207 120 98.207 120 172.91 16 172.91 16 75.91" filter="url(#fuwlsriziedm9)" style="stroke:#000;stroke-width:1.5"/><line style="stroke:#000;stroke-width:1.5" x1="16" x2="90" y1="98.207" y2="98.207"/><text x="20" y="90.905" fill="#000" font-family="sans-serif" font-size="14" font-weight="bold" lengthAdjust="spacing" textLength="61">&lt;prod&gt;</text><polygon fill="#FEFECE" points="32 120.91 42 110.91 104 110.91 104 147.207 94 157.207 32 157.207 32 120.91" filter="url(#fuwlsriziedm9)" style="stroke:#000;stroke-width:1.5"/><line style="stroke:#000;stroke-width:1.5" x1="94" x2="104" y1="120.91" y2="110.91"/><line style="stroke:#000;stroke-width:1.5" x1="32" x2="94" y1="120.91" y2="120.91"/><line style="stroke:#000;stroke-width:1.5" x1="94" x2="94" y1="120.91" y2="157.207"/><text x="47" y="143.905" fill="#000" font-family="sans-serif" font-size="14" lengthAdjust="spacing" textLength="32">prod</text><polygon fill="#FEFECE" points="276.5 120.91 286.5 110.91 459.5 110.91 459.5 147.207 449.5 157.207 276.5 157.207 276.5 120.91" filter="url(#fuwlsriziedm9)" style="stroke:#000;stroke-width:1.5"/><line style="stroke:#000;stroke-width:1.5" x1="449.5" x2="459.5" y1="120.91" y2="110.91"/><line style="stroke:#000;stroke-width:1.5" x1="276.5" x2="449.5" y1="120.91" y2="120.91"/><line style="stroke:#000;stroke-width:1.5" x1="449.5" x2="449.5" y1="120.91" y2="157.207"/><text x="291.5" y="143.905" fill="#000" font-family="sans-serif" font-size="14" lengthAdjust="spacing" textLength="143">initial_admin_created</text><polygon fill="#FEFECE" points="782.5 120.91 792.5 110.91 869.5 110.91 869.5 147.207 859.5 157.207 782.5 157.207 782.5 120.91" filter="url(#fuwlsriziedm9)" style="stroke:#000;stroke-width:1.5"/><line style="stroke:#000;stroke-width:1.5" x1="859.5" x2="869.5" y1="120.91" y2="110.91"/><line style="stroke:#000;stroke-width:1.5" x1="782.5" x2="859.5" y1="120.91" y2="120.91"/><line style="stroke:#000;stroke-width:1.5" x1="859.5" x2="859.5" y1="120.91" y2="157.207"/><text x="797.5" y="143.905" fill="#000" font-family="sans-serif" font-size="14" lengthAdjust="spacing" textLength="47">default</text><polygon fill="#FEFECE" points="139 120.91 149 110.91 241 110.91 241 147.207 231 157.207 139 157.207 139 120.91" filter="url(#fuwlsriziedm9)" style="stroke:#000;stroke-width:1.5"/><line style="stroke:#000;stroke-width:1.5" x1="231" x2="241" y1="120.91" y2="110.91"/><line style="stroke:#000;stroke-width:1.5" x1="139" x2="231" y1="120.91" y2="120.91"/><line style="stroke:#000;stroke-width:1.5" x1="231" x2="231" y1="120.91" y2="157.207"/><text x="154" y="143.905" fill="#000" font-family="sans-serif" font-size="14" lengthAdjust="spacing" textLength="62">postgres</text><polygon fill="#FEFECE" points="664.5 120.91 674.5 110.91 747.5 110.91 747.5 147.207 737.5 157.207 664.5 157.207 664.5 120.91" filter="url(#fuwlsriziedm9)" style="stroke:#000;stroke-width:1.5"/><line style="stroke:#000;stroke-width:1.5" x1="737.5" x2="747.5" y1="120.91" y2="110.91"/><line style="stroke:#000;stroke-width:1.5" x1="664.5" x2="737.5" y1="120.91" y2="120.91"/><line style="stroke:#000;stroke-width:1.5" x1="737.5" x2="737.5" y1="120.91" y2="157.207"/><text x="679.5" y="143.905" fill="#000" font-family="sans-serif" font-size="14" lengthAdjust="spacing" textLength="43">server</text><polygon fill="#FEFECE" points="495 120.91 505 110.91 629 110.91 629 147.207 619 157.207 495 157.207 495 120.91" filter="url(#fuwlsriziedm9)" style="stroke:#000;stroke-width:1.5"/><line style="stroke:#000;stroke-width:1.5" x1="619" x2="629" y1="120.91" y2="110.91"/><line style="stroke:#000;stroke-width:1.5" x1="495" x2="619" y1="120.91" y2="120.91"/><line style="stroke:#000;stroke-width:1.5" x1="619" x2="619" y1="120.91" y2="157.207"/><text x="510" y="143.905" fill="#000" font-family="sans-serif" font-size="14" lengthAdjust="spacing" textLength="94">real_products</text><path id="prod-to-postgres" fill="none" d="M104.22,133.91 C114.02,133.91 123.81,133.91 133.61,133.91" style="stroke:#a80036;stroke-width:1"/><polygon fill="#A80036" points="138.73 133.91 129.73 129.91 133.73 133.91 129.73 137.91 138.73 133.91" style="stroke:#a80036;stroke-width:1"/><path id="prod-to-initial_admin_created" fill="none" d="M77.67,110.7 C88.77,87.45 109.41,53.02 139.5,37.91 C180.01,17.57 198.53,23.45 241.5,37.91 C281.93,51.51 319.7,83.74 343.25,107.11" style="stroke:#a80036;stroke-width:1"/><polygon fill="#A80036" points="346.91 110.78 343.393 101.581 343.382 107.237 337.725 107.226 346.91 110.78" style="stroke:#a80036;stroke-width:1"/><path id="prod-to-real_products" fill="none" d="M77.67,110.7 C88.77,87.45 109.41,53.02 139.5,37.91 C203.05,6 393.37,11.78 459.5,37.91 C494.29,51.66 524.2,83.42 542.58,106.66" style="stroke:#a80036;stroke-width:1"/><polygon fill="#A80036" points="545.88 110.89 543.505 101.332 542.807 106.945 537.194 106.248 545.88 110.89" style="stroke:#a80036;stroke-width:1"/><path id="prod-to-server" fill="none" d="M77.67,110.7 C88.77,87.45 109.41,53.02 139.5,37.91 C188.16,13.48 580.45,14.28 629.5,37.91 C658.66,51.96 680.14,83.13 692.8,106.16" style="stroke:#a80036;stroke-width:1"/><polygon fill="#A80036" points="695.21 110.65 694.475 100.829 692.844 106.245 687.427 104.615 695.21 110.65" style="stroke:#a80036;stroke-width:1"/><path id="prod-to-default" fill="none" d="M77.67,110.7 C88.77,87.45 109.41,53.02 139.5,37.91 C199.87,7.6 686.46,8.97 747.5,37.91 C777.05,51.92 799.16,83.09 812.27,106.14" style="stroke:#a80036;stroke-width:1"/><polygon fill="#A80036" points="814.77 110.63 813.896 100.82 812.342 106.259 806.903 104.705 814.77 110.63" style="stroke:#a80036;stroke-width:1"/></g></svg>