<svg xmlns="http://www.w3.org/2000/svg" xmlns:xlink="http://www.w3.org/1999/xlink" width="571" height="176" contentScriptType="application/ecmascript" contentStyleType="text/css" style="width:571px;height:176px;background:#fff" preserveAspectRatio="none" version="1.1" viewBox="0 0 571 176" zoomAndPan="magnify"><g><text x="66.5" y="28.708" fill="#000" font-family="sans-serif" font-size="18" lengthAdjust="spacing" text-decoration="underline" textLength="201">Communication details</text><text x="279.5" y="28.708" fill="#000" font-family="sans-serif" font-size="18" lengthAdjust="spacing" textLength="17">of</text><text x="302.5" y="28.708" fill="#000" font-family="sans-serif" font-size="18" font-weight="bold" lengthAdjust="spacing" textLength="197">message JOB_DONE</text><rect style="stroke:#a80036;stroke-width:1" width="223" height="122.695" x="83" y="40.953" fill="#C8C8CF"/><text x="161.5" y="53.02" fill="#000" font-family="sans-serif" font-size="13" font-weight="bold" lengthAdjust="spacing" textLength="66">schedule</text><rect style="stroke:#a80036;stroke-width:1" width="257" height="122.695" x="308" y="40.953" fill="#F8F8FF"/><text x="383" y="53.02" fill="#000" font-family="sans-serif" font-size="13" font-weight="bold" lengthAdjust="spacing" textLength="107">administration</text><line style="stroke:#a80036;stroke-width:1;stroke-dasharray:5,5" x1="41" x2="41" y1="91.383" y2="169.648"/><line style="stroke:#a80036;stroke-width:1;stroke-dasharray:5,5" x1="194" x2="194" y1="91.383" y2="169.648"/><line style="stroke:#a80036;stroke-width:1;stroke-dasharray:5,5" x1="436" x2="436" y1="91.383" y2="169.648"/><text x="5" y="88.081" fill="#000" font-family="sans-serif" font-size="14" lengthAdjust="spacing" textLength="66">EventBus</text><ellipse cx="41" cy="59.086" fill="#FEFECE" rx="12" ry="12" style="stroke:#a80036;stroke-width:2"/><polygon fill="#A80036" points="37 47.086 43 42.086 41 47.086 43 52.086 37 47.086" style="stroke:#a80036;stroke-width:1"/><rect style="stroke:#a80036;stroke-width:1.5" width="215" height="30.297" x="87" y="60.086" fill="#FEFECE"/><text x="94" y="80.081" fill="#000" font-family="sans-serif" font-size="14" lengthAdjust="spacing" textLength="201">SynchronSecHubJobExecutor</text><rect style="stroke:#a80036;stroke-width:1.5" width="249" height="30.297" x="312" y="60.086" fill="#FEFECE"/><text x="319" y="80.081" fill="#000" font-family="sans-serif" font-size="14" lengthAdjust="spacing" textLength="235">JobAdministrationMessageHandler</text><line style="stroke:#a80036;stroke-width:1" x1="41" x2="51" y1="122.516" y2="118.516"/><line style="stroke:#a80036;stroke-width:1" x1="41" x2="51" y1="122.516" y2="126.516"/><line style="stroke:#a80036;stroke-width:1" x1="41" x2="193.5" y1="122.516" y2="122.516"/><text x="58" y="117.45" fill="#000" font-family="sans-serif" font-size="13" font-weight="bold" lengthAdjust="spacing" textLength="9">1</text><text x="71" y="117.45" fill="#000" font-family="sans-serif" font-size="13" lengthAdjust="spacing" textLength="67">JOB_DONE</text><line style="stroke:#a80036;stroke-width:1" x1="434.5" x2="424.5" y1="151.648" y2="147.648"/><line style="stroke:#a80036;stroke-width:1" x1="434.5" x2="424.5" y1="151.648" y2="155.648"/><line style="stroke:#a80036;stroke-width:1" x1="41" x2="435.5" y1="151.648" y2="151.648"/><text x="48" y="146.583" fill="#000" font-family="sans-serif" font-size="13" font-weight="bold" lengthAdjust="spacing" textLength="9">2</text><text x="61" y="146.583" fill="#000" font-family="sans-serif" font-size="13" lengthAdjust="spacing" textLength="67">JOB_DONE</text></g></svg>