<svg xmlns="http://www.w3.org/2000/svg" xmlns:xlink="http://www.w3.org/1999/xlink" width="570" height="176" contentScriptType="application/ecmascript" contentStyleType="text/css" style="width:570px;height:176px;background:#fff" preserveAspectRatio="none" version="1.1" viewBox="0 0 570 176" zoomAndPan="magnify"><g><text x="48.5" y="28.708" fill="#000" font-family="sans-serif" font-size="18" lengthAdjust="spacing" text-decoration="underline" textLength="201">Communication details</text><text x="261.5" y="28.708" fill="#000" font-family="sans-serif" font-size="18" lengthAdjust="spacing" textLength="17">of</text><text x="284.5" y="28.708" fill="#000" font-family="sans-serif" font-size="18" font-weight="bold" lengthAdjust="spacing" textLength="232">message JOB_STARTED</text><rect style="stroke:#a80036;stroke-width:1" width="222" height="122.695" x="83" y="40.953" fill="#C8C8CF"/><text x="161" y="53.02" fill="#000" font-family="sans-serif" font-size="13" font-weight="bold" lengthAdjust="spacing" textLength="66">schedule</text><rect style="stroke:#a80036;stroke-width:1" width="257" height="122.695" x="307" y="40.953" fill="#F8F8FF"/><text x="382" y="53.02" fill="#000" font-family="sans-serif" font-size="13" font-weight="bold" lengthAdjust="spacing" textLength="107">administration</text><line style="stroke:#a80036;stroke-width:1;stroke-dasharray:5,5" x1="41" x2="41" y1="91.383" y2="169.648"/><line style="stroke:#a80036;stroke-width:1;stroke-dasharray:5,5" x1="194" x2="194" y1="91.383" y2="169.648"/><line style="stroke:#a80036;stroke-width:1;stroke-dasharray:5,5" x1="435" x2="435" y1="91.383" y2="169.648"/><text x="5" y="88.081" fill="#000" font-family="sans-serif" font-size="14" lengthAdjust="spacing" textLength="66">EventBus</text><ellipse cx="41" cy="59.086" fill="#FEFECE" rx="12" ry="12" style="stroke:#a80036;stroke-width:2"/><polygon fill="#A80036" points="37 47.086 43 42.086 41 47.086 43 52.086 37 47.086" style="stroke:#a80036;stroke-width:1"/><rect style="stroke:#a80036;stroke-width:1.5" width="214" height="30.297" x="87" y="60.086" fill="#FEFECE"/><text x="94" y="80.081" fill="#000" font-family="sans-serif" font-size="14" lengthAdjust="spacing" textLength="200">ScheduleJobLauncherService</text><rect style="stroke:#a80036;stroke-width:1.5" width="249" height="30.297" x="311" y="60.086" fill="#FEFECE"/><text x="318" y="80.081" fill="#000" font-family="sans-serif" font-size="14" lengthAdjust="spacing" textLength="235">JobAdministrationMessageHandler</text><line style="stroke:#a80036;stroke-width:1" x1="41" x2="51" y1="122.516" y2="118.516"/><line style="stroke:#a80036;stroke-width:1" x1="41" x2="51" y1="122.516" y2="126.516"/><line style="stroke:#a80036;stroke-width:1" x1="41" x2="193" y1="122.516" y2="122.516"/><text x="58" y="117.45" fill="#000" font-family="sans-serif" font-size="13" font-weight="bold" lengthAdjust="spacing" textLength="9">1</text><text x="71" y="117.45" fill="#000" font-family="sans-serif" font-size="13" lengthAdjust="spacing" textLength="87">JOB_STARTED</text><line style="stroke:#a80036;stroke-width:1" x1="433.5" x2="423.5" y1="151.648" y2="147.648"/><line style="stroke:#a80036;stroke-width:1" x1="433.5" x2="423.5" y1="151.648" y2="155.648"/><line style="stroke:#a80036;stroke-width:1" x1="41" x2="434.5" y1="151.648" y2="151.648"/><text x="48" y="146.583" fill="#000" font-family="sans-serif" font-size="13" font-weight="bold" lengthAdjust="spacing" textLength="9">2</text><text x="61" y="146.583" fill="#000" font-family="sans-serif" font-size="13" lengthAdjust="spacing" textLength="87">JOB_STARTED</text></g></svg>