<svg xmlns="http://www.w3.org/2000/svg" xmlns:xlink="http://www.w3.org/1999/xlink" width="586" height="176" contentScriptType="application/ecmascript" contentStyleType="text/css" style="width:586px;height:176px;background:#fff" preserveAspectRatio="none" version="1.1" viewBox="0 0 586 176" zoomAndPan="magnify"><g><text x="9" y="28.708" fill="#000" font-family="sans-serif" font-size="18" lengthAdjust="spacing" text-decoration="underline" textLength="201">Communication details</text><text x="222" y="28.708" fill="#000" font-family="sans-serif" font-size="18" lengthAdjust="spacing" textLength="17">of</text><text x="245" y="28.708" fill="#000" font-family="sans-serif" font-size="18" font-weight="bold" lengthAdjust="spacing" textLength="325">message JOB_RESULTS_PURGED</text><rect style="stroke:#a80036;stroke-width:1" width="170" height="122.695" x="166.5" y="40.953" fill="#F8F8FF"/><text x="234.5" y="53.02" fill="#000" font-family="sans-serif" font-size="13" font-weight="bold" lengthAdjust="spacing" textLength="34">scan</text><rect style="stroke:#a80036;stroke-width:1" width="214" height="122.695" x="338.5" y="40.953" fill="#C8C8CF"/><text x="404" y="53.02" fill="#000" font-family="sans-serif" font-size="13" font-weight="bold" lengthAdjust="spacing" textLength="83">notification</text><line style="stroke:#a80036;stroke-width:1;stroke-dasharray:5,5" x1="66.5" x2="66.5" y1="91.383" y2="169.648"/><line style="stroke:#a80036;stroke-width:1;stroke-dasharray:5,5" x1="251.5" x2="251.5" y1="91.383" y2="169.648"/><line style="stroke:#a80036;stroke-width:1;stroke-dasharray:5,5" x1="445.5" x2="445.5" y1="91.383" y2="169.648"/><text x="30.5" y="88.081" fill="#000" font-family="sans-serif" font-size="14" lengthAdjust="spacing" textLength="66">EventBus</text><ellipse cx="66.5" cy="59.086" fill="#FEFECE" rx="12" ry="12" style="stroke:#a80036;stroke-width:2"/><polygon fill="#A80036" points="62.5 47.086 68.5 42.086 66.5 47.086 68.5 52.086 62.5 47.086" style="stroke:#a80036;stroke-width:1"/><rect style="stroke:#a80036;stroke-width:1.5" width="162" height="30.297" x="170.5" y="60.086" fill="#FEFECE"/><text x="177.5" y="80.081" fill="#000" font-family="sans-serif" font-size="14" lengthAdjust="spacing" textLength="148">ProductResultService</text><rect style="stroke:#a80036;stroke-width:1.5" width="206" height="30.297" x="342.5" y="60.086" fill="#FEFECE"/><text x="349.5" y="80.081" fill="#000" font-family="sans-serif" font-size="14" lengthAdjust="spacing" textLength="192">NotificationMessageHandler</text><line style="stroke:#a80036;stroke-width:1" x1="66.5" x2="76.5" y1="122.516" y2="118.516"/><line style="stroke:#a80036;stroke-width:1" x1="66.5" x2="76.5" y1="122.516" y2="126.516"/><line style="stroke:#a80036;stroke-width:1" x1="66.5" x2="250.5" y1="122.516" y2="122.516"/><text x="83.5" y="117.45" fill="#000" font-family="sans-serif" font-size="13" font-weight="bold" lengthAdjust="spacing" textLength="9">1</text><text x="96.5" y="117.45" fill="#000" font-family="sans-serif" font-size="13" lengthAdjust="spacing" textLength="148">JOB_RESULTS_PURGED</text><line style="stroke:#a80036;stroke-width:1" x1="443.5" x2="433.5" y1="151.648" y2="147.648"/><line style="stroke:#a80036;stroke-width:1" x1="443.5" x2="433.5" y1="151.648" y2="155.648"/><line style="stroke:#a80036;stroke-width:1" x1="66.5" x2="444.5" y1="151.648" y2="151.648"/><text x="73.5" y="146.583" fill="#000" font-family="sans-serif" font-size="13" font-weight="bold" lengthAdjust="spacing" textLength="9">2</text><text x="86.5" y="146.583" fill="#000" font-family="sans-serif" font-size="13" lengthAdjust="spacing" textLength="148">JOB_RESULTS_PURGED</text></g></svg>