<svg xmlns="http://www.w3.org/2000/svg" xmlns:xlink="http://www.w3.org/1999/xlink" width="662" height="234" contentScriptType="application/ecmascript" contentStyleType="text/css" style="width:662px;height:234px;background:#fff" preserveAspectRatio="none" version="1.1" viewBox="0 0 662 234" zoomAndPan="magnify"><g><text x="9" y="28.708" fill="#000" font-family="sans-serif" font-size="18" lengthAdjust="spacing" text-decoration="underline" textLength="201">Communication details</text><text x="222" y="28.708" fill="#000" font-family="sans-serif" font-size="18" lengthAdjust="spacing" textLength="17">of</text><text x="245" y="28.708" fill="#000" font-family="sans-serif" font-size="18" font-weight="bold" lengthAdjust="spacing" textLength="401">message REQUEST_BATCH_JOB_STATUS</text><rect style="stroke:#a80036;stroke-width:1" width="309" height="180.961" x="147.25" y="40.953" fill="#C8C8CF"/><text x="268.75" y="53.02" fill="#000" font-family="sans-serif" font-size="13" font-weight="bold" lengthAdjust="spacing" textLength="66">schedule</text><rect style="stroke:#a80036;stroke-width:1" width="170" height="180.961" x="458.25" y="40.953" fill="#F8F8FF"/><text x="526.25" y="53.02" fill="#000" font-family="sans-serif" font-size="13" font-weight="bold" lengthAdjust="spacing" textLength="34">scan</text><line style="stroke:#a80036;stroke-width:1;stroke-dasharray:5,5" x1="66.75" x2="66.75" y1="91.383" y2="227.914"/><line style="stroke:#a80036;stroke-width:1;stroke-dasharray:5,5" x1="301.25" x2="301.25" y1="91.383" y2="227.914"/><line style="stroke:#a80036;stroke-width:1;stroke-dasharray:5,5" x1="543.25" x2="543.25" y1="91.383" y2="227.914"/><text x="30.75" y="88.081" fill="#000" font-family="sans-serif" font-size="14" lengthAdjust="spacing" textLength="66">EventBus</text><ellipse cx="66.75" cy="59.086" fill="#FEFECE" rx="12" ry="12" style="stroke:#a80036;stroke-width:2"/><polygon fill="#A80036" points="62.75 47.086 68.75 42.086 66.75 47.086 68.75 52.086 62.75 47.086" style="stroke:#a80036;stroke-width:1"/><rect style="stroke:#a80036;stroke-width:1.5" width="301" height="30.297" x="151.25" y="60.086" fill="#FEFECE"/><text x="158.25" y="80.081" fill="#000" font-family="sans-serif" font-size="14" lengthAdjust="spacing" textLength="287">SchedulerBatchJobStatusRequestHandler</text><rect style="stroke:#a80036;stroke-width:1.5" width="162" height="30.297" x="462.25" y="60.086" fill="#FEFECE"/><text x="469.25" y="80.081" fill="#000" font-family="sans-serif" font-size="14" lengthAdjust="spacing" textLength="148">ScanProgressMonitor</text><polygon fill="#A80036" points="77.75 118.516 67.75 122.516 77.75 126.516" style="stroke:#a80036;stroke-width:1"/><line style="stroke:#a80036;stroke-width:1" x1="71.75" x2="542.25" y1="122.516" y2="122.516"/><text x="83.75" y="117.45" fill="#000" font-family="sans-serif" font-size="13" font-weight="bold" lengthAdjust="spacing" textLength="9">1</text><text x="96.75" y="117.45" fill="#000" font-family="sans-serif" font-size="13" lengthAdjust="spacing" textLength="198">REQUEST_BATCH_JOB_STATUS</text><polygon fill="#A80036" points="289.75 147.648 299.75 151.648 289.75 155.648" style="stroke:#a80036;stroke-width:1"/><line style="stroke:#a80036;stroke-width:1" x1="66.75" x2="295.75" y1="151.648" y2="151.648"/><text x="73.75" y="146.583" fill="#000" font-family="sans-serif" font-size="13" font-weight="bold" lengthAdjust="spacing" textLength="9">2</text><text x="86.75" y="146.583" fill="#000" font-family="sans-serif" font-size="13" lengthAdjust="spacing" textLength="198">REQUEST_BATCH_JOB_STATUS</text><polygon fill="#A80036" points="77.75 176.781 67.75 180.781 77.75 184.781" style="stroke:#a80036;stroke-width:1"/><line style="stroke:#a80036;stroke-width:1" x1="71.75" x2="300.75" y1="180.781" y2="180.781"/><text x="83.75" y="175.715" fill="#000" font-family="sans-serif" font-size="13" font-weight="bold" lengthAdjust="spacing" textLength="9">3</text><text x="96.75" y="175.715" fill="#000" font-family="sans-serif" font-size="13" lengthAdjust="spacing" textLength="131">BATCH_JOB_STATUS</text><polygon fill="#A80036" points="531.25 205.914 541.25 209.914 531.25 213.914" style="stroke:#a80036;stroke-width:1"/><line style="stroke:#a80036;stroke-width:1;stroke-dasharray:2,2" x1="66.75" x2="537.25" y1="209.914" y2="209.914"/><text x="73.75" y="204.848" fill="#000" font-family="sans-serif" font-size="13" font-weight="bold" lengthAdjust="spacing" textLength="9">4</text></g></svg>