<svg xmlns="http://www.w3.org/2000/svg" xmlns:xlink="http://www.w3.org/1999/xlink" width="629" height="176" contentScriptType="application/ecmascript" contentStyleType="text/css" style="width:629px;height:176px;background:#fff" preserveAspectRatio="none" version="1.1" viewBox="0 0 629 176" zoomAndPan="magnify"><g><text x="9" y="28.708" fill="#000" font-family="sans-serif" font-size="18" lengthAdjust="spacing" text-decoration="underline" textLength="201">Communication details</text><text x="222" y="28.708" fill="#000" font-family="sans-serif" font-size="18" lengthAdjust="spacing" textLength="17">of</text><text x="245" y="28.708" fill="#000" font-family="sans-serif" font-size="18" font-weight="bold" lengthAdjust="spacing" textLength="368">message USER_SIGNUP_REQUESTED</text><rect style="stroke:#a80036;stroke-width:1" width="248" height="122.695" x="144" y="40.953" fill="#F8F8FF"/><text x="214.5" y="53.02" fill="#000" font-family="sans-serif" font-size="13" font-weight="bold" lengthAdjust="spacing" textLength="107">administration</text><rect style="stroke:#a80036;stroke-width:1" width="214" height="122.695" x="394" y="40.953" fill="#C8C8CF"/><text x="459.5" y="53.02" fill="#000" font-family="sans-serif" font-size="13" font-weight="bold" lengthAdjust="spacing" textLength="83">notification</text><line style="stroke:#a80036;stroke-width:1;stroke-dasharray:5,5" x1="54" x2="54" y1="91.383" y2="169.648"/><line style="stroke:#a80036;stroke-width:1;stroke-dasharray:5,5" x1="268" x2="268" y1="91.383" y2="169.648"/><line style="stroke:#a80036;stroke-width:1;stroke-dasharray:5,5" x1="501" x2="501" y1="91.383" y2="169.648"/><text x="18" y="88.081" fill="#000" font-family="sans-serif" font-size="14" lengthAdjust="spacing" textLength="66">EventBus</text><ellipse cx="54" cy="59.086" fill="#FEFECE" rx="12" ry="12" style="stroke:#a80036;stroke-width:2"/><polygon fill="#A80036" points="50 47.086 56 42.086 54 47.086 56 52.086 50 47.086" style="stroke:#a80036;stroke-width:1"/><rect style="stroke:#a80036;stroke-width:1.5" width="240" height="30.297" x="148" y="60.086" fill="#FEFECE"/><text x="155" y="80.081" fill="#000" font-family="sans-serif" font-size="14" lengthAdjust="spacing" textLength="226">AnonymousSignupCreateService</text><rect style="stroke:#a80036;stroke-width:1.5" width="206" height="30.297" x="398" y="60.086" fill="#FEFECE"/><text x="405" y="80.081" fill="#000" font-family="sans-serif" font-size="14" lengthAdjust="spacing" textLength="192">NotificationMessageHandler</text><line style="stroke:#a80036;stroke-width:1" x1="54" x2="64" y1="122.516" y2="118.516"/><line style="stroke:#a80036;stroke-width:1" x1="54" x2="64" y1="122.516" y2="126.516"/><line style="stroke:#a80036;stroke-width:1" x1="54" x2="267" y1="122.516" y2="122.516"/><text x="71" y="117.45" fill="#000" font-family="sans-serif" font-size="13" font-weight="bold" lengthAdjust="spacing" textLength="9">1</text><text x="84" y="117.45" fill="#000" font-family="sans-serif" font-size="13" lengthAdjust="spacing" textLength="177">USER_SIGNUP_REQUESTED</text><line style="stroke:#a80036;stroke-width:1" x1="499" x2="489" y1="151.648" y2="147.648"/><line style="stroke:#a80036;stroke-width:1" x1="499" x2="489" y1="151.648" y2="155.648"/><line style="stroke:#a80036;stroke-width:1" x1="54" x2="500" y1="151.648" y2="151.648"/><text x="61" y="146.583" fill="#000" font-family="sans-serif" font-size="13" font-weight="bold" lengthAdjust="spacing" textLength="9">2</text><text x="74" y="146.583" fill="#000" font-family="sans-serif" font-size="13" lengthAdjust="spacing" textLength="177">USER_SIGNUP_REQUESTED</text></g></svg>