<svg xmlns="http://www.w3.org/2000/svg" xmlns:xlink="http://www.w3.org/1999/xlink" width="732" height="205" contentScriptType="application/ecmascript" contentStyleType="text/css" style="width:732px;height:205px;background:#fff" preserveAspectRatio="none" version="1.1" viewBox="0 0 732 205" zoomAndPan="magnify"><g><text x="65.25" y="28.708" fill="#000" font-family="sans-serif" font-size="18" lengthAdjust="spacing" text-decoration="underline" textLength="201">Communication details</text><text x="278.25" y="28.708" fill="#000" font-family="sans-serif" font-size="18" lengthAdjust="spacing" textLength="17">of</text><text x="301.25" y="28.708" fill="#000" font-family="sans-serif" font-size="18" font-weight="bold" lengthAdjust="spacing" textLength="361">message USER_ADDED_TO_PROJECT</text><rect style="stroke:#a80036;stroke-width:1" width="203" height="151.828" x="149.5" y="40.953" fill="#C8C8CF"/><text x="218" y="53.02" fill="#000" font-family="sans-serif" font-size="13" font-weight="bold" lengthAdjust="spacing" textLength="66">schedule</text><rect style="stroke:#a80036;stroke-width:1" width="172" height="151.828" x="354.5" y="40.953" fill="#F8F8FF"/><text x="423.5" y="53.02" fill="#000" font-family="sans-serif" font-size="13" font-weight="bold" lengthAdjust="spacing" textLength="34">scan</text><rect style="stroke:#a80036;stroke-width:1" width="198" height="151.828" x="528.5" y="40.953" fill="#F8F8FF"/><text x="574" y="53.02" fill="#000" font-family="sans-serif" font-size="13" font-weight="bold" lengthAdjust="spacing" textLength="107">administration</text><line style="stroke:#a80036;stroke-width:1;stroke-dasharray:5,5" x1="41" x2="41" y1="91.383" y2="198.781"/><line style="stroke:#a80036;stroke-width:1;stroke-dasharray:5,5" x1="250.5" x2="250.5" y1="91.383" y2="198.781"/><line style="stroke:#a80036;stroke-width:1;stroke-dasharray:5,5" x1="440.5" x2="440.5" y1="91.383" y2="198.781"/><line style="stroke:#a80036;stroke-width:1;stroke-dasharray:5,5" x1="627.5" x2="627.5" y1="91.383" y2="198.781"/><text x="5" y="88.081" fill="#000" font-family="sans-serif" font-size="14" lengthAdjust="spacing" textLength="66">EventBus</text><ellipse cx="41" cy="59.086" fill="#FEFECE" rx="12" ry="12" style="stroke:#a80036;stroke-width:2"/><polygon fill="#A80036" points="37 47.086 43 42.086 41 47.086 43 52.086 37 47.086" style="stroke:#a80036;stroke-width:1"/><rect style="stroke:#a80036;stroke-width:1.5" width="195" height="30.297" x="153.5" y="60.086" fill="#FEFECE"/><text x="160.5" y="80.081" fill="#000" font-family="sans-serif" font-size="14" lengthAdjust="spacing" textLength="181">ScheduleMessageHandler</text><rect style="stroke:#a80036;stroke-width:1.5" width="164" height="30.297" x="358.5" y="60.086" fill="#FEFECE"/><text x="365.5" y="80.081" fill="#000" font-family="sans-serif" font-size="14" lengthAdjust="spacing" textLength="150">ScanMessageHandler</text><rect style="stroke:#a80036;stroke-width:1.5" width="190" height="30.297" x="532.5" y="60.086" fill="#FEFECE"/><text x="539.5" y="80.081" fill="#000" font-family="sans-serif" font-size="14" lengthAdjust="spacing" textLength="176">ProjectAssignUserService</text><line style="stroke:#a80036;stroke-width:1" x1="41" x2="51" y1="122.516" y2="118.516"/><line style="stroke:#a80036;stroke-width:1" x1="41" x2="51" y1="122.516" y2="126.516"/><line style="stroke:#a80036;stroke-width:1" x1="41" x2="626.5" y1="122.516" y2="122.516"/><text x="58" y="117.45" fill="#000" font-family="sans-serif" font-size="13" font-weight="bold" lengthAdjust="spacing" textLength="9">1</text><text x="71" y="117.45" fill="#000" font-family="sans-serif" font-size="13" lengthAdjust="spacing" textLength="173">USER_ADDED_TO_PROJECT</text><line style="stroke:#a80036;stroke-width:1" x1="249" x2="239" y1="151.648" y2="147.648"/><line style="stroke:#a80036;stroke-width:1" x1="249" x2="239" y1="151.648" y2="155.648"/><line style="stroke:#a80036;stroke-width:1" x1="41" x2="250" y1="151.648" y2="151.648"/><text x="48" y="146.583" fill="#000" font-family="sans-serif" font-size="13" font-weight="bold" lengthAdjust="spacing" textLength="9">2</text><text x="61" y="146.583" fill="#000" font-family="sans-serif" font-size="13" lengthAdjust="spacing" textLength="173">USER_ADDED_TO_PROJECT</text><line style="stroke:#a80036;stroke-width:1" x1="438.5" x2="428.5" y1="180.781" y2="176.781"/><line style="stroke:#a80036;stroke-width:1" x1="438.5" x2="428.5" y1="180.781" y2="184.781"/><line style="stroke:#a80036;stroke-width:1" x1="41" x2="439.5" y1="180.781" y2="180.781"/><text x="48" y="175.715" fill="#000" font-family="sans-serif" font-size="13" font-weight="bold" lengthAdjust="spacing" textLength="9">3</text><text x="61" y="175.715" fill="#000" font-family="sans-serif" font-size="13" lengthAdjust="spacing" textLength="173">USER_ADDED_TO_PROJECT</text></g></svg>